<svg width="22" height="22" viewBox="0 0 22 22" fill="none" xmlns="http://www.w3.org/2000/svg">
<rect x="0.354858" y="0.698181" width="20.9674" height="21.1176" rx="3" fill="#1472F5"/>
<path fill-rule="evenodd" clip-rule="evenodd" d="M9.46356 3.7598H12.0138V6.13126H16.9801V7.11558H12.0138V8.41309H16.0853C15.7076 10.1615 15.3233 11.1918 14.4746 13.111L21.3201 15.4376V18.9274L13.0876 15.1691C8.03227 21.5672 2.11827 18.3142 1.8574 15.7507C1.52845 13.9464 2.1258 12.0626 5.07885 11.0976C8.14882 10.668 9.7465 11.0226 12.3718 12.3504C12.917 11.298 13.1578 10.6796 13.4008 9.53164H5.3473V8.59206H9.55303V7.11558H4.36298V6.22074H9.46355L9.46356 3.7598ZM11.1002 14.0748C9.5966 16.1265 8.56335 17.0049 5.99933 17.3336C2.23394 17.2185 1.19233 13.1404 5.70555 12.3655C7.56752 12.3079 9.03705 13.0431 10.7146 13.8823C10.8418 13.946 10.9703 14.0102 11.1002 14.0748Z" fill="white"/>
</svg>
