<svg width="12" height="21" viewBox="0 0 12 21" fill="none" xmlns="http://www.w3.org/2000/svg">
<path d="M9.38962 10.171L0.897619 18.898C0.827704 18.9683 0.77243 19.0518 0.734995 19.1436C0.69756 19.2355 0.678709 19.3338 0.679533 19.433C0.680357 19.5322 0.700839 19.6302 0.739794 19.7214C0.778749 19.8126 0.835403 19.8951 0.906477 19.9643C0.977551 20.0334 1.06164 20.0878 1.15386 20.1243C1.24609 20.1607 1.34463 20.1785 1.44378 20.1766C1.54294 20.1747 1.64073 20.1532 1.7315 20.1133C1.82227 20.0733 1.90423 20.0158 1.97262 19.944L10.9726 10.694C11.1088 10.554 11.1851 10.3663 11.1851 10.171C11.1851 9.97564 11.1088 9.78801 10.9726 9.64799L1.97262 0.397988C1.90423 0.326175 1.82228 0.26864 1.7315 0.228709C1.64073 0.188779 1.54294 0.167247 1.44379 0.165359C1.34464 0.16347 1.24609 0.181264 1.15387 0.217712C1.06164 0.254159 0.977553 0.308534 0.906479 0.37769C0.835404 0.446847 0.77875 0.529414 0.739795 0.620612C0.700841 0.71181 0.680359 0.809827 0.679535 0.908992C0.678711 1.00816 0.697562 1.1065 0.734997 1.19833C0.772431 1.29016 0.827705 1.37366 0.897621 1.44399L9.38962 10.171Z" fill="#9A9A9B"/>
</svg>
