<svg width="43" height="55" viewBox="0 0 43 55" fill="none" xmlns="http://www.w3.org/2000/svg">
<path opacity="0.5" d="M38.7162 19.0957C36.2145 17.5518 32.9163 17.8337 31.3947 18.0933V16.3211C31.3947 16.3211 32.4509 15.9318 32.339 14.6563C32.2271 13.3809 29.2869 13.269 29.2869 13.269L2.54761 13.2153C2.54761 13.2153 1.1603 13.4391 1.1603 14.7145C1.1603 15.9899 2.15827 16.2092 2.15827 16.2092C2.15827 16.2092 1.8271 42.3936 1.71522 43.1141C1.60334 43.8346 0.829133 46.7211 0.605373 47.6609C0.381613 48.6052 0.605373 49.2138 1.32588 49.8224C2.04639 50.4311 6.59766 54.15 16.4162 54.4274C26.0111 54.7004 30.4505 51.0442 31.3366 50.2655C31.8825 49.7911 32.2226 48.8782 32.0571 48.2114C31.8915 47.5446 31.4484 44.1613 31.4484 44.1613L31.4037 42.228C32.1376 42.1698 33.055 42.0445 33.8874 41.776C36.662 40.8899 39.9513 38.4196 41.0433 35.5063C42.5469 31.5234 43.6031 22.1165 38.7162 19.0957ZM35.3329 35.3496C33.9903 36.7191 32.3838 36.9607 31.3947 37.0055V23.2263C32.4061 23.0339 34.3394 22.7699 35.4985 23.2577C36.5546 23.7007 37.1633 24.4212 37.4944 26.0323C37.6913 26.9587 38.0538 32.575 35.3329 35.3496Z" fill="white"/>
<path opacity="0.7" d="M38.7162 19.0957C36.2145 17.5518 32.9163 17.8337 31.3947 18.0933V16.3211C31.3947 16.3211 32.4509 15.9318 32.339 14.6563C32.2271 13.3809 29.2869 13.269 29.2869 13.269L2.54761 13.2153C2.54761 13.2153 1.1603 13.4391 1.1603 14.7145C1.1603 15.9899 2.15827 16.2092 2.15827 16.2092C2.15827 16.2092 1.8271 42.3936 1.71522 43.1141C1.60334 43.8346 0.829133 46.7211 0.605373 47.6609C0.381613 48.6052 0.605373 49.2138 1.32588 49.8224C2.04639 50.4311 6.59766 54.15 16.4162 54.4274C26.0111 54.7004 30.4505 51.0442 31.3366 50.2655C31.8825 49.7911 32.2226 48.8782 32.0571 48.2114C31.8915 47.5446 31.4484 44.1613 31.4484 44.1613L31.4037 42.228C32.1376 42.1698 33.055 42.0445 33.8874 41.776C36.662 40.8899 39.9513 38.4196 41.0433 35.5063C42.5469 31.5234 43.6031 22.1165 38.7162 19.0957ZM35.3329 35.3496C33.9903 36.7191 32.3838 36.9607 31.3947 37.0055V23.2263C32.4061 23.0339 34.3394 22.7699 35.4985 23.2577C36.5546 23.7007 37.1633 24.4212 37.4944 26.0323C37.6913 26.9587 38.0538 32.575 35.3329 35.3496Z" fill="#E0E0E0"/>
<path d="M2.98171 41.2524L2.77585 47.0478L5.62208 49.894L6.53949 50.5027L6.57529 45.3517L4.67333 43.7272L2.98171 41.2524Z" fill="white"/>
<path d="M1.93002 47.7594C1.96582 47.9966 4.23475 50.4042 8.70995 51.8945C13.1851 53.3847 18.6762 53.4518 23.7914 52.2659C28.9065 51.08 30.8398 48.0279 30.8398 48.0279C30.8398 48.0279 30.9427 47.3835 30.3654 47.1149C29.7881 46.8464 28.4008 46.8106 27.4834 47.7594C26.5839 48.6902 26.4989 50.167 26.4989 50.167C26.4989 50.167 25.5143 48.2695 23.1425 48.7439C20.6766 49.2362 19.889 51.7289 19.889 51.7289C19.889 51.7289 18.8731 49.5942 16.4297 49.5584C13.9907 49.5226 12.6347 52.0645 12.6347 52.0645C12.6347 52.0645 13.0419 49.1512 10.0257 48.3367C7.17048 47.5669 6.02483 49.9298 6.02483 49.9298C6.02483 49.9298 5.904 47.6027 4.56592 46.8106C2.74451 45.7232 1.93002 47.7594 1.93002 47.7594Z" fill="#D5D5D5"/>
<path d="M3.33528 14.0432L3.29053 18.4558L3.2771 20.1429L19.7324 30.1002L29.8508 18.9749L29.8598 14.2267L3.33528 14.0432Z" fill="#EBC990"/>
<path d="M3.47848 40.1426C3.47848 40.1426 2.61476 40.1918 2.81615 41.3196C2.93698 41.9729 5.42966 48.9005 16.6982 48.7976C27.555 48.6992 29.9851 41.9327 30.0656 41.3196C30.2178 40.1426 28.732 40.5498 28.732 40.5498L3.47848 40.1426Z" fill="#9D9D9C"/>
<path d="M16.4431 21.4497C8.29826 21.7048 3.28156 18.684 3.28156 18.684C3.28156 18.684 3.14283 38.1824 3.17863 39.3773C3.22786 41.1182 5.38043 48.0861 16.4968 47.9831C27.6132 47.8802 29.9179 40.966 29.9179 39.1715C29.9179 38.1959 29.8687 18.684 29.8687 18.684C29.8687 18.684 26.3244 21.1364 16.4431 21.4497Z" fill="url(#paint0_radial_52_3503)"/>
<path d="M31.1262 19.8789C31.2336 21.1633 33.158 20.3175 35.0599 20.3577C37.1409 20.4025 38.3939 21.2707 38.5013 20.0713C38.6087 18.8541 36.4651 18.5453 34.7467 18.4558C33.5652 18.3931 31.0233 18.6393 31.1262 19.8789Z" fill="white"/>
<path d="M31.2918 22.2776C31.0144 22.5774 31.2426 24.1617 31.3858 24.2691C31.6499 24.4749 33.2744 23.5128 34.9839 24.0811C37.7675 25.003 37.4273 26.8468 37.5929 26.811C37.7675 26.7752 38.206 23.7052 35.87 22.4387C34.1112 21.49 31.5693 21.9778 31.2918 22.2776Z" fill="#9E9E9E"/>
<path d="M31.5424 37.7842C31.2157 38.0706 31.3589 39.1222 32.4375 39.1043C33.6547 39.082 35.3598 38.6971 36.7605 37.0368C37.7585 35.8553 37.9778 33.7072 37.5929 33.7072C37.208 33.7072 36.4965 35.9001 34.5274 36.9339C32.7194 37.8826 31.887 37.4798 31.5424 37.7842Z" fill="white"/>
<path d="M31.3232 40.6886L31.4127 42.774C31.4127 42.774 34.7556 42.962 38.1165 40.2589C42.2337 36.9518 42.1755 30.5925 42.1576 30.5836C42.1129 30.5612 40.8374 36.1507 37.2439 38.7374C34.3439 40.8273 31.3232 40.6886 31.3232 40.6886Z" fill="#9E9E9E"/>
<path d="M18.1303 26.5156C17.6693 27.2495 17.8662 27.97 18.2332 28.1804C18.6852 28.4399 19.3744 28.1401 19.7055 27.4554C19.9964 26.8557 19.9964 26.1979 19.4504 25.9428C19.0208 25.7414 18.533 25.8712 18.1303 26.5156ZM14.3979 31.0087C13.9191 31.3891 14.1071 31.9753 14.4248 32.3915C14.7649 32.8391 15.4138 33.027 15.7718 32.7093C16.1164 32.4005 16.0896 31.7561 15.7226 31.2862C15.4138 30.8968 14.832 30.6641 14.3979 31.0087ZM13.843 35.2064C12.9524 35.2333 12.854 36.106 12.9166 36.4774C12.9614 36.7325 13.1941 37.2874 14.0354 37.265C14.8768 37.2427 14.9752 36.3521 14.926 36.0344C14.8678 35.7166 14.6306 35.1841 13.843 35.2064ZM16.6579 35.8688C16.2238 35.8822 15.8166 36.2805 15.9329 36.9204C16.0493 37.5425 16.4655 37.6946 16.8235 37.6454C17.1636 37.5962 17.5216 37.265 17.4724 36.6922C17.4187 36.1239 17.0383 35.8553 16.6579 35.8688ZM18.4927 38.988C17.9647 38.988 17.6201 39.5519 17.638 40.1873C17.6559 40.8228 18.0497 41.6015 18.8194 41.512C19.3654 41.4493 19.6563 40.5498 19.5265 40.0218C19.4012 39.4937 19.0387 38.988 18.4927 38.988ZM15.4004 41.9282C14.8007 42.1072 14.9931 43.1365 15.0737 43.3826C15.1811 43.7093 15.472 44.3269 16.1298 44.1837C16.7877 44.0405 16.6579 43.1678 16.4207 42.6218C16.2328 42.1877 15.9464 41.7671 15.4004 41.9282Z" fill="#FFE265"/>
<path d="M3.40686 9.00416C3.26365 9.14737 0.605385 9.50091 0.676988 11.913C0.748591 14.3252 3.33973 15.1397 4.36455 15.4977C5.39385 15.8512 7.66277 16.2406 8.33853 18.4782C9.01428 20.7113 9.12169 21.7674 10.1823 22.0628C11.4577 22.4163 12.317 20.577 12.948 19.5433C13.6237 18.4424 14.2592 17.4847 15.3243 17.3459C16.3894 17.2072 22.5249 17.3459 26.0737 16.4598C29.6226 15.5738 32.5046 13.5554 32.3524 10.6063C32.1421 6.52043 26.5034 6.94557 26.5034 6.94557C26.5034 6.94557 24.2837 1.3829 18.3406 0.666869C10.9968 -0.21922 9.33202 4.39023 9.33202 4.39023C9.33202 4.39023 6.62005 3.66525 4.61516 5.49113C2.97277 6.98585 3.40686 9.00416 3.40686 9.00416Z" fill="#FADFB1"/>
<path d="M10.0749 6.48462C9.7303 6.70838 7.61801 5.22709 6.01142 6.89633C4.65543 8.3105 5.67578 9.63963 5.25063 10.1722C4.66886 10.8972 2.59684 10.6152 2.74005 12.1368C2.88325 13.6628 4.96422 13.8195 6.04274 14.1372C7.05861 14.4326 8.07896 14.8756 9.05455 15.7304C10.0704 16.6209 9.72135 18.9346 10.7641 19.1494C11.7934 19.3642 11.9992 17.0729 13.3149 16.0794C14.6262 15.0859 15.5436 15.1799 18.8776 14.9964C22.2072 14.813 30.5042 14.6384 30.1954 10.8793C29.9492 7.86298 26.4004 8.99968 25.3353 8.46713C24.2702 7.93458 23.0082 3.258 17.8483 2.54197C12.487 1.80356 10.6477 6.11765 10.0749 6.48462ZM4.61963 17.9008C4.46747 18.7556 4.37797 38.6031 4.37797 38.6031C4.37797 38.6031 4.28846 40.1515 5.62655 40.335C6.87513 40.5095 7.32712 39.3281 7.35845 38.5315C7.39425 37.7349 7.56431 19.946 7.53298 19.1494C7.50166 18.3528 6.7364 17.4488 5.97114 17.2072C5.20588 16.9655 4.72256 17.3146 4.61963 17.9008Z" fill="white"/>
<defs>
<radialGradient id="paint0_radial_52_3503" cx="0" cy="0" r="1" gradientUnits="userSpaceOnUse" gradientTransform="translate(17.0738 4.8437) rotate(90.9855) scale(43.0647 32.2673)">
<stop offset="0.594" stop-color="#DB8116"/>
<stop offset="0.896" stop-color="#FDB408"/>
</radialGradient>
</defs>
</svg>
