<svg width="50" height="78" viewBox="0 0 50 78" fill="none" xmlns="http://www.w3.org/2000/svg">
<path d="M32.3373 32.1358H29.1514V27.6604H33.144H33.6305L33.6439 27.1742C33.6554 26.7536 33.7175 26.4897 33.7982 26.3213C33.8713 26.1688 33.9667 26.0786 34.1016 26.0128C34.2532 25.9388 34.4702 25.8887 34.7914 25.8621C35.1114 25.8356 35.4893 25.8353 35.9519 25.8353C36.4146 25.8353 36.7923 25.8356 37.1111 25.8621C37.4317 25.8887 37.6446 25.9388 37.79 26.0111C37.9172 26.0744 38.0045 26.1597 38.0694 26.3069C38.142 26.4718 38.1942 26.7337 38.1896 27.1549L38.1863 27.4555L38.4501 27.5994L48.3072 32.9759L49.1027 35.6554H46.4214L46.056 34.3282L46.0094 34.1592L45.8676 34.0562C45.0278 33.4468 43.8507 32.7573 42.6869 32.3248C42.105 32.1085 41.508 31.9495 40.947 31.9047C40.3892 31.8601 39.825 31.9254 39.3492 32.2045L39.2939 32.2369L39.2486 32.2822C38.3413 33.1895 37.5572 33.9609 35.9519 33.9609C34.3479 33.9609 33.5628 33.1896 32.6978 32.2894L32.5502 32.1358H32.3373ZM25.4137 36.8127H24.5886V23.2117H25.4137V36.8127Z" fill="white" stroke="white"/>
<path d="M0.609497 14.8214C0.609497 11.7838 3.07193 9.32136 6.1095 9.32136H18.0886C21.1262 9.32136 23.5886 11.7838 23.5886 14.8214V77.4703H0.609497V14.8214Z" stroke="white"/>
<path d="M41.1879 3.15319C41.9904 1.73782 43.3169 1.35236 44.3534 1.71259C45.3774 2.06848 46.2923 3.22109 46.0906 5.2587C45.9898 6.27699 45.3852 7.97105 44.4859 9.99775C43.5963 12.0027 42.4484 14.2691 41.3104 16.404C40.1731 18.5377 39.0491 20.534 38.2091 21.9972C37.7892 22.7286 37.4405 23.3266 37.1968 23.7414C37.1053 23.8973 37.0286 24.0273 36.9685 24.1289L35.4835 24.0537C35.4986 23.9864 35.515 23.9137 35.5325 23.8357C35.6471 23.3269 35.8129 22.5962 36.0175 21.7092C36.4268 19.9351 36.9914 17.5369 37.6126 15.039C38.234 12.5403 38.911 9.94601 39.5454 7.77856C40.1865 5.58826 40.767 3.89556 41.1879 3.15319Z" fill="white" stroke="white"/>
</svg>
