<svg width="20" height="20" viewBox="0 0 20 20" fill="none" xmlns="http://www.w3.org/2000/svg">
<path d="M7.28183 4.81692C7.07296 4.12219 6.92957 3.40944 6.85352 2.68799C6.77745 1.96898 6.15001 1.43408 5.42616 1.43408H2.07191C1.20948 1.43408 0.544734 2.17926 0.620802 3.03829C1.38584 11.6945 8.28088 18.5905 16.9381 19.3551C17.7971 19.4312 18.5418 18.7688 18.5418 17.9064V14.9155C18.5418 13.8239 18.0074 13.1989 17.2884 13.1229C16.5669 13.0468 15.8542 12.9034 15.1595 12.6945C14.7475 12.5723 14.3102 12.564 13.8939 12.6704C13.4776 12.7767 13.0979 12.9939 12.7951 13.2987L11.3595 14.7343C8.77027 13.3315 6.64486 11.2061 5.24205 8.61692L6.67764 7.18132C6.98249 6.87852 7.19963 6.4988 7.30601 6.0825C7.41239 5.6662 7.40403 5.22886 7.28183 4.81692Z" stroke="#FC6336" stroke-linecap="round" stroke-linejoin="round"/>
</svg>
