<svg width="25" height="25" viewBox="0 0 25 25" fill="none" xmlns="http://www.w3.org/2000/svg">
<path d="M11.0823 11.4004L10.3943 8.83242C11.1223 8.65242 13.2333 7.78142 13.7843 9.33842C14.0543 11.0204 11.8063 11.2154 11.0823 11.4004ZM11.3713 12.7134L12.1263 15.5424C12.9943 15.3144 15.6223 15.0824 15.3673 13.1914C14.9343 11.5254 12.2423 12.4854 11.3713 12.7134ZM24.2423 12.1804C24.2423 18.8074 18.8693 24.1804 12.2423 24.1804C5.61531 24.1804 0.24231 18.8074 0.24231 12.1804C0.24231 5.55342 5.61531 0.18042 12.2423 0.18042C18.8693 0.18042 24.2423 5.55342 24.2423 12.1804ZM17.9013 12.8414C17.7183 11.6904 16.4603 10.7464 15.4163 10.6394C16.0593 10.0694 16.3853 9.23842 15.9863 8.15142C15.3833 6.78342 13.9973 6.49142 12.3013 6.77442L11.7553 4.66042L10.4703 4.99242L11.0063 7.10042C10.6683 7.18542 10.3213 7.25842 9.97731 7.35642L9.44031 5.26042L8.15531 5.59242L8.70031 7.70642C8.42331 7.78542 6.10531 8.37942 6.10531 8.37942L6.45831 9.75642C6.45831 9.75642 7.40231 9.49142 7.39331 9.51242C7.91731 9.37542 8.16431 9.63742 8.27931 9.88442L9.77731 15.6774C9.79531 15.8454 9.76531 16.1314 9.40531 16.2284C9.42631 16.2404 8.47031 16.4694 8.47031 16.4694L8.61031 18.0744C8.61031 18.0744 10.9063 17.4864 11.2083 17.4104L11.7593 19.5484L13.0443 19.2164L12.4933 17.0634C12.8466 16.9814 13.1906 16.8961 13.5253 16.8074L14.0733 18.9484L15.3583 18.6164L14.8073 16.4814C16.7893 15.9994 18.1873 14.7514 17.9013 12.8414Z" fill="#1472F5"/>
</svg>
