<svg width="75" height="76" viewBox="0 0 75 76" fill="none" xmlns="http://www.w3.org/2000/svg">
<path d="M28.8431 74.1006C23.8336 72.9114 19.3477 70.8426 15.3854 67.8942C11.4264 64.9437 8.2018 61.4501 5.71161 57.4134C3.22142 53.3767 1.54753 48.9296 0.689922 44.0724C-0.167684 39.2151 -0.00126299 34.279 1.18919 29.2641C2.37964 24.2493 4.44977 19.7637 7.39958 15.8074C10.3473 11.8478 13.8369 8.62223 17.8683 6.13077C21.8997 3.6393 26.348 1.96573 31.2134 1.11003C36.0787 0.254339 41.0161 0.421078 46.0256 1.61025C51.0351 2.79943 55.5207 4.86956 59.4824 7.82065C63.442 10.7684 66.6672 14.2593 69.158 18.2934C71.6489 22.3274 73.3224 26.7758 74.1788 31.6385C75.0351 36.5011 74.8687 41.4372 73.6795 46.4467C72.4903 51.4562 70.4215 55.9421 67.4731 59.9044C64.5247 63.8667 61.0311 67.0913 56.9923 69.5781C52.9535 72.065 48.5065 73.7389 43.6513 74.5998C38.796 75.4608 33.86 75.2943 28.8431 74.1006ZM29.7869 70.0708C38.7133 72.1897 47.0594 70.8572 54.8254 66.0733C62.5913 61.2893 67.5328 54.4325 69.6497 45.5028C71.7666 36.5732 70.4341 28.227 65.6522 20.4644C60.8703 12.7017 54.0135 7.76029 45.0818 5.64004C36.1501 3.51979 27.8036 4.85363 20.0424 9.64156C12.2811 14.4295 7.34 21.285 5.21898 30.208C3.09795 39.131 4.43179 47.4775 9.22049 55.2474C14.0092 63.0173 20.8647 67.9584 29.7869 70.0708Z" fill="#F2A416"/>
</svg>
