<svg width="108" height="17" viewBox="0 0 108 17" fill="none" xmlns="http://www.w3.org/2000/svg">
<path d="M44.0023 6.84569C43.9869 8.05887 45.0821 8.73584 45.9072 9.13837C46.7548 9.55133 47.0396 9.81618 47.0362 10.1855C47.0299 10.7507 46.3601 11.0002 45.7333 11.0099C44.6397 11.0268 44.0038 10.7143 43.4984 10.4779L43.1044 12.3235C43.6116 12.5574 44.5507 12.7615 45.5245 12.7704C47.8104 12.7704 49.3059 11.6407 49.314 9.88908C49.323 7.66603 46.2428 7.54298 46.2639 6.54934C46.2711 6.24805 46.5583 5.92653 47.1875 5.84478C47.499 5.80348 48.3587 5.77188 49.3335 6.22129L49.7161 4.43564C49.1919 4.24454 48.5181 4.06155 47.6793 4.06155C45.5278 4.06155 44.0145 5.20668 44.0023 6.84569ZM53.3923 4.21536C52.9749 4.21536 52.6231 4.45914 52.4661 4.83323L49.2008 12.6393H51.4851L51.9396 11.3815H54.7309L54.9946 12.6393H57.0079L55.251 4.21536H53.3923ZM53.7119 6.49098L54.3711 9.65426H52.5657L53.7119 6.49098ZM41.2327 4.21547L39.4322 12.6392H41.6089L43.4086 4.21526L41.2327 4.21547ZM38.0126 4.21547L35.747 9.94902L34.8305 5.07384C34.723 4.52961 34.2983 4.21536 33.8267 4.21536H30.1232L30.0713 4.45998C30.8316 4.62516 31.6955 4.89159 32.2189 5.17666C32.5391 5.3508 32.6305 5.50303 32.7357 5.91683L34.4715 12.6393H36.7718L40.2984 4.21536L38.0126 4.21547Z" fill="url(#paint0_linear_2_835)"/>
<path d="M8.9082 3.0414H14.8792V13.7832H8.9082V3.0414Z" fill="#FF5F00"/>
<path d="M9.28746 8.41349C9.28746 6.231 10.311 4.29516 11.8843 3.04256C10.7281 2.13161 9.26855 1.58125 7.67629 1.58125C3.90398 1.58125 0.852173 4.63674 0.852173 8.41349C0.852173 12.1902 3.90398 15.2457 7.6762 15.2457C9.26847 15.2457 10.728 14.6954 11.8843 13.7843C10.311 12.5508 9.28746 10.596 9.28746 8.41349Z" fill="#EB001B"/>
<path d="M22.9353 8.41349C22.9353 12.1902 19.8835 15.2457 16.1113 15.2457C14.519 15.2457 13.0595 14.6954 11.9032 13.7843C13.4955 12.5318 14.5001 10.596 14.5001 8.41349C14.5001 6.231 13.4765 4.29516 11.9032 3.04256C13.0594 2.13161 14.519 1.58125 16.1113 1.58125C19.8835 1.58125 22.9353 4.65576 22.9353 8.41349Z" fill="#F79E1B"/>
<path d="M82.4463 13.4146C82.4463 15.1952 80.9981 16.6451 79.2197 16.6451H61.6641V3.85045C61.6641 2.06989 63.1122 0.619965 64.8907 0.619965H82.4463V13.4146Z" fill="white"/>
<path d="M76.7299 10.1319H78.0637C78.1018 10.1319 78.1907 10.1192 78.2289 10.1192C78.483 10.0683 78.6989 9.83933 78.6989 9.52137C78.6989 9.21617 78.483 8.98721 78.2289 8.92365C78.1907 8.91089 78.1146 8.91089 78.0637 8.91089H76.7299L76.7299 10.1319Z" fill="url(#paint1_linear_2_835)"/>
<path d="M77.9114 1.69969C76.641 1.69969 75.5993 2.72998 75.5993 4.0145V6.41831H78.8641C78.9403 6.41831 79.0292 6.41831 79.0927 6.43099C79.8295 6.46919 80.3758 6.85071 80.3758 7.51199C80.3758 8.03347 80.0074 8.47863 79.3214 8.56771V8.59307C80.0708 8.64395 80.6425 9.06367 80.6425 9.71227C80.6425 10.4118 80.0074 10.8697 79.1689 10.8697H75.5867V15.5755H78.9784C80.2487 15.5755 81.2904 14.5453 81.2904 13.2607V1.69969H77.9114Z" fill="url(#paint2_linear_2_835)"/>
<path d="M78.5337 7.66637C78.5337 7.36109 78.3178 7.15757 78.0637 7.11937C78.0383 7.11937 77.9748 7.10669 77.9367 7.10669H76.7299V8.22589H77.9367C77.9748 8.22589 78.051 8.22589 78.0637 8.21321C78.3178 8.17501 78.5338 7.97157 78.5338 7.66629" fill="url(#paint3_linear_2_835)"/>
<path d="M65.1322 1.69969C63.8619 1.69969 62.8202 2.72998 62.8202 4.0145V9.72512C63.4681 10.043 64.1413 10.2465 64.8146 10.2465C65.6149 10.2465 66.0468 9.76324 66.0468 9.10187V6.40555H68.0285V9.08911C68.0285 10.132 67.3806 10.9842 65.183 10.9842C63.8492 10.9842 62.8075 10.6916 62.8075 10.6916V15.5628H66.1992C67.4695 15.5628 68.5112 14.5326 68.5112 13.248V1.69985L65.1322 1.69969Z" fill="url(#paint4_linear_2_835)"/>
<path d="M71.5217 1.69969C70.2514 1.69969 69.2097 2.72998 69.2097 4.0145V7.04147C69.7941 6.54543 70.8104 6.22746 72.4491 6.30378C73.3256 6.34199 74.2656 6.58363 74.2656 6.58363V7.56295C73.7955 7.32131 73.2367 7.10503 72.5126 7.05415C71.2676 6.96515 70.5182 7.57563 70.5182 8.64395C70.5182 9.72503 71.2676 10.3355 72.5126 10.2338C73.2367 10.1829 73.7956 9.954 74.2656 9.72503V10.7044C74.2656 10.7044 73.3382 10.946 72.4491 10.9842C70.8104 11.0604 69.7941 10.7425 69.2098 10.2465V15.5882H72.6015C73.8718 15.5882 74.9135 14.558 74.9135 13.2734V1.69985L71.5217 1.69969Z" fill="url(#paint5_linear_2_835)"/>
<path d="M90.3916 1.96092H95.6635C96.3994 1.96092 96.8571 2.56151 96.6855 3.3008L94.231 13.8514C94.0578 14.5882 93.3209 15.1892 92.5846 15.1892H87.3131C86.5782 15.1892 86.1195 14.5882 86.2911 13.8514L88.7466 3.3008C88.9183 2.56151 89.6548 1.96092 90.3916 1.96092Z" fill="#E21836"/>
<path d="M95.2249 1.96092H101.288C102.023 1.96092 101.692 2.56151 101.519 3.3008L99.0643 13.8514C98.8922 14.5882 98.9459 15.1892 98.2086 15.1892H92.146C91.4087 15.1892 90.9524 14.5882 91.1256 13.8514L93.5795 3.3008C93.7537 2.56151 94.4887 1.96092 95.2249 1.96092Z" fill="#00447C"/>
<path d="M101.047 1.96092H106.319C107.056 1.96092 107.514 2.56151 107.341 3.3008L104.887 13.8514C104.713 14.5882 103.976 15.1892 103.239 15.1892H97.9697C97.2323 15.1892 96.775 14.5882 96.9477 13.8514L99.4022 3.3008C99.5739 2.56151 100.31 1.96092 101.047 1.96092Z" fill="#007B84"/>
<path d="M91.7683 5.34179C91.2262 5.34733 91.0661 5.34179 91.0149 5.3297C90.9952 5.42322 90.6294 7.11285 90.6284 7.11425C90.5496 7.45605 90.4923 7.69978 90.2976 7.8571C90.1871 7.94855 90.0581 7.99275 89.9085 7.99275C89.6681 7.99275 89.528 7.87316 89.5045 7.64648L89.5 7.56869C89.5 7.56869 89.5732 7.11078 89.5732 7.10821C89.5732 7.10821 89.9572 5.56847 90.026 5.36496C90.0296 5.35337 90.0306 5.34733 90.0315 5.34179C89.2842 5.34841 89.1517 5.34179 89.1426 5.3297C89.1375 5.34626 89.119 5.44176 89.119 5.44176L88.727 7.17723L88.6933 7.32438L88.6282 7.80579C88.6282 7.94855 88.6562 8.06516 88.7119 8.16373C88.8905 8.47623 89.4001 8.52307 89.6883 8.52307C90.0596 8.52307 90.408 8.44404 90.6434 8.29979C91.052 8.05813 91.159 7.68025 91.2543 7.34441L91.2985 7.17218C91.2985 7.17218 91.694 5.57302 91.7612 5.36496C91.7637 5.35337 91.7648 5.34733 91.7683 5.34179ZM93.114 6.63185C93.0187 6.63185 92.8445 6.65502 92.688 6.73182C92.6312 6.76103 92.5774 6.79472 92.5207 6.82832L92.5719 6.64343L92.5439 6.61231C92.212 6.6796 92.1377 6.68862 91.8311 6.73182L91.8055 6.74895C91.7698 7.0444 91.7382 7.26661 91.6063 7.8475C91.5557 8.06237 91.5041 8.277 91.4515 8.49137L91.4656 8.51844C91.7798 8.50188 91.8752 8.50188 92.1483 8.50635L92.1703 8.48235C92.205 8.30442 92.2095 8.26271 92.2864 7.90229C92.3225 7.73147 92.3978 7.35608 92.4349 7.22242C92.5031 7.19072 92.5705 7.1596 92.6347 7.1596C92.7878 7.1596 92.7691 7.29326 92.7633 7.34656C92.7566 7.43594 92.7009 7.728 92.6437 7.97876L92.6055 8.14056C92.579 8.26014 92.5498 8.37626 92.5232 8.49477L92.5348 8.51844C92.8444 8.50188 92.9389 8.50188 93.2033 8.50635L93.2344 8.48235C93.2823 8.20445 93.2962 8.13004 93.3811 7.72543L93.4237 7.53955C93.5066 7.17566 93.5483 6.99119 93.4855 6.8409C93.4192 6.67248 93.26 6.63185 93.114 6.63185ZM94.6175 7.01279C94.4528 7.04449 94.3479 7.06551 94.2435 7.07916C94.1401 7.09571 94.0392 7.11086 93.8802 7.13296L93.8675 7.14438L93.8559 7.15348C93.8394 7.27216 93.8278 7.3747 93.8058 7.49528C93.7872 7.61991 93.7586 7.7616 93.7119 7.96511C93.6758 8.12086 93.6572 8.17515 93.6366 8.22994C93.6166 8.28481 93.5945 8.3381 93.5539 8.49129L93.5634 8.50544L93.5713 8.51844C93.72 8.5114 93.8173 8.50635 93.9173 8.50544C94.0171 8.50188 94.1206 8.50544 94.2806 8.50627L94.2947 8.49493L94.3097 8.48227C94.3329 8.34406 94.3363 8.3069 94.3504 8.23954C94.3645 8.1672 94.3886 8.06715 94.4479 7.79975C94.4759 7.6742 94.5071 7.54899 94.5362 7.42088C94.5663 7.29326 94.5979 7.16763 94.628 7.042L94.6235 7.02686L94.6175 7.01279ZM94.621 6.49918C94.4713 6.41079 94.2089 6.43885 94.0322 6.56092C93.856 6.68059 93.8359 6.85041 93.9851 6.93996C94.132 7.02586 94.3955 7.00029 94.5707 6.87715C94.7465 6.75491 94.7685 6.58666 94.621 6.49918ZM95.5255 8.54616C95.8281 8.54616 96.1384 8.46257 96.3719 8.21487C96.5515 8.01393 96.6339 7.71492 96.6624 7.59178C96.7552 7.18369 96.6829 6.99317 96.5922 6.87715C96.4541 6.70021 96.2102 6.64343 95.9572 6.64343C95.8051 6.64343 95.4427 6.65849 95.1596 6.91985C94.9562 7.10829 94.8623 7.3641 94.8057 7.60924C94.7485 7.85917 94.6827 8.30889 95.0958 8.47631C95.2233 8.5311 95.4071 8.54616 95.5255 8.54616ZM95.5019 7.62794C95.5716 7.31892 95.654 7.05955 95.8643 7.05955C96.029 7.05955 96.041 7.25254 95.9677 7.56256C95.9546 7.63142 95.8945 7.88731 95.8132 7.99622C95.7563 8.07667 95.6892 8.12541 95.6148 8.12541C95.5927 8.12541 95.4613 8.12541 95.4592 7.93001C95.4582 7.83352 95.4779 7.73495 95.5019 7.62794ZM97.4188 8.50644L97.4425 8.48235C97.476 8.30442 97.4816 8.26263 97.5558 7.90237C97.593 7.73147 97.6699 7.35616 97.7059 7.22242C97.7743 7.19064 97.8405 7.15952 97.9068 7.15952C98.0588 7.15952 98.0403 7.29318 98.0343 7.34648C98.0287 7.43602 97.9729 7.72792 97.9147 7.97868L97.8786 8.14047C97.851 8.26014 97.8209 8.37617 97.7943 8.49485L97.8059 8.51852C98.1167 8.50197 98.2074 8.50197 98.4734 8.50644L98.5056 8.48235C98.5522 8.20428 98.5648 8.12996 98.6522 7.72543L98.6938 7.53947C98.7771 7.17558 98.8193 6.99127 98.7575 6.84098C98.6893 6.67256 98.5292 6.63193 98.3851 6.63193C98.2897 6.63193 98.1146 6.65494 97.9589 6.7319C97.9033 6.76103 97.8475 6.79463 97.7928 6.8284L97.8405 6.64351L97.8149 6.61223C97.4831 6.6796 97.4074 6.68862 97.1011 6.7319L97.0775 6.74895C97.0404 7.04449 97.0103 7.26653 96.8783 7.84759C96.8277 8.06241 96.7762 8.27701 96.7237 8.49137L96.7377 8.51852C97.0524 8.50197 97.1463 8.50197 97.4188 8.50644ZM99.7018 8.51844C99.7213 8.42293 99.8373 7.85719 99.8383 7.85719C99.8383 7.85719 99.9371 7.44198 99.9432 7.42692C99.9432 7.42692 99.9743 7.38372 100.005 7.36659H100.051C100.483 7.36659 100.97 7.36659 101.352 7.0852C101.612 6.89221 101.79 6.60727 101.869 6.26092C101.89 6.17601 101.905 6.07504 101.905 5.97407C101.905 5.84141 101.878 5.71015 101.801 5.60761C101.607 5.33475 101.219 5.3297 100.771 5.32763L100.55 5.3297C99.9768 5.33682 99.747 5.33475 99.6525 5.32317C99.6446 5.36496 99.6295 5.43936 99.6295 5.43936C99.6295 5.43936 99.4242 6.39217 99.4242 6.39366L98.9096 8.51496C99.4101 8.50892 99.6154 8.50892 99.7018 8.51844ZM100.082 6.82583C100.082 6.82583 100.3 5.87492 100.299 5.87857L100.307 5.82974L100.31 5.79266L100.397 5.8016C100.397 5.8016 100.847 5.84033 100.858 5.84132C101.035 5.91018 101.109 6.08762 101.058 6.31918C101.011 6.53088 100.874 6.70881 100.698 6.79472C100.552 6.86755 100.375 6.87359 100.192 6.87359H100.073L100.082 6.82583ZM101.442 7.64557C101.384 7.89178 101.318 8.34158 101.729 8.50188C101.86 8.55766 101.977 8.5743 102.096 8.56826C102.223 8.56147 102.339 8.49816 102.448 8.40704L102.418 8.51951L102.437 8.54351C102.733 8.5311 102.824 8.5311 103.145 8.53358L103.174 8.5114C103.22 8.23606 103.265 7.96875 103.386 7.44198C103.445 7.18973 103.504 6.93988 103.565 6.68862L103.556 6.66098C103.225 6.7223 103.137 6.73546 102.818 6.78056L102.794 6.80026C102.791 6.82592 102.788 6.8505 102.785 6.87508C102.735 6.79505 102.663 6.72669 102.553 6.68415C102.411 6.62837 102.079 6.70021 101.793 6.96057C101.593 7.14653 101.496 7.40126 101.442 7.64557ZM102.136 7.66063C102.207 7.35707 102.288 7.10035 102.499 7.10035C102.632 7.10035 102.702 7.22341 102.688 7.43337C102.676 7.49014 102.663 7.5468 102.65 7.60336C102.629 7.69357 102.606 7.78295 102.584 7.8725C102.561 7.93374 102.535 7.99151 102.506 8.02999C102.452 8.10696 102.323 8.15462 102.249 8.15462C102.228 8.15462 102.097 8.15462 102.093 7.96262C102.092 7.86712 102.112 7.76872 102.136 7.66063ZM105.764 6.65841L105.738 6.6292C105.411 6.69557 105.352 6.70616 105.051 6.7468L105.029 6.7689C105.028 6.77254 105.027 6.778 105.025 6.78305L105.024 6.77808C104.801 7.29516 104.807 7.1836 104.625 7.59062C104.624 7.57208 104.624 7.56058 104.623 7.54088L104.577 6.65841L104.549 6.6292C104.206 6.69557 104.198 6.70616 103.881 6.7468L103.856 6.7689C103.853 6.77949 103.853 6.79108 103.851 6.80365L103.853 6.80821C103.892 7.01064 103.883 6.96545 103.923 7.28507C103.941 7.4419 103.966 7.59964 103.984 7.75456C104.016 8.01377 104.033 8.14138 104.071 8.53706C103.857 8.89028 103.807 9.02402 103.601 9.33403L103.602 9.3371L103.457 9.56667C103.441 9.59084 103.426 9.60739 103.405 9.61451C103.382 9.62593 103.351 9.628 103.31 9.628H103.229L103.11 10.0256L103.52 10.0326C103.76 10.0316 103.911 9.91906 103.992 9.76778L104.25 9.32592H104.246L104.273 9.29481C104.446 8.92148 105.764 6.65841 105.764 6.65841ZM101.442 11.8796H101.268L101.911 9.75015H102.124L102.192 9.53084L102.198 9.77473C102.19 9.92552 102.309 10.0592 102.62 10.0371H102.98L103.104 9.62709H102.968C102.891 9.62709 102.854 9.60739 102.859 9.56518L102.852 9.31699H102.186V9.31831C101.97 9.32278 101.327 9.339 101.197 9.37376C101.039 9.41431 100.873 9.53406 100.873 9.53406L100.938 9.31442H100.315L100.185 9.75015L99.533 11.9121H99.4066L99.2826 12.3192H100.524L100.483 12.4549H101.095L101.135 12.3192H101.307L101.442 11.8796ZM100.932 10.1828C100.832 10.2105 100.646 10.2944 100.646 10.2944L100.812 9.75015H101.307L101.187 10.1467C101.187 10.1467 101.034 10.1558 100.932 10.1828M100.942 10.9603C100.942 10.9603 100.786 10.9799 100.684 11.003C100.583 11.0336 100.394 11.1301 100.394 11.1301L100.564 10.5638H101.062L100.942 10.9603ZM100.664 11.8845H100.167L100.311 11.4066H100.807L100.664 11.8845ZM101.861 10.5638H102.577L102.474 10.8975H101.748L101.639 11.2623H102.274L101.793 11.9402C101.76 11.99 101.73 12.0077 101.696 12.0217C101.662 12.0388 101.618 12.0589 101.567 12.0589H101.391L101.27 12.4585H101.731C101.97 12.4585 102.112 12.3494 102.216 12.2062L102.546 11.7543L102.617 12.2132C102.632 12.2991 102.693 12.3494 102.735 12.3689C102.781 12.3921 102.829 12.4318 102.896 12.4378C102.968 12.4408 103.021 12.4433 103.055 12.4433H103.282L103.418 11.9961H103.328C103.277 11.9961 103.189 11.9875 103.174 11.9714C103.159 11.9518 103.159 11.9218 103.151 11.8759L103.079 11.4161H102.785L102.914 11.2623H103.638L103.75 10.8975H103.079L103.183 10.5638H103.852L103.976 10.1522H101.983L101.861 10.5638ZM95.8112 11.9775L95.9783 11.4207H96.6655L96.791 11.0065H96.1032L96.2082 10.6638H96.8802L97.0048 10.2628H95.3232L95.2013 10.6638H95.5834L95.4815 11.0064H95.0984L94.9714 11.4277H95.3533L95.1305 12.1644C95.1005 12.2619 95.1446 12.2991 95.1726 12.3444C95.2013 12.3885 95.2303 12.4177 95.2956 12.4343C95.363 12.4494 95.4091 12.4584 95.4718 12.4584H96.2464L96.3844 11.9996L96.0411 12.0468C95.9748 12.0468 95.7911 12.0389 95.8112 11.9775ZM95.89 9.31194L95.7159 9.627C95.6787 9.69578 95.645 9.73856 95.6149 9.75818C95.5883 9.77473 95.5355 9.78176 95.4592 9.78176H95.3684L95.2469 10.1848H95.5487C95.6938 10.1848 95.8052 10.1316 95.8584 10.1049C95.9156 10.0743 95.9306 10.0918 95.9748 10.0491L96.0767 9.96069H97.0189L97.1439 9.5411H96.4542L96.5746 9.31185L95.89 9.31194ZM97.2809 11.9856C97.2648 11.9624 97.2764 11.9216 97.301 11.8367L97.5585 10.9834H98.4746C98.6081 10.9814 98.7044 10.9799 98.7672 10.9754C98.8345 10.9683 98.9077 10.9442 98.9875 10.901C99.0699 10.8557 99.1121 10.808 99.1476 10.7532C99.1873 10.6986 99.2511 10.5788 99.3058 10.3944L99.6295 9.31442L98.6789 9.31996C98.6789 9.31996 98.3861 9.36317 98.2573 9.411C98.1272 9.46421 97.9414 9.61293 97.9414 9.61293L98.0272 9.3169H97.44L96.6179 12.0468C96.5887 12.1527 96.5691 12.2297 96.5646 12.276C96.5631 12.3257 96.6274 12.375 96.669 12.4122C96.7182 12.4494 96.791 12.4433 96.8607 12.4494C96.9341 12.4549 97.0384 12.4584 97.1825 12.4584H97.6338L97.7723 11.99L97.3683 12.0283C97.3251 12.0283 97.2939 12.0051 97.2809 11.9856ZM97.7246 10.407H98.6868L98.6256 10.5989C98.6171 10.6034 98.5965 10.5894 98.4986 10.601H97.6653L97.7246 10.407ZM97.9174 9.76314H98.8877L98.8179 9.99437C98.8179 9.99437 98.3606 9.9899 98.2874 10.0034C97.965 10.0593 97.7768 10.2316 97.7768 10.2316L97.9174 9.76314ZM98.6473 11.2417C98.6392 11.2704 98.6266 11.2879 98.6091 11.3011C98.5895 11.3136 98.5578 11.3181 98.5107 11.3181H98.3737L98.3818 11.0844H97.8114L97.7883 12.2272C97.7874 12.3097 97.7954 12.3574 97.8556 12.3956C97.916 12.4433 98.1016 12.4494 98.3516 12.4494H98.7089L98.8379 12.0216L98.5268 12.0387L98.4233 12.0447C98.4093 12.0387 98.3957 12.0332 98.3807 12.0182C98.3676 12.0052 98.3455 12.0131 98.3491 11.9307L98.3516 11.6377L98.6778 11.6242C98.854 11.6242 98.9293 11.5668 98.9935 11.5122C99.0548 11.4598 99.0749 11.3996 99.098 11.3181L99.1527 11.0587H98.7044L98.6473 11.2417Z" fill="#FEFEFE"/>
<defs>
<linearGradient id="paint0_linear_2_835" x1="1268.46" y1="30.2405" x2="1293.69" y2="-864.174" gradientUnits="userSpaceOnUse">
<stop stop-color="#222357"/>
<stop offset="1" stop-color="#254AA5"/>
</linearGradient>
<linearGradient id="paint1_linear_2_835" x1="-36.5429" y1="70.1104" x2="534.316" y2="70.1104" gradientUnits="userSpaceOnUse">
<stop stop-color="#007940"/>
<stop offset="0.2285" stop-color="#00873F"/>
<stop offset="0.7433" stop-color="#40A737"/>
<stop offset="1" stop-color="#5CB531"/>
</linearGradient>
<linearGradient id="paint2_linear_2_835" x1="76.6305" y1="694.937" x2="647.519" y2="694.937" gradientUnits="userSpaceOnUse">
<stop stop-color="#007940"/>
<stop offset="0.719545" stop-color="#40A737"/>
</linearGradient>
<linearGradient id="paint3_linear_2_835" x1="-36.5596" y1="62.9079" x2="534.331" y2="62.9079" gradientUnits="userSpaceOnUse">
<stop stop-color="#007940"/>
<stop offset="0.2285" stop-color="#00873F"/>
<stop offset="0.7433" stop-color="#40A737"/>
<stop offset="1" stop-color="#5CB531"/>
</linearGradient>
<linearGradient id="paint4_linear_2_835" x1="63.8114" y1="694.937" x2="643.495" y2="694.937" gradientUnits="userSpaceOnUse">
<stop stop-color="#1F3F6F"/>
<stop offset="0.0245453" stop-color="#9ACCF0"/>
</linearGradient>
<linearGradient id="paint5_linear_2_835" x1="65.9244" y1="694.931" x2="628.936" y2="694.931" gradientUnits="userSpaceOnUse">
<stop stop-color="#6C2C2F"/>
<stop offset="0.1735" stop-color="#882730"/>
<stop offset="0.5731" stop-color="#BE1833"/>
<stop offset="0.8585" stop-color="#DC0436"/>
<stop offset="1" stop-color="#E60039"/>
</linearGradient>
</defs>
</svg>
