<svg width="28" height="29" viewBox="0 0 28 29" fill="none" xmlns="http://www.w3.org/2000/svg">
<path d="M5.82511 7.30005L0.395942 1.87262C0.315229 1.79191 0.251204 1.69609 0.207522 1.59063C0.16384 1.48518 0.141357 1.37215 0.141357 1.258C0.141357 1.14386 0.16384 1.03083 0.207522 0.92537C0.251204 0.819913 0.315229 0.724092 0.395942 0.643379C0.476656 0.562665 0.572476 0.49864 0.677934 0.454958C0.783391 0.411277 0.896419 0.388794 1.01056 0.388794C1.12471 0.388794 1.23774 0.411277 1.3432 0.454958C1.44865 0.49864 1.54447 0.562665 1.62519 0.643379L27.6685 26.6867C27.8315 26.8497 27.9231 27.0708 27.9231 27.3013C27.9231 27.5319 27.8315 27.7529 27.6685 27.9159C27.5055 28.079 27.2844 28.1705 27.0539 28.1705C26.8234 28.1705 26.6023 28.079 26.4393 27.9159L17.2581 18.7313L8.57007 27.6017C7.26096 28.9594 4.99519 27.7059 5.45356 25.8724L7.48494 17.7486H5.28167C4.99625 17.7486 4.71473 17.6823 4.45927 17.555C4.20382 17.4277 3.98142 17.2428 3.80957 17.0149C3.63772 16.787 3.52113 16.5223 3.46897 16.2417C3.41681 15.9611 3.43051 15.6722 3.50899 15.3978L5.82511 7.30005ZM16.0306 17.5056L7.22797 8.70292L5.17923 15.8735C5.16187 15.943 5.21222 16.0124 5.28341 16.0124H8.59785C8.72991 16.0124 8.86022 16.0425 8.97889 16.1004C9.09756 16.1583 9.20144 16.2426 9.28264 16.3467C9.36384 16.4509 9.42021 16.5721 9.44747 16.7013C9.47472 16.8306 9.47214 16.9643 9.43992 17.0923L7.13943 26.2943C7.13484 26.3107 7.13308 26.3277 7.13422 26.3447C7.13407 26.3514 7.13588 26.358 7.13943 26.3638C7.15201 26.3856 7.17029 26.4036 7.19231 26.4158C7.21433 26.428 7.23926 26.4341 7.26444 26.4332C7.27059 26.432 7.27648 26.4296 7.2818 26.4263C7.29739 26.4183 7.31149 26.4078 7.32347 26.395L7.32867 26.3881L16.0306 17.5056ZM22.3904 11.0121L18.4596 15.0245L19.6871 16.252L23.6353 12.224L23.6405 12.2153C24.7534 11.0572 23.953 9.071 22.3105 9.071H17.8589L20.0482 2.83102L20.0534 2.81713C20.1459 2.53987 20.1712 2.2446 20.1271 1.95567C20.083 1.66675 19.9709 1.39244 19.7999 1.15536C19.629 0.918291 19.4041 0.725249 19.1439 0.592158C18.8837 0.459066 18.5956 0.389738 18.3033 0.38989H9.18991C8.36694 0.38989 7.64293 0.935064 7.41722 1.72678L6.91372 3.48036L8.31832 4.88497L9.084 2.20424C9.09052 2.18134 9.10445 2.16124 9.12362 2.14711C9.14278 2.13297 9.1661 2.12559 9.18991 2.12611H18.3051C18.3763 2.12611 18.4266 2.19556 18.4075 2.26501L15.8153 9.6509C15.7692 9.78185 15.7552 9.92195 15.7745 10.0594C15.7937 10.1969 15.8456 10.3278 15.9259 10.4411C16.0062 10.5543 16.1125 10.6467 16.2358 10.7104C16.3592 10.7741 16.496 10.8073 16.6348 10.8072H22.3105C22.3418 10.8072 22.3557 10.8142 22.3644 10.8211C22.3839 10.8365 22.3989 10.8569 22.4078 10.8801C22.4186 10.904 22.4228 10.9304 22.4199 10.9565C22.4165 10.9778 22.4061 10.9974 22.3904 11.0121Z" fill="white"/>
</svg>
