<svg width="141" height="181" viewBox="0 0 141 181" fill="none" xmlns="http://www.w3.org/2000/svg">
<path opacity="0.5" d="M128.457 62.6112C120.087 57.4451 109.051 58.3885 103.96 59.257V53.3272C103.96 53.3272 107.493 52.0244 107.119 47.7568C106.745 43.4891 96.9067 43.1148 96.9067 43.1148L7.43575 42.9351C7.43575 42.9351 2.79374 43.6838 2.79374 47.9514C2.79374 52.2191 6.13299 52.9528 6.13299 52.9528C6.13299 52.9528 5.0249 140.567 4.65054 142.978C4.27619 145.389 1.68565 155.047 0.936936 158.192C0.188225 161.351 0.936934 163.388 3.34778 165.424C5.75863 167.461 20.9874 179.904 53.8408 180.833C85.9456 181.746 100.8 169.512 103.765 166.907C105.592 165.319 106.73 162.265 106.176 160.033C105.622 157.802 104.139 146.482 104.139 146.482L103.989 140.013C106.445 139.818 109.515 139.399 112.3 138.5C121.584 135.536 132.59 127.27 136.244 117.522C141.275 104.195 144.809 72.7188 128.457 62.6112ZM117.137 116.998C112.645 121.58 107.269 122.388 103.96 122.538V76.4324C107.344 75.7885 113.813 74.905 117.691 76.5372C121.225 78.0196 123.261 80.4305 124.369 85.8212C125.028 88.9209 126.241 107.714 117.137 116.998Z" fill="white"/>
<path opacity="0.7" d="M128.457 62.6112C120.087 57.4451 109.051 58.3885 103.96 59.257V53.3272C103.96 53.3272 107.493 52.0244 107.119 47.7568C106.745 43.4891 96.9067 43.1148 96.9067 43.1148L7.43575 42.9351C7.43575 42.9351 2.79374 43.6838 2.79374 47.9514C2.79374 52.2191 6.13299 52.9528 6.13299 52.9528C6.13299 52.9528 5.0249 140.567 4.65054 142.978C4.27619 145.389 1.68565 155.047 0.936936 158.192C0.188225 161.351 0.936934 163.388 3.34778 165.424C5.75863 167.461 20.9874 179.904 53.8408 180.833C85.9456 181.746 100.8 169.512 103.765 166.907C105.592 165.319 106.73 162.265 106.176 160.033C105.622 157.802 104.139 146.482 104.139 146.482L103.989 140.013C106.445 139.818 109.515 139.399 112.3 138.5C121.584 135.536 132.59 127.27 136.244 117.522C141.275 104.195 144.809 72.7188 128.457 62.6112ZM117.137 116.998C112.645 121.58 107.269 122.388 103.96 122.538V76.4324C107.344 75.7885 113.813 74.905 117.691 76.5372C121.225 78.0196 123.261 80.4305 124.369 85.8212C125.028 88.9209 126.241 107.714 117.137 116.998Z" fill="#E0E0E0"/>
<path d="M8.88803 136.749L8.19922 156.141L17.7228 165.664L20.7925 167.701L20.9123 150.465L14.5483 145.03L8.88803 136.749Z" fill="white"/>
<path d="M5.36914 158.52C5.48893 159.314 13.0809 167.37 28.0551 172.356C43.0293 177.343 61.4026 177.567 78.5182 173.599C95.6337 169.631 102.103 159.418 102.103 159.418C102.103 159.418 102.447 157.262 100.515 156.364C98.5836 155.465 93.9416 155.346 90.8719 158.52C87.8621 161.635 87.5776 166.576 87.5776 166.576C87.5776 166.576 84.2832 160.227 76.3469 161.814C68.0961 163.462 65.4607 171.802 65.4607 171.802C65.4607 171.802 62.0615 164.659 53.8856 164.54C45.7246 164.42 41.1875 172.925 41.1875 172.925C41.1875 172.925 42.5501 163.177 32.4575 160.452C22.9039 157.876 19.0705 165.783 19.0705 165.783C19.0705 165.783 18.6662 157.996 14.189 155.346C8.09445 151.707 5.36914 158.52 5.36914 158.52Z" fill="#D5D5D5"/>
<path d="M10.0711 45.7056L9.92139 60.4701L9.87646 66.1154L64.9367 99.4331L98.7934 62.2072L98.8233 46.3195L10.0711 45.7056Z" fill="#EBC990"/>
<path d="M10.5505 133.035C10.5505 133.035 7.66044 133.199 8.33428 136.973C8.73858 139.159 17.0792 162.339 54.7843 161.995C91.1117 161.665 99.2427 139.024 99.5123 136.973C100.021 133.035 95.05 134.397 95.05 134.397L10.5505 133.035Z" fill="#9D9D9C"/>
<path d="M53.9307 70.4877C26.6776 71.3412 9.8915 61.2336 9.8915 61.2336C9.8915 61.2336 9.4273 126.476 9.5471 130.474C9.71181 136.299 16.9144 159.614 54.1104 159.27C91.3063 158.925 99.018 135.79 99.018 129.786C99.018 126.521 98.8533 61.2336 98.8533 61.2336C98.8533 61.2336 86.9937 69.4395 53.9307 70.4877Z" fill="url(#paint0_radial_19_928)"/>
<path d="M103.061 65.2316C103.42 69.5292 109.859 66.6991 116.223 66.8338C123.186 66.9836 127.379 69.8886 127.738 65.8755C128.098 61.8025 120.925 60.7693 115.175 60.4698C111.222 60.2601 102.716 61.0837 103.061 65.2316Z" fill="white"/>
<path d="M103.615 73.2578C102.687 74.2611 103.451 79.5619 103.93 79.9213C104.813 80.6101 110.249 77.3907 115.969 79.2924C125.283 82.3771 124.145 88.5465 124.699 88.4267C125.283 88.3069 126.751 78.0346 118.934 73.7969C113.049 70.6223 104.544 72.2545 103.615 73.2578Z" fill="#9E9E9E"/>
<path d="M104.454 125.144C103.361 126.102 103.84 129.621 107.449 129.561C111.522 129.486 117.227 128.198 121.914 122.643C125.253 118.69 125.987 111.502 124.699 111.502C123.411 111.502 121.03 118.839 114.442 122.298C108.392 125.473 105.607 124.125 104.454 125.144Z" fill="white"/>
<path d="M103.72 134.862L104.019 141.84C104.019 141.84 115.205 142.468 126.451 133.424C140.227 122.358 140.032 101.08 139.973 101.05C139.823 100.975 135.555 119.678 123.531 128.333C113.828 135.326 103.72 134.862 103.72 134.862Z" fill="#9E9E9E"/>
<path d="M59.5763 87.4383C58.034 89.894 58.6929 92.3049 59.9208 93.0087C61.4331 93.8772 63.7392 92.8739 64.8473 90.5828C65.8206 88.5763 65.8206 86.3751 63.9937 85.5216C62.5562 84.8477 60.924 85.282 59.5763 87.4383ZM47.0879 102.472C45.4856 103.745 46.1145 105.707 47.1777 107.099C48.3157 108.597 50.487 109.226 51.6849 108.163C52.8379 107.129 52.7481 104.973 51.5202 103.401C50.487 102.098 48.5404 101.319 47.0879 102.472ZM45.2311 116.518C42.2512 116.608 41.9218 119.528 42.1314 120.771C42.2811 121.624 43.0598 123.481 45.8749 123.406C48.6901 123.331 49.0195 120.352 48.8548 119.288C48.6601 118.225 47.8665 116.443 45.2311 116.518ZM54.6498 118.734C53.1973 118.779 51.8347 120.112 52.224 122.253C52.6133 124.335 54.0059 124.844 55.2039 124.679C56.3419 124.514 57.5399 123.406 57.3751 121.49C57.1955 119.588 55.9226 118.689 54.6498 118.734ZM60.7893 129.171C59.0223 129.171 57.8693 131.058 57.9292 133.184C57.9891 135.311 59.3068 137.916 61.8824 137.617C63.7092 137.407 64.6826 134.397 64.2483 132.63C63.829 130.863 62.6161 129.171 60.7893 129.171ZM50.4421 139.009C48.4355 139.608 49.0794 143.052 49.349 143.876C49.7083 144.969 50.6817 147.036 52.8829 146.556C55.0841 146.077 54.6498 143.157 53.8562 141.33C53.2273 139.878 52.2689 138.47 50.4421 139.009Z" fill="#FFE265"/>
<path d="M10.3111 28.8445C9.83197 29.3237 0.937285 30.5067 1.17687 38.5778C1.41646 46.6489 10.0865 49.3742 13.5156 50.5721C16.9597 51.7551 24.5516 53.0578 26.8127 60.5449C29.0738 68.0171 29.4332 71.551 32.9821 72.5393C37.2498 73.7222 40.1248 67.5678 42.2362 64.1088C44.4973 60.4251 46.6236 57.2207 50.1875 56.7565C53.7513 56.2923 74.281 56.7564 86.1555 53.7916C98.0301 50.8267 107.673 44.0733 107.164 34.2053C106.461 20.5338 87.5931 21.9564 87.5931 21.9564C87.5931 21.9564 80.1659 3.34342 60.2801 0.94755C35.7074 -2.01734 30.137 13.4061 30.137 13.4061C30.137 13.4061 21.0626 10.9803 14.3542 17.0898C8.85865 22.0911 10.3111 28.8445 10.3111 28.8445Z" fill="#FADFB1"/>
<path d="M32.6228 20.4139C31.4698 21.1626 24.402 16.2062 19.0262 21.7915C14.489 26.5234 17.9032 30.9707 16.4806 32.7527C14.534 35.1785 7.60089 34.2351 8.08007 39.3264C8.55924 44.4326 15.5223 44.9567 19.131 46.0198C22.5302 47.0081 25.9443 48.4906 29.2087 51.3506C32.6078 54.3305 31.4398 62.0722 34.9288 62.7909C38.3729 63.5097 39.0617 55.8429 43.4641 52.5186C47.8516 49.1944 50.9213 49.5088 62.0771 48.8949C73.2179 48.2809 100.98 47.6969 99.9469 35.1186C99.1233 25.026 87.2487 28.8294 83.6849 27.0475C80.121 25.2656 75.8983 9.61751 58.633 7.22164C40.6939 4.75089 34.5395 19.186 32.6228 20.4139ZM14.3692 58.6131C13.8601 61.4732 13.5606 127.884 13.5606 127.884C13.5606 127.884 13.2611 133.065 17.7384 133.679C21.9162 134.263 23.4286 130.31 23.5335 127.644C23.6532 124.979 24.2223 65.4564 24.1174 62.7909C24.0126 60.1255 21.452 57.1007 18.8915 56.2921C16.3309 55.4835 14.7136 56.6515 14.3692 58.6131Z" fill="white"/>
<defs>
<radialGradient id="paint0_radial_19_928" cx="0" cy="0" r="1" gradientUnits="userSpaceOnUse" gradientTransform="translate(56.0411 14.9234) rotate(90.9855) scale(144.096 107.968)">
<stop offset="0.594" stop-color="#DB8116"/>
<stop offset="0.896" stop-color="#FDB408"/>
</radialGradient>
</defs>
</svg>
