<svg width="57" height="84" viewBox="0 0 57 84" fill="none" xmlns="http://www.w3.org/2000/svg">
<path d="M21.918 51.7551C28.175 51.7551 33.2472 46.6828 33.2472 40.4259C33.2472 34.1689 28.175 29.0967 21.918 29.0967C15.6611 29.0967 10.5889 34.1689 10.5889 40.4259C10.5889 46.6828 15.6611 51.7551 21.918 51.7551Z" fill="#F9A140"/>
<path opacity="0.1" d="M17.3294 28.9597C10.9973 31.494 7.91851 38.6816 10.4527 45.0137C12.987 51.3459 20.1746 54.4247 26.5067 51.8905C32.8388 49.3562 35.9176 42.1685 33.3833 35.8364C30.8491 29.5043 23.6614 26.4254 17.3294 28.9597ZM25.736 49.9645C20.4674 52.0731 14.4871 49.5115 12.3786 44.2429C10.27 38.9745 12.8316 32.9941 18.1002 30.8855C23.3687 28.777 29.349 31.3386 31.4576 36.6071C33.5661 41.8756 31.0045 47.8559 25.736 49.9645Z" fill="#272525"/>
<path d="M16.8587 27.7841C9.877 30.5784 6.48248 38.5032 9.2767 45.4849C12.0709 52.4666 19.9958 55.8613 26.9775 53.067C33.9591 50.2728 37.3537 42.3478 34.5595 35.3662C31.7652 28.3845 23.8404 24.9899 16.8587 27.7841ZM26.1276 50.9436C20.3187 53.2685 13.7249 50.4442 11.4001 44.6351C9.07522 38.8261 11.8996 32.2324 17.7085 29.9075C23.5175 27.5827 30.1112 30.4071 32.4361 36.2161C34.7609 42.025 31.9366 48.6187 26.1276 50.9436Z" fill="#F4D242"/>
<path d="M26.3738 39.3814C25.8999 39.0929 25.2988 38.9612 24.5711 38.9859C24.8761 38.6044 25.0591 38.1998 25.1203 37.7722C25.1814 37.3449 25.119 36.8985 24.9328 36.4333C24.5629 35.509 23.9539 34.9347 23.1059 34.7107C22.258 34.4865 21.21 34.624 19.9618 35.1236L19.5116 35.3038C19.344 34.8851 19.1765 34.4664 19.0089 34.0477C18.8549 33.6627 18.1583 33.9415 18.3124 34.3264C18.48 34.7452 18.6475 35.1639 18.8151 35.5826L18.3623 35.7638C18.1947 35.3451 18.0272 34.9263 17.8597 34.5077C17.7056 34.1227 17.0091 34.4015 17.1631 34.7865C17.3307 35.2051 17.4982 35.6238 17.6658 36.0426L15.8376 36.7743C15.6373 36.8544 15.5062 36.9703 15.4438 37.1216C15.3814 37.2729 15.3913 37.4515 15.4739 37.6577C15.5706 37.8992 15.702 38.0396 15.868 38.0789C16.0341 38.1184 16.3437 38.0472 16.7971 37.8657L17.0885 37.7491L20.2732 45.7063L19.9818 45.8229C19.493 46.0184 19.2009 46.1848 19.1056 46.3219C19.0102 46.4592 19.0099 46.6456 19.1041 46.8811C19.1889 47.093 19.3041 47.2314 19.4494 47.2961C19.5948 47.3608 19.7705 47.352 19.9767 47.2695L21.8579 46.5166C22.0255 46.9354 22.1931 47.354 22.3607 47.7728C22.5147 48.1577 23.2113 47.8789 23.0572 47.494C22.8896 47.0753 22.722 46.6566 22.5545 46.2378L23.0072 46.0567C23.1748 46.4754 23.3424 46.8941 23.51 47.3128C23.664 47.6978 24.3606 47.419 24.2065 47.034C24.039 46.6153 23.8714 46.1967 23.7038 45.7779L23.9332 45.6862L24.6927 45.3822C25.3402 45.1229 25.8261 44.8859 26.1497 44.6709C26.4736 44.456 26.7467 44.2082 26.9692 43.928C27.3389 43.4521 27.5679 42.9405 27.656 42.3928C27.7444 41.8451 27.6813 41.3036 27.4668 40.7677C27.2122 40.1318 26.8479 39.6698 26.3738 39.3814ZM20.665 36.3177C21.348 36.0443 21.9279 35.9745 22.4049 36.1081C22.8819 36.2417 23.2253 36.5705 23.4349 37.0944C23.6564 37.6479 23.6185 38.1376 23.3213 38.564C23.024 38.9903 22.4572 39.3709 21.6214 39.7053L21.3212 39.8255C20.8876 38.7422 20.4541 37.6588 20.0205 36.5755L20.665 36.3177ZM19.3241 36.8544C19.7577 37.9377 20.1913 39.021 20.6248 40.1043L20.1721 40.2855C19.7385 39.2022 19.305 38.1189 18.8713 37.0355L19.3241 36.8544ZM22.056 44.9926C21.573 43.7857 21.0899 42.5788 20.6069 41.3719L21.0596 41.1907C21.5426 42.3976 22.0257 43.6045 22.5087 44.8115L22.056 44.9926ZM25.7924 43.0105C25.451 43.4718 24.727 43.9237 23.6201 44.3667L23.2053 44.5328C22.7223 43.3259 22.2392 42.1189 21.7562 40.9121L22.2592 40.7107C23.3484 40.2748 24.1648 40.1085 24.7083 40.212C25.2518 40.3154 25.6543 40.6938 25.9159 41.3474C26.1752 41.9952 26.1339 42.5496 25.7924 43.0105Z" fill="#F4D242"/>
<path d="M43.613 44.6361C45.8236 44.6361 47.6156 42.8441 47.6156 40.6335C47.6156 38.4229 45.8236 36.6309 43.613 36.6309C41.4024 36.6309 39.6104 38.4229 39.6104 40.6335C39.6104 42.8441 41.4024 44.6361 43.613 44.6361Z" fill="#F9A140"/>
<path opacity="0.1" d="M44.5511 36.3735C42.1978 35.8554 39.87 37.3431 39.3519 39.6964C38.8337 42.0498 40.3215 44.3776 42.6749 44.8957C45.0283 45.4138 47.356 43.9261 47.8742 41.5726C48.3922 39.2194 46.9044 36.8916 44.5511 36.3735ZM42.8324 44.18C40.8744 43.7489 39.6365 41.8121 40.0675 39.8541C40.4985 37.896 42.4355 36.6582 44.3934 37.0893C46.3515 37.5204 47.5894 39.4571 47.1583 41.4153C46.7273 43.3733 44.7905 44.6111 42.8324 44.18Z" fill="#272525"/>
<path d="M44.6473 35.9358C42.0525 35.3645 39.4861 37.0049 38.9147 39.5996C38.3435 42.1943 39.9838 44.7609 42.5785 45.3322C45.1732 45.9035 47.7398 44.2631 48.3111 41.6684C48.8824 39.0737 47.2421 36.507 44.6473 35.9358ZM42.7523 44.543C40.5934 44.0678 39.2286 41.9323 39.7039 39.7734C40.1792 37.6145 42.3147 36.2496 44.4736 36.725C46.6325 37.2003 47.9972 39.3358 47.522 41.4947C47.0467 43.6535 44.9112 45.0183 42.7523 44.543Z" fill="#F4D242"/>
<path d="M45.122 41.2146C45.0409 41.0362 44.8914 40.8783 44.674 40.7409C44.8388 40.6901 44.9727 40.6082 45.0756 40.4955C45.1784 40.3828 45.2489 40.24 45.2869 40.0671C45.3626 39.7237 45.2988 39.4348 45.0956 39.2009C44.8925 38.9669 44.559 38.7988 44.0952 38.6967L43.9279 38.6598C43.9621 38.5043 43.9964 38.3486 44.0306 38.193C44.0621 38.05 43.8033 37.9929 43.7717 38.1361C43.7375 38.2916 43.7032 38.4473 43.6689 38.6028L43.5007 38.5658C43.5349 38.4102 43.5692 38.2546 43.6035 38.0989C43.635 37.9559 43.3761 37.8989 43.3446 38.0419C43.3103 38.1975 43.276 38.3532 43.2418 38.5088L42.5624 38.3592C42.4879 38.3428 42.4265 38.3506 42.3782 38.3824C42.3299 38.4142 42.2974 38.4683 42.2804 38.545C42.2608 38.6348 42.2712 38.7019 42.3118 38.7464C42.3525 38.7909 42.4571 38.8317 42.6256 38.8688L42.7339 38.8926L42.0828 41.8499L41.9745 41.8261C41.7929 41.786 41.6744 41.7767 41.6194 41.7978C41.5642 41.8189 41.527 41.8733 41.5077 41.9607C41.4905 42.0395 41.4966 42.1027 41.5262 42.1506C41.5558 42.1984 41.6089 42.2308 41.6854 42.2477L42.3846 42.4016C42.3503 42.5572 42.316 42.7128 42.2818 42.8684C42.2503 43.0114 42.5091 43.0684 42.5407 42.9254C42.5749 42.7698 42.6092 42.6142 42.6435 42.4586L42.8117 42.4957C42.7775 42.6512 42.7432 42.8069 42.7089 42.9624C42.6775 43.1055 42.9363 43.1625 42.9679 43.0194C43.0021 42.8639 43.0364 42.7082 43.0706 42.5526L43.1558 42.5714L43.4381 42.6336C43.6788 42.6866 43.8678 42.714 44.0051 42.7154C44.1424 42.717 44.2714 42.6989 44.3921 42.6612C44.5947 42.5956 44.7632 42.4917 44.8979 42.3493C45.0325 42.2068 45.1217 42.0362 45.1656 41.8369C45.2177 41.6004 45.2031 41.393 45.122 41.2146ZM44.0632 39.1851C44.317 39.241 44.5003 39.3359 44.6131 39.4697C44.7258 39.6034 44.7608 39.7678 44.718 39.9625C44.6727 40.1682 44.5642 40.3038 44.3927 40.3693C44.2212 40.4347 43.98 40.4332 43.6693 40.3648L43.5577 40.3403C43.6464 39.9377 43.735 39.5351 43.8237 39.1324L44.0632 39.1851ZM43.5649 39.0754C43.4762 39.478 43.3876 39.8806 43.2988 40.2832L43.1306 40.2461C43.2192 39.8435 43.3079 39.4409 43.3966 39.0383L43.5649 39.0754ZM42.7456 41.9957C42.8442 41.5471 42.9431 41.0985 43.0418 40.6499L43.21 40.687C43.1114 41.1355 43.0125 41.5841 42.9138 42.0326L42.7456 41.9957ZM44.2309 42.1592C44.0395 42.2261 43.7382 42.2142 43.3268 42.1236L43.1726 42.0896C43.2714 41.641 43.3702 41.1925 43.4689 40.744L43.6559 40.7851C44.0607 40.8742 44.3322 40.9879 44.4704 41.1262C44.6086 41.2644 44.6509 41.4549 44.5975 41.6978C44.5444 41.9387 44.4223 42.0925 44.2309 42.1592Z" fill="#F4D242"/>
<path d="M37.9442 20.2186C42.9099 20.2186 46.9353 16.1931 46.9353 11.2275C46.9353 6.26179 42.9099 2.23633 37.9442 2.23633C32.9786 2.23633 28.9531 6.26179 28.9531 11.2275C28.9531 16.1931 32.9786 20.2186 37.9442 20.2186Z" fill="#F9A140"/>
<path opacity="0.1" d="M37.1781 1.45723C31.7817 1.88043 27.7501 6.59802 28.1733 11.9943C28.5965 17.3907 33.314 21.4222 38.7104 20.9991C44.1067 20.576 48.1383 15.8584 47.7151 10.4621C47.2919 5.06567 42.5744 1.0342 37.1781 1.45723ZM38.5816 19.3579C34.0918 19.7099 30.1665 16.3556 29.8145 11.8656C29.4624 7.37569 32.8168 3.45053 37.3067 3.09846C41.7965 2.74639 45.7217 6.10077 46.0737 10.5907C46.4259 15.0807 43.0715 19.0058 38.5816 19.3579Z" fill="#272525"/>
<path d="M37.0995 0.454508C31.1497 0.921041 26.7045 6.12258 27.1711 12.0724C27.6376 18.0223 32.839 22.4675 38.789 22.0009C44.7388 21.5344 49.184 16.3329 48.7173 10.383C48.2509 4.43313 43.0494 -0.0120256 37.0995 0.454508ZM38.647 20.1913C33.6967 20.5795 29.3688 16.881 28.9806 11.9305C28.5925 6.98005 32.291 2.65229 37.2414 2.26409C42.1918 1.87599 46.5197 5.57445 46.9078 10.5248C47.296 15.4753 43.5975 19.8032 38.647 20.1913Z" fill="#F4D242"/>
<path d="M41.5667 11.4901C41.2759 11.1595 40.8517 10.9176 40.2945 10.7643C40.6157 10.5474 40.85 10.2841 40.9974 9.97463C41.1448 9.66538 41.203 9.31245 41.1719 8.91603C41.1101 8.1284 40.7845 7.54929 40.195 7.17912C39.6057 6.80877 38.7792 6.66531 37.7155 6.74871L37.3318 6.77883C37.3038 6.42204 37.2758 6.06517 37.2478 5.70838C37.2221 5.38034 36.6285 5.42685 36.6542 5.75489C36.6822 6.11176 36.7101 6.46855 36.7382 6.82542L36.3524 6.85571C36.3244 6.49884 36.2964 6.14205 36.2684 5.78518C36.2426 5.45714 35.6491 5.50365 35.6748 5.83169C35.7027 6.18856 35.7307 6.54535 35.7588 6.90222L34.2008 7.02441C34.0301 7.03779 33.9033 7.0946 33.8202 7.19439C33.7372 7.29427 33.7026 7.43199 33.7163 7.60764C33.7324 7.81349 33.7988 7.95087 33.9153 8.01994C34.0317 8.08919 34.2831 8.10841 34.6695 8.07803L34.9179 8.05856L35.4497 14.8397L35.2013 14.8592C34.7848 14.8918 34.5241 14.9489 34.4195 15.0302C34.3148 15.1117 34.2704 15.2529 34.2861 15.4535C34.3003 15.634 34.3548 15.7662 34.4496 15.8495C34.5444 15.9328 34.6797 15.9677 34.8554 15.954L36.4587 15.8283C36.4866 16.1851 36.5145 16.542 36.5426 16.8987C36.5683 17.2268 37.162 17.1803 37.1362 16.8522C37.1082 16.4955 37.0803 16.1387 37.0522 15.7818L37.4381 15.7515C37.4661 16.1084 37.494 16.4652 37.5221 16.822C37.5478 17.1501 38.1414 17.1036 38.1156 16.7755C38.0876 16.4187 38.0598 16.0619 38.0317 15.705L38.2271 15.6896L38.8744 15.6389C39.4263 15.5957 39.8504 15.5309 40.1464 15.4445C40.4426 15.3583 40.708 15.2351 40.9428 15.0753C41.3354 14.8022 41.6298 14.4688 41.8261 14.0747C42.0225 13.6806 42.1027 13.2555 42.0669 12.7987C42.0245 12.2568 41.8577 11.8206 41.5667 11.4901ZM37.966 7.8195C38.548 7.77385 39.0039 7.85811 39.3336 8.07203C39.6634 8.28594 39.8458 8.61622 39.8808 9.06276C39.9178 9.53435 39.7733 9.89654 39.4473 10.1492C39.1214 10.4019 38.6019 10.5562 37.8897 10.6121L37.634 10.6322C37.5616 9.70897 37.4891 8.78568 37.4168 7.86249L37.966 7.8195ZM36.8232 7.90908C36.8956 8.83228 36.968 9.75556 37.0404 10.6787L36.6546 10.709C36.5822 9.78577 36.5097 8.86257 36.4374 7.93928L36.8232 7.90908ZM36.9691 14.7204C36.8885 13.6919 36.8077 12.6633 36.7272 11.6348L37.1131 11.6045C37.1936 12.6331 37.2743 13.6617 37.3549 14.6902L36.9691 14.7204ZM40.2684 14.1019C39.9007 14.3707 39.2454 14.542 38.3021 14.6159L37.9486 14.6437C37.8679 13.6152 37.7872 12.5865 37.7066 11.558L38.1354 11.5244C39.0635 11.4515 39.7214 11.5186 40.1087 11.7255C40.4961 11.9324 40.7114 12.3142 40.7551 12.8713C40.7985 13.4233 40.6362 13.8335 40.2684 14.1019Z" fill="#F4D242"/>
<path d="M37.2952 83.1443H3.91315C3.11481 83.1443 2.46765 82.541 2.46765 81.7969V51.1413C2.46765 50.3972 3.11481 49.7939 3.91315 49.7939H43.0532C43.8515 49.7939 44.4987 50.3972 44.4987 51.1413V76.4298C44.4986 80.1381 41.2735 83.1443 37.2952 83.1443Z" fill="#60747F"/>
<path d="M35.9563 83.3065H2.12574C1.4513 83.3065 0.904541 82.7969 0.904541 82.1681V51.0944C0.904541 50.4658 1.4513 49.9561 2.12574 49.9561H41.7142C42.3887 49.9561 42.9354 50.4657 42.9354 51.0944V76.801C42.9355 80.3939 39.8108 83.3065 35.9563 83.3065Z" fill="#FF8A41"/>
<path d="M46.9302 70.5168H35.1165C32.6259 70.5168 30.6067 68.6346 30.6067 66.3131V66.2282C30.6067 63.9064 32.6258 62.0244 35.1165 62.0244H46.9302V70.5168Z" fill="#2E4661"/>
<path opacity="0.25" d="M46.9302 66.313V70.5591H35.1165C32.6259 70.5591 30.6067 68.6771 30.6067 66.3555V66.2705L46.9302 66.313Z" fill="#272525"/>
<path d="M48.6969 36.99C52.1488 36.99 54.9472 34.1916 54.9472 30.7396C54.9472 27.2876 52.1488 24.4893 48.6969 24.4893C45.2449 24.4893 42.4465 27.2876 42.4465 30.7396C42.4465 34.1916 45.2449 36.99 48.6969 36.99Z" fill="#F9A140"/>
<path opacity="0.1" d="M46.4703 24.2998C42.914 25.5295 41.0279 29.4093 42.2577 32.9656C43.4874 36.5219 47.3671 38.4079 50.9234 37.1782C54.4797 35.9485 56.3657 32.0687 55.136 28.5124C53.9063 24.9561 50.0266 23.0701 46.4703 24.2998ZM50.5495 36.0966C47.5906 37.1198 44.3624 35.5505 43.3393 32.5916C42.3161 29.6326 43.8854 26.4045 46.8443 25.3814C49.8032 24.3582 53.0313 25.9275 54.0545 28.8864C55.0776 31.8453 53.5084 35.0735 50.5495 36.0966Z" fill="#272525"/>
<path d="M46.2418 23.6401C42.3208 24.996 40.2413 29.2738 41.5971 33.1948C42.953 37.116 47.2308 39.1955 51.1519 37.8396C55.073 36.4837 57.1525 32.2059 55.7966 28.2849C54.4407 24.3637 50.1629 22.2842 46.2418 23.6401ZM50.7395 36.647C47.477 37.7751 43.9178 36.0449 42.7898 32.7825C41.6616 29.52 43.3919 25.9608 46.6542 24.8327C49.9167 23.7046 53.476 25.4348 54.604 28.6973C55.7321 31.9596 54.0019 35.5189 50.7395 36.647Z" fill="#F4D242"/>
<path d="M51.1799 30.2819C50.9265 30.1104 50.5987 30.022 50.197 30.0164C50.3751 29.8142 50.4866 29.5961 50.5316 29.362C50.5765 29.1281 50.5539 28.8806 50.4635 28.6193C50.284 28.1002 49.9636 27.7677 49.5021 27.6219C49.0408 27.4759 48.4597 27.5241 47.7587 27.7665L47.5058 27.854C47.4246 27.6189 47.3432 27.3837 47.2619 27.1486C47.1872 26.9323 46.796 27.0676 46.8707 27.2838C46.952 27.519 47.0334 27.7541 47.1147 27.9893L46.8604 28.0772C46.7791 27.842 46.6977 27.6069 46.6164 27.3717C46.5416 27.1555 46.1504 27.2908 46.2252 27.5071C46.3064 27.7422 46.3879 27.9774 46.4691 28.2125L45.4424 28.5675C45.3299 28.6064 45.2545 28.6668 45.2162 28.7486C45.1778 28.8303 45.1786 28.929 45.2186 29.0448C45.2655 29.1805 45.3342 29.2612 45.4246 29.2873C45.5151 29.3135 45.6876 29.2824 45.9422 29.1944L46.1059 29.1377L47.6512 33.6067L47.4875 33.6633C47.2131 33.7582 47.0477 33.8422 46.9915 33.9152C46.9354 33.9884 46.9303 34.0911 46.976 34.2233C47.0171 34.3424 47.0769 34.4216 47.1553 34.4611C47.2338 34.5006 47.3308 34.5004 47.4466 34.4603L48.5032 34.0951C48.5845 34.3302 48.6659 34.5654 48.7472 34.8006C48.822 35.0167 49.2131 34.8815 49.1384 34.6653C49.0572 34.4301 48.9757 34.1949 48.8945 33.9597L49.1487 33.8719C49.2301 34.107 49.3114 34.3422 49.3927 34.5773C49.4674 34.7935 49.8587 34.6582 49.7839 34.4421C49.7026 34.207 49.6212 33.9718 49.54 33.7366L49.6688 33.692L50.0954 33.5445C50.4591 33.4187 50.733 33.3009 50.917 33.191C51.1012 33.0811 51.2583 32.9518 51.3882 32.8032C51.6045 32.5507 51.7441 32.2748 51.8072 31.9754C51.8702 31.6758 51.8498 31.3758 51.7457 31.0747C51.6222 30.7175 51.4336 30.4533 51.1799 30.2819ZM48.1147 28.4431C48.4983 28.3105 48.8197 28.2873 49.079 28.3734C49.3383 28.4597 49.5189 28.6499 49.6207 28.9442C49.7282 29.2549 49.6944 29.5239 49.5193 29.751C49.3443 29.978 49.0219 30.1728 48.5524 30.3352L48.3839 30.3935C48.1735 29.7851 47.9631 29.1767 47.7528 28.5682L48.1147 28.4431ZM47.3616 28.7035C47.572 29.3118 47.7824 29.9203 47.9927 30.5287L47.7385 30.6166C47.5281 30.0082 47.3178 29.3998 47.1074 28.7913L47.3616 28.7035ZM48.6526 33.2603C48.4182 32.5825 48.1838 31.9047 47.9495 31.2268L48.2037 31.1389C48.4381 31.8167 48.6725 32.4946 48.9068 33.1725L48.6526 33.2603ZM50.7639 32.2664C50.5637 32.5117 50.1527 32.7416 49.5311 32.9566L49.2981 33.0371C49.0638 32.3594 48.8293 31.6815 48.5949 31.0036L48.8775 30.9059C49.4892 30.6944 49.9435 30.6243 50.2403 30.6956C50.5371 30.767 50.7489 30.9861 50.8758 31.3533C51.0015 31.717 50.9643 32.0215 50.7639 32.2664Z" fill="#F4D242"/>
</svg>
