<svg width="141" height="181" viewBox="0 0 141 181" fill="none" xmlns="http://www.w3.org/2000/svg">
<path opacity="0.5" d="M128.221 62.6113C119.851 57.4452 108.815 58.3886 103.723 59.2571V53.3273C103.723 53.3273 107.257 52.0245 106.883 47.7569C106.509 43.4892 96.6705 43.1149 96.6705 43.1149L7.19954 42.9352C7.19954 42.9352 2.55753 43.6839 2.55753 47.9515C2.55753 52.2192 5.89678 52.9529 5.89678 52.9529C5.89678 52.9529 4.78869 140.567 4.41434 142.978C4.03998 145.389 1.44944 155.047 0.70073 158.192C-0.0479806 161.351 0.700728 163.388 3.11158 165.424C5.52243 167.461 20.7512 179.904 53.6046 180.833C85.7094 181.746 100.564 169.512 103.529 166.907C105.356 165.319 106.494 162.265 105.94 160.034C105.385 157.802 103.903 146.482 103.903 146.482L103.753 140.013C106.209 139.818 109.279 139.399 112.064 138.501C121.348 135.536 132.354 127.27 136.008 117.522C141.039 104.195 144.573 72.7189 128.221 62.6113ZM116.901 116.998C112.408 121.58 107.033 122.388 103.723 122.538V76.4325C107.108 75.7886 113.576 74.9051 117.455 76.5373C120.989 78.0198 123.025 80.4306 124.133 85.8213C124.792 88.921 126.005 107.714 116.901 116.998Z" fill="white"/>
<path opacity="0.7" d="M128.221 62.6113C119.851 57.4452 108.815 58.3886 103.723 59.2571V53.3273C103.723 53.3273 107.257 52.0245 106.883 47.7569C106.509 43.4892 96.6705 43.1149 96.6705 43.1149L7.19954 42.9352C7.19954 42.9352 2.55753 43.6839 2.55753 47.9515C2.55753 52.2192 5.89678 52.9529 5.89678 52.9529C5.89678 52.9529 4.78869 140.567 4.41434 142.978C4.03998 145.389 1.44944 155.047 0.70073 158.192C-0.0479806 161.351 0.700728 163.388 3.11158 165.424C5.52243 167.461 20.7512 179.904 53.6046 180.833C85.7094 181.746 100.564 169.512 103.529 166.907C105.356 165.319 106.494 162.265 105.94 160.034C105.385 157.802 103.903 146.482 103.903 146.482L103.753 140.013C106.209 139.818 109.279 139.399 112.064 138.501C121.348 135.536 132.354 127.27 136.008 117.522C141.039 104.195 144.573 72.7189 128.221 62.6113ZM116.901 116.998C112.408 121.58 107.033 122.388 103.723 122.538V76.4325C107.108 75.7886 113.576 74.9051 117.455 76.5373C120.989 78.0198 123.025 80.4306 124.133 85.8213C124.792 88.921 126.005 107.714 116.901 116.998Z" fill="#E0E0E0"/>
<path d="M8.65171 136.749L7.96289 156.141L17.4865 165.664L20.5562 167.701L20.676 150.466L14.312 145.03L8.65171 136.749Z" fill="white"/>
<path d="M5.13306 158.52C5.25285 159.314 12.8448 167.37 27.819 172.356C42.7932 177.343 61.1666 177.567 78.2821 173.599C95.3976 169.631 101.866 159.419 101.866 159.419C101.866 159.419 102.211 157.262 100.279 156.364C98.3475 155.465 93.7055 155.346 90.6358 158.52C87.626 161.635 87.3415 166.576 87.3415 166.576C87.3415 166.576 84.0472 160.227 76.1108 161.814C67.86 163.462 65.2246 171.802 65.2246 171.802C65.2246 171.802 61.8254 164.66 53.6495 164.54C45.4886 164.42 40.9514 172.925 40.9514 172.925C40.9514 172.925 42.314 163.177 32.2214 160.452C22.6679 157.876 18.8345 165.783 18.8345 165.783C18.8345 165.783 18.4302 157.996 13.9529 155.346C7.85837 151.707 5.13306 158.52 5.13306 158.52Z" fill="#D5D5D5"/>
<path d="M10.3144 133.035C10.3144 133.035 7.42436 133.199 8.0982 136.973C8.5025 139.159 16.8431 162.339 54.5482 161.995C90.8757 161.665 99.0067 139.024 99.2762 136.973C99.7853 133.035 94.8139 134.397 94.8139 134.397L10.3144 133.035Z" fill="#9D9D9C"/>
<path d="M53.6945 107.458C26.4414 108.311 9.65531 98.2035 9.65531 98.2035C9.65531 98.2035 9.1911 126.476 9.31089 130.475C9.47561 136.3 16.6782 159.614 53.8742 159.27C91.0701 158.926 98.7818 135.79 98.7818 129.786C98.7818 126.521 98.6171 98.2035 98.6171 98.2035C98.6171 98.2035 86.7575 106.409 53.6945 107.458Z" fill="url(#paint0_radial_33_335)"/>
<path d="M102.825 65.2317C103.184 69.5293 109.623 66.6992 115.987 66.8339C122.95 66.9837 127.143 69.8887 127.502 65.8756C127.861 61.8026 120.689 60.7694 114.939 60.4699C110.986 60.2603 102.48 61.0838 102.825 65.2317Z" fill="white"/>
<path d="M103.379 73.2579C102.451 74.2612 103.214 79.562 103.694 79.9214C104.577 80.6102 110.013 77.3908 115.733 79.2925C125.047 82.3772 123.909 88.5466 124.463 88.4268C125.047 88.307 126.514 78.0347 118.698 73.797C112.813 70.6224 104.308 72.2546 103.379 73.2579Z" fill="#9E9E9E"/>
<path d="M104.218 125.144C103.124 126.102 103.604 129.621 107.212 129.561C111.285 129.486 116.991 128.198 121.678 122.643C125.017 118.69 125.751 111.502 124.463 111.502C123.175 111.502 120.794 118.84 114.205 122.299C108.156 125.473 105.371 124.125 104.218 125.144Z" fill="white"/>
<path d="M103.484 134.862L103.783 141.84C103.783 141.84 114.969 142.469 126.215 133.424C139.991 122.358 139.796 101.08 139.736 101.05C139.586 100.975 135.319 119.678 123.295 128.333C113.591 135.326 103.484 134.862 103.484 134.862Z" fill="#9E9E9E"/>
<path d="M59.34 87.4384C57.7977 89.8941 58.4565 92.305 59.6844 93.0088C61.1968 93.8773 63.5028 92.874 64.6109 90.583C65.5843 88.5764 65.5843 86.3752 63.7574 85.5217C62.3199 84.8478 60.6877 85.2821 59.34 87.4384ZM46.8515 102.472C45.2493 103.745 45.8782 105.707 46.9414 107.1C48.0794 108.597 50.2507 109.226 51.4486 108.163C52.6016 107.129 52.5118 104.973 51.2839 103.401C50.2507 102.098 48.304 101.319 46.8515 102.472ZM44.9947 116.518C42.0149 116.608 41.6854 119.528 41.8951 120.771C42.0448 121.625 42.8235 123.481 45.6386 123.406C48.4538 123.332 48.7832 120.352 48.6185 119.289C48.4238 118.225 47.6302 116.443 44.9947 116.518ZM54.4135 118.734C52.961 118.779 51.5983 120.112 51.9877 122.253C52.377 124.335 53.7696 124.844 54.9676 124.679C56.1056 124.515 57.3035 123.406 57.1388 121.49C56.9591 119.588 55.6863 118.69 54.4135 118.734ZM60.5529 129.172C58.786 129.172 57.633 131.058 57.6929 133.185C57.7528 135.311 59.0705 137.916 61.6461 137.617C63.4729 137.407 64.4462 134.398 64.012 132.631C63.5927 130.864 62.3798 129.172 60.5529 129.172ZM50.2058 139.01C48.1992 139.609 48.8431 143.053 49.1126 143.876C49.472 144.969 50.4453 147.036 52.6465 146.557C54.8478 146.077 54.4135 143.157 53.6199 141.331C52.991 139.878 52.0326 138.47 50.2058 139.01Z" fill="#FFE265"/>
<path d="M10.0749 28.8446C9.59576 29.3238 0.701079 30.5068 0.940667 38.5779C1.18025 46.649 9.85032 49.3743 13.2794 50.5722C16.7235 51.7552 24.3154 53.0579 26.5765 60.545C28.8376 68.0172 29.197 71.5511 32.7459 72.5394C37.0135 73.7224 39.8886 67.568 42 64.1089C44.2611 60.4253 46.3874 57.2208 49.9513 56.7566C53.5151 56.2924 74.0448 56.7566 85.9193 53.7917C97.7939 50.8268 107.437 44.0734 106.928 34.2054C106.224 20.5339 87.3569 21.9565 87.3569 21.9565C87.3569 21.9565 79.9296 3.34355 60.0439 0.947672C35.4712 -2.01722 29.9008 13.4062 29.9008 13.4062C29.9008 13.4062 20.8264 10.9804 14.118 17.0899C8.62244 22.0913 10.0749 28.8446 10.0749 28.8446Z" fill="#FADFB1"/>
<path d="M32.3865 20.414C31.2335 21.1627 24.1656 16.2063 18.7899 21.7917C14.2527 26.5235 17.6668 30.9709 16.2443 32.7528C14.2976 35.1786 7.36456 34.2352 7.84374 39.3265C8.32291 44.4327 15.2859 44.9568 18.8947 46.0199C22.2939 47.0082 25.708 48.4907 28.9724 51.3508C32.3715 54.3306 31.2035 62.0723 34.6925 62.7911C38.1366 63.5098 38.8254 55.843 43.2278 52.5188C47.6153 49.1945 50.685 49.5089 61.8408 48.895C72.9816 48.2811 100.744 47.6971 99.7106 35.1187C98.887 25.0261 87.0124 28.8295 83.4486 27.0476C79.8847 25.2657 75.662 9.61763 58.3967 7.22176C40.4576 4.75101 34.3032 19.1862 32.3865 20.414ZM14.1329 58.6133C13.6238 61.4733 13.3243 127.884 13.3243 127.884C13.3243 127.884 13.0248 133.065 17.5021 133.679C21.6799 134.263 23.1923 130.31 23.2971 127.644C23.4169 124.979 23.9859 65.4565 23.8811 62.7911C23.7763 60.1256 21.2157 57.1009 18.6551 56.2922C16.0945 55.4836 14.4773 56.6516 14.1329 58.6133Z" fill="white"/>
<defs>
<radialGradient id="paint0_radial_33_335" cx="0" cy="0" r="1" gradientUnits="userSpaceOnUse" gradientTransform="translate(55.805 14.9239) rotate(90.9855) scale(144.096 107.968)">
<stop offset="0.594" stop-color="#DB8116"/>
<stop offset="0.896" stop-color="#FDB408"/>
</radialGradient>
</defs>
</svg>
