<svg width="18" height="23" viewBox="0 0 18 23" fill="none" xmlns="http://www.w3.org/2000/svg">
<path d="M15.4277 7.83164H14.3797V5.73312C14.3797 2.83716 12.0322 0.486816 9.13974 0.486816C6.24726 0.486816 3.89974 2.83716 3.89974 5.73312V7.83164H2.85174C1.69894 7.83164 0.755737 8.77598 0.755737 9.93017V20.4228C0.755737 21.577 1.69894 22.5213 2.85174 22.5213H15.4277C16.5805 22.5213 17.5237 21.577 17.5237 20.4228V9.93017C17.5237 8.77598 16.5805 7.83164 15.4277 7.83164ZM5.99574 5.73312C5.99574 3.99135 7.40006 2.58534 9.13974 2.58534C10.8794 2.58534 12.2837 3.99135 12.2837 5.73312V7.83164H5.99574V5.73312ZM15.4277 20.4228H2.85174V9.93017H15.4277V20.4228ZM9.13974 17.275C10.2925 17.275 11.2357 16.3307 11.2357 15.1765C11.2357 14.0223 10.2925 13.0779 9.13974 13.0779C7.98694 13.0779 7.04374 14.0223 7.04374 15.1765C7.04374 16.3307 7.98694 17.275 9.13974 17.275Z" fill="#369CD9"/>
</svg>
