<svg width="55" height="52" viewBox="0 0 55 52" fill="none" xmlns="http://www.w3.org/2000/svg">
<path d="M35.5706 5.88467H33.5559V3.91164H35.5706V5.88467Z" fill="#9A9A9B"/>
<path d="M35.8228 9.90205H33.8081V7.92902H35.8228V9.90205Z" fill="#9A9A9B"/>
<path d="M39.235 8.40453H36.9503V6.40586H39.235V8.40453Z" fill="#9A9A9B"/>
<path d="M38.2586 12.8624H35.943V10.8024H38.2586V12.8624Z" fill="#9A9A9B"/>
<path fill-rule="evenodd" clip-rule="evenodd" d="M18.7602 23.3068C21.4882 17.0075 27.1966 13.062 33.9454 12.9017V10.8886H32.2958V7.95267H30.8698V6.21913H32.3517V3.08778C29.83 3.14951 28.3733 3.28043 25.9492 3.62275C17.8034 9.80235 16.7446 16.7137 18.7602 23.3068ZM26.6154 7.65999V5.81514L28.5781 5.49604V7.22228L26.6154 7.65999ZM26.6221 12.7306V11.1507L28.1751 10.8491V12.3223L26.6221 12.7306Z" fill="#9A9A9B"/>
<path d="M7.9233 32.1341C6.69208 29.9948 5.28327 8.15414 25.9748 3.7353C17.9804 9.67514 16.6557 17.2417 18.9946 23.5054C23.2517 34.9064 39.6463 41.9912 50.0509 27.0941C31.2614 54.5233 9.15453 34.2734 7.9233 32.1341Z" fill="url(#paint0_linear_2_1788)"/>
<path d="M39.6643 49.0678C27.6604 53.6834 11.8515 47.7797 7.80212 32.1443C28.8114 52.1227 52.2237 34.3309 52.2185 15.8094C59.2672 30.3276 51.6681 44.4523 39.6643 49.0678Z" fill="url(#paint1_linear_2_1788)"/>
<defs>
<linearGradient id="paint0_linear_2_1788" x1="11.8927" y1="49.5177" x2="25.6643" y2="21.2346" gradientUnits="userSpaceOnUse">
<stop stop-color="#0074C8"/>
<stop offset="1" stop-color="#579DCF"/>
</linearGradient>
<linearGradient id="paint1_linear_2_1788" x1="4.61076" y1="46.6982" x2="79.8236" y2="15.6139" gradientUnits="userSpaceOnUse">
<stop stop-color="#222C6B"/>
<stop offset="1" stop-color="#07A1FC"/>
</linearGradient>
</defs>
</svg>
