<svg width="13" height="12" viewBox="0 0 13 12" fill="none" xmlns="http://www.w3.org/2000/svg">
<path d="M6.50002 11.8337C3.27827 11.8337 0.666687 9.22208 0.666687 6.00033C0.666687 2.77858 3.27827 0.166992 6.50002 0.166992C9.72177 0.166992 12.3334 2.77858 12.3334 6.00033C12.3334 9.22208 9.72177 11.8337 6.50002 11.8337ZM6.50002 10.667C7.7377 10.667 8.92468 10.1753 9.79985 9.30016C10.675 8.42499 11.1667 7.238 11.1667 6.00033C11.1667 4.76265 10.675 3.57566 9.79985 2.70049C8.92468 1.82532 7.7377 1.33366 6.50002 1.33366C5.26234 1.33366 4.07536 1.82532 3.20019 2.70049C2.32502 3.57566 1.83335 4.76265 1.83335 6.00033C1.83335 7.238 2.32502 8.42499 3.20019 9.30016C4.07536 10.1753 5.26234 10.667 6.50002 10.667ZM5.91669 8.33366H4.16669V3.66699H5.91669V2.50033H7.08335V3.66699H7.66669C7.93752 3.66699 8.203 3.74241 8.43338 3.88479C8.66376 4.02718 8.84994 4.2309 8.97106 4.47314C9.09218 4.71538 9.14345 4.98656 9.11913 5.25629C9.09481 5.52603 8.99585 5.78366 8.83335 6.00033C8.99585 6.21699 9.09481 6.47462 9.11913 6.74436C9.14345 7.01409 9.09218 7.28527 8.97106 7.52751C8.84994 7.76975 8.66376 7.97347 8.43338 8.11586C8.203 8.25824 7.93752 8.33366 7.66669 8.33366H7.08335V9.50033H5.91669V8.33366ZM5.33335 6.58366V7.16699H7.66669C7.74404 7.16699 7.81823 7.13626 7.87293 7.08156C7.92762 7.02687 7.95835 6.95268 7.95835 6.87533C7.95835 6.79797 7.92762 6.72378 7.87293 6.66909C7.81823 6.61439 7.74404 6.58366 7.66669 6.58366H5.33335ZM5.33335 4.83366V5.41699H7.66669C7.74404 5.41699 7.81823 5.38626 7.87293 5.33156C7.92762 5.27687 7.95835 5.20268 7.95835 5.12533C7.95835 5.04797 7.92762 4.97378 7.87293 4.91909C7.81823 4.86439 7.74404 4.83366 7.66669 4.83366H5.33335Z" fill="#009DE0"/>
</svg>
