<svg width="250" height="245" viewBox="0 0 250 245" fill="none" xmlns="http://www.w3.org/2000/svg">
<g opacity="0.4">
<path fill-rule="evenodd" clip-rule="evenodd" d="M74.8336 73.1495C74.8336 74.2276 75.2587 75.2615 76.0154 76.0238C76.7721 76.7861 77.7984 77.2144 78.8686 77.2144L81.5586 77.2144C82.6287 77.2144 83.655 76.7861 84.4117 76.0238C85.1684 75.2615 85.5935 74.2276 85.5935 73.1495C85.5935 72.0714 85.1684 71.0375 84.4117 70.2752C83.655 69.5129 82.6287 69.0847 81.5586 69.0847L81.5586 60.9549L84.2485 60.9549L84.2485 58.245L81.5586 58.245L81.5586 56.8901L84.2485 56.8901L84.2485 54.1802L78.8686 54.1802L78.8686 69.0847C77.7984 69.0847 76.7721 69.5129 76.0154 70.2752C75.2587 71.0375 74.8336 72.0714 74.8336 73.1495ZM81.5586 71.7946L78.8686 71.7946C78.5119 71.7946 78.1698 71.9373 77.9175 72.1914C77.6653 72.4455 77.5236 72.7901 77.5236 73.1495C77.5236 73.5089 77.6653 73.8535 77.9175 74.1076C78.1698 74.3617 78.5119 74.5045 78.8686 74.5045L81.5586 74.5045C81.9153 74.5045 82.2574 74.3617 82.5096 74.1076C82.7618 73.8535 82.9036 73.5089 82.9036 73.1495C82.9036 72.7901 82.7618 72.4455 82.5096 72.1914C82.2574 71.9373 81.9153 71.7946 81.5586 71.7946Z" fill="white" fill-opacity="0.4"/>
<path d="M151.292 175.577C154.13 178.546 156.883 181.218 159.529 184.598C162.405 179.068 165.349 173.52 170.207 167.511L168.898 166.932C164.796 171.136 161.609 175.116 158.84 179.845C156.915 178.169 153.803 175.796 151.902 174.577L151.292 175.577Z" fill="white" fill-opacity="0.4"/>
<rect x="0.520142" y="1.28711" width="248.169" height="242.905" rx="18.5" stroke="white" stroke-opacity="0.37"/>
<rect x="111.219" y="23.793" width="94.5428" height="155.198" rx="10.5" stroke="white" stroke-opacity="0.37"/>
<rect x="8.6604" y="23.2528" width="94.5428" height="155.198" rx="10.5" stroke="white" stroke-opacity="0.37"/>
<path d="M161.263 66.3689C155.974 66.3689 151.672 68.9476 151.672 72.1199V72.8871C151.672 73.2561 151.89 73.61 152.279 73.8709C152.668 74.1318 153.196 74.2784 153.745 74.2784H168.781C169.331 74.2784 169.858 74.1318 170.247 73.8709C170.636 73.61 170.854 73.2561 170.854 72.8871V72.1181C170.854 68.9476 166.552 66.3689 161.263 66.3689ZM161.569 65.2588C160.496 65.259 159.447 65.0457 158.555 64.6459C157.662 64.246 156.967 63.6776 156.556 63.0125C156.145 62.3475 156.038 61.6156 156.247 60.9094C156.456 60.2033 156.973 59.5547 157.731 59.0455C158.49 58.5364 159.456 58.1897 160.509 58.0491C161.561 57.9086 162.652 57.9806 163.643 58.2561C164.634 58.5316 165.481 58.9981 166.078 59.5967C166.674 60.1953 166.992 60.899 166.992 61.619C166.991 62.5839 166.419 63.5092 165.402 64.1916C164.386 64.874 163.007 65.2578 161.569 65.2588Z" fill="white"/>
<path d="M25.9694 60.2689C25.7538 57.2369 28.1501 54.656 31.1897 54.6465L62.519 54.5483C65.289 54.5396 67.5892 56.6846 67.7738 59.4485L73.2285 141.15C73.4303 144.174 71.0372 146.74 68.0066 146.75L37.0331 146.847C34.2718 146.856 31.9757 144.724 31.7798 141.97L25.9694 60.2689Z" stroke="black" stroke-width="1.5"/>
<path d="M27.0486 60.6561C26.8227 57.4798 29.3332 54.776 32.5175 54.766L63.8468 54.6678C66.7488 54.6587 69.1585 56.9058 69.3518 59.8014L74.8065 141.503C75.018 144.671 72.5109 147.359 69.336 147.369L38.3625 147.467C35.4697 147.476 33.0642 145.243 32.859 142.357L27.0486 60.6561Z" fill="#369CD9" stroke="black"/>
<path d="M39.4072 147.02L49.559 55.1859L31.6214 55.2685C31.6214 55.2685 29.8006 55.7326 28.733 56.9742C27.3846 58.5423 27.5221 60.4407 27.5221 60.4407L33.3546 142.425C33.3546 142.425 33.5472 144.626 35.2529 145.947C36.9587 147.267 39.4072 147.02 39.4072 147.02Z" fill="#730E11" fill-opacity="0.35"/>
<path d="M67.3434 56.6431L57.0646 147.038L71.1556 146.956C71.1556 146.956 72.9764 146.491 74.044 145.25C75.3924 143.682 75.2548 141.783 75.2548 141.783L69.4223 59.7986C69.4223 59.7986 69.0491 57.9637 67.3434 56.6431Z" fill="#730E11" fill-opacity="0.35"/>
<path d="M41.3055 146.965L51.9301 55.1806L56.1037 55.1805L45.5148 146.91L41.3055 146.965Z" fill="#730E11" fill-opacity="0.35"/>
<path d="M27.2981 60.1752C27.0825 57.1432 29.4788 54.5623 32.5185 54.5527L63.8477 54.4545C66.6178 54.4459 68.918 56.5909 69.1025 59.3548L74.5572 141.056C74.7591 144.08 72.366 146.647 69.3354 146.656L38.3618 146.754C35.6005 146.762 33.3044 144.631 33.1085 141.876L27.2981 60.1752Z" stroke="#FF0000" stroke-width="1.5"/>
<path d="M59.0483 90.5768C57.1243 90.5768 56.1622 89.8744 56.1622 88.4695C56.1622 88.0496 56.2729 87.6754 56.4944 87.3471C56.7234 87.0188 57.0479 86.7859 57.4678 86.6485C57.0861 86.5034 56.8074 86.2896 56.6318 86.0071C56.4562 85.717 56.3684 85.4078 56.3684 85.0795C56.3684 84.4458 56.586 83.938 57.0212 83.5563C57.464 83.1669 58.1397 82.9722 59.0483 82.9722C59.9798 82.9722 60.6593 83.1669 61.0869 83.5563C61.5145 83.938 61.7283 84.4458 61.7283 85.0795C61.7283 85.4307 61.6405 85.759 61.4649 86.0644C61.2969 86.3622 60.9991 86.5912 60.5715 86.7516C61.0449 86.889 61.3885 87.1028 61.6023 87.3929C61.8161 87.6754 61.923 88.0343 61.923 88.4695C61.923 89.8744 60.9648 90.5768 59.0483 90.5768ZM59.3575 86.3622C59.7775 86.2553 60.0829 86.1102 60.2738 85.927C60.4723 85.7437 60.5715 85.4689 60.5715 85.1024C60.5715 84.3389 60.0638 83.9571 59.0483 83.9571C58.552 83.9571 58.1741 84.0487 57.9145 84.232C57.6549 84.4152 57.5251 84.7054 57.5251 85.1024C57.5251 85.7056 57.8649 86.072 58.5444 86.2018L59.3575 86.3622ZM59.0483 89.6033C59.621 89.6033 60.0485 89.5117 60.331 89.3284C60.6212 89.1376 60.7662 88.8436 60.7662 88.4466C60.7662 88.0877 60.6632 87.8281 60.457 87.6678C60.2585 87.4998 59.9493 87.3738 59.5293 87.2899L58.5902 87.0952C58.2008 87.1791 57.8916 87.3204 57.6625 87.5189C57.4335 87.7098 57.319 88.0114 57.319 88.4237C57.319 88.836 57.464 89.1376 57.7542 89.3284C58.0519 89.5117 58.4833 89.6033 59.0483 89.6033Z" fill="#FFF7F7"/>
<path d="M52.293 90.5768C50.3689 90.5768 49.4069 89.8744 49.4069 88.4695C49.4069 88.0496 49.5176 87.6754 49.739 87.3471C49.968 87.0188 50.2925 86.7859 50.7125 86.6485C50.3307 86.5034 50.052 86.2896 49.8764 86.0071C49.7008 85.717 49.613 85.4078 49.613 85.0795C49.613 84.4458 49.8306 83.938 50.2658 83.5563C50.7087 83.1669 51.3844 82.9722 52.293 82.9722C53.2244 82.9722 53.904 83.1669 54.3315 83.5563C54.7591 83.938 54.9729 84.4458 54.9729 85.0795C54.9729 85.4307 54.8851 85.759 54.7095 86.0644C54.5415 86.3622 54.2437 86.5912 53.8162 86.7516C54.2895 86.889 54.6331 87.1028 54.8469 87.3929C55.0607 87.6754 55.1676 88.0343 55.1676 88.4695C55.1676 89.8744 54.2094 90.5768 52.293 90.5768ZM52.6022 86.3622C53.0221 86.2553 53.3275 86.1102 53.5184 85.927C53.7169 85.7437 53.8162 85.4689 53.8162 85.1024C53.8162 84.3389 53.3084 83.9571 52.293 83.9571C51.7967 83.9571 51.4187 84.0487 51.1591 84.232C50.8995 84.4152 50.7697 84.7054 50.7697 85.1024C50.7697 85.7056 51.1095 86.072 51.789 86.2018L52.6022 86.3622ZM52.293 89.6033C52.8656 89.6033 53.2932 89.5117 53.5757 89.3284C53.8658 89.1376 54.0109 88.8436 54.0109 88.4466C54.0109 88.0877 53.9078 87.8281 53.7016 87.6678C53.5031 87.4998 53.1939 87.3738 52.774 87.2899L51.8348 87.0952C51.4455 87.1791 51.1362 87.3204 50.9072 87.5189C50.6781 87.7098 50.5636 88.0114 50.5636 88.4237C50.5636 88.836 50.7087 89.1376 50.9988 89.3284C51.2966 89.5117 51.728 89.6033 52.293 89.6033Z" fill="#FFF7F7"/>
<path d="M45.5639 90.5768C45.3425 90.5768 45.0981 90.5615 44.8309 90.531C44.5637 90.5081 44.3079 90.4699 44.0636 90.4165C43.8269 90.363 43.6284 90.3057 43.468 90.2447V89.1567C43.7734 89.2788 44.0865 89.3704 44.4071 89.4315C44.7355 89.485 45.0638 89.5117 45.3921 89.5117C45.9876 89.5117 46.4305 89.4239 46.7206 89.2483C47.0107 89.0727 47.1558 88.7634 47.1558 88.3206C47.1558 87.9236 47.0222 87.6373 46.755 87.4616C46.4954 87.286 46.1212 87.1982 45.6326 87.1982H44.5217L44.6247 86.2706H45.5524C46.5221 86.2706 47.0069 85.8888 47.0069 85.1253C47.0069 84.7512 46.8771 84.4763 46.6175 84.3007C46.3656 84.1251 45.9571 84.0373 45.3921 84.0373C45.079 84.0373 44.7622 84.0678 44.4415 84.1289C44.1285 84.19 43.8498 84.274 43.6055 84.3809V83.3158C43.8345 83.2241 44.1323 83.144 44.4988 83.0752C44.8653 83.0065 45.2279 82.9722 45.5868 82.9722C46.4877 82.9722 47.1558 83.163 47.591 83.5448C48.0338 83.9266 48.2553 84.4152 48.2553 85.0108C48.2553 85.3772 48.1636 85.7208 47.9804 86.0415C47.8048 86.3622 47.5261 86.5912 47.1444 86.7287C47.5872 86.8432 47.9079 87.0493 48.1064 87.3471C48.3125 87.6449 48.4156 87.9961 48.4156 88.4008C48.4156 89.1414 48.156 89.6911 47.6368 90.05C47.1176 90.4012 46.4266 90.5768 45.5639 90.5768Z" fill="#FFF7F7"/>
<path d="M37.641 90.4623V89.8438C37.8395 89.3781 38.1144 88.9581 38.4656 88.584C38.8244 88.2099 39.2062 87.8472 39.6109 87.496C39.9163 87.2288 40.1682 87.0035 40.3667 86.8203C40.5729 86.6294 40.7332 86.4576 40.8478 86.3049C40.9623 86.1522 41.0425 85.9957 41.0883 85.8354C41.1341 85.6674 41.157 85.4727 41.157 85.2513C41.157 84.8542 41.0425 84.5526 40.8134 84.3465C40.5843 84.1403 40.2026 84.0373 39.6681 84.0373C39.378 84.0373 39.0802 84.0678 38.7748 84.1289C38.477 84.19 38.1907 84.274 37.9159 84.3809V83.2814C38.1831 83.1898 38.4999 83.1172 38.8664 83.0638C39.2329 83.0027 39.5803 82.9722 39.9086 82.9722C40.7332 82.9722 41.3555 83.1745 41.7754 83.5792C42.1954 83.9838 42.4053 84.5374 42.4053 85.2398C42.4053 85.591 42.3443 85.9041 42.2221 86.1789C42.0999 86.4462 41.932 86.7019 41.7182 86.9463C41.5044 87.183 41.2562 87.4273 40.9737 87.6792C40.6225 87.9847 40.2904 88.2824 39.9774 88.5726C39.6719 88.8551 39.4238 89.1643 39.2329 89.5002H42.4855V90.4623H37.641Z" fill="#FFF7F7"/>
<path d="M62.1194 78.9105V75.0531H64.8088V75.5622H62.7723V76.7302H64.5871V77.2334H62.7723V78.4073H64.8088V78.9105H62.1194Z" fill="white"/>
<path d="M58.2296 78.9105V75.0531H59.7929C60.3639 75.0531 60.7872 75.2048 61.0627 75.5083C61.3382 75.8078 61.476 76.3069 61.476 77.0058C61.476 77.6646 61.3402 78.1478 61.0687 78.4553C60.7971 78.7587 60.3719 78.9105 59.7929 78.9105H58.2296ZM58.8824 78.4073H59.691C59.9426 78.4073 60.1523 78.3714 60.32 78.2995C60.4877 78.2237 60.6135 78.0839 60.6973 77.8803C60.7812 77.6766 60.8231 77.3851 60.8231 77.0058C60.8231 76.6264 60.7852 76.3329 60.7093 76.1253C60.6334 75.9176 60.5116 75.7719 60.3439 75.688C60.1802 75.6042 59.9626 75.5622 59.691 75.5622H58.8824V78.4073Z" fill="white"/>
<path d="M55.766 78.9703C55.1551 78.9703 54.6978 78.8106 54.3944 78.4912C54.0909 78.1677 53.9391 77.6686 53.9391 76.9937C53.9391 76.2909 54.0909 75.7818 54.3944 75.4664C54.6978 75.1509 55.1551 74.9932 55.766 74.9932C56.381 74.9932 56.8382 75.1509 57.1377 75.4664C57.4411 75.7818 57.5929 76.2909 57.5929 76.9937C57.5929 77.6686 57.4411 78.1677 57.1377 78.4912C56.8382 78.8106 56.381 78.9703 55.766 78.9703ZM55.766 78.4193C56.1693 78.4193 56.4648 78.3095 56.6525 78.0899C56.8442 77.8662 56.94 77.5009 56.94 76.9937C56.94 76.4587 56.8442 76.0853 56.6525 75.8737C56.4648 75.658 56.1693 75.5502 55.766 75.5502C55.3667 75.5502 55.0712 75.658 54.8795 75.8737C54.6919 76.0853 54.598 76.4587 54.598 76.9937C54.598 77.5009 54.6919 77.8662 54.8795 78.0899C55.0712 78.3095 55.3667 78.4193 55.766 78.4193Z" fill="white"/>
<path d="M52.4109 78.9703C51.776 78.9703 51.2948 78.7966 50.9673 78.4492C50.6439 78.1018 50.4822 77.6326 50.4822 77.0417C50.4822 76.6184 50.5501 76.255 50.6858 75.9515C50.8256 75.644 51.0372 75.4085 51.3207 75.2447C51.6043 75.077 51.9656 74.9932 52.4049 74.9932C52.6285 74.9932 52.8321 75.0111 53.0158 75.0471C53.2035 75.079 53.3772 75.1229 53.5369 75.1788V75.7479C53.3772 75.684 53.2055 75.6361 53.0218 75.6041C52.8421 75.5682 52.6525 75.5502 52.4528 75.5502C51.9736 75.5502 51.6342 75.678 51.4345 75.9336C51.2389 76.1891 51.141 76.5585 51.141 77.0417C51.141 77.4929 51.2489 77.8363 51.4645 78.0719C51.6801 78.3035 52.0136 78.4193 52.4648 78.4193C52.6485 78.4193 52.8321 78.4053 53.0158 78.3774C53.2035 78.3454 53.3792 78.2975 53.5429 78.2336V78.8086C53.3832 78.8605 53.2095 78.9005 53.0218 78.9284C52.8381 78.9564 52.6345 78.9703 52.4109 78.9703Z" fill="white"/>
<path d="M45.5659 78.9105V75.0531H47.3389C47.7701 75.0531 48.0836 75.1649 48.2793 75.3885C48.4789 75.6081 48.5787 75.9076 48.5787 76.287C48.5787 76.5585 48.5109 76.7901 48.3751 76.9818C48.2393 77.1735 48.0437 77.3072 47.7881 77.3831C47.86 77.435 47.9159 77.4909 47.9558 77.5508C47.9957 77.6107 48.0357 77.6906 48.0756 77.7904L48.5608 78.9105H47.8899L47.4167 77.8323C47.3728 77.7285 47.3189 77.6546 47.255 77.6107C47.1951 77.5668 47.0913 77.5448 46.9436 77.5448H46.2188V78.9105H45.5659ZM46.2188 77.0177H47.1652C47.4008 77.0177 47.5865 76.9598 47.7222 76.844C47.858 76.7282 47.9259 76.5425 47.9259 76.287C47.9259 75.8038 47.6923 75.5622 47.2251 75.5622H46.2188V77.0177Z" fill="white"/>
<path d="M43.177 78.9704C42.6459 78.9704 42.2326 78.8426 41.9371 78.587C41.6456 78.3315 41.4999 77.9621 41.4999 77.4789V75.0531H42.1528V77.455C42.1528 77.7784 42.2406 78.02 42.4163 78.1797C42.596 78.3395 42.8496 78.4193 43.177 78.4193C43.5004 78.4193 43.75 78.3395 43.9257 78.1797C44.1054 78.02 44.1953 77.7784 44.1953 77.455V75.0531H44.8421V77.4789C44.8421 77.9621 44.6964 78.3315 44.4049 78.587C44.1134 78.8426 43.7041 78.9704 43.177 78.9704Z" fill="white"/>
<path d="M39.0662 78.9703C38.4553 78.9703 37.9981 78.8106 37.6946 78.4912C37.3911 78.1677 37.2394 77.6686 37.2394 76.9937C37.2394 76.2909 37.3911 75.7818 37.6946 75.4664C37.9981 75.1509 38.4553 74.9932 39.0662 74.9932C39.6812 74.9932 40.1384 75.1509 40.4379 75.4664C40.7414 75.7818 40.8931 76.2909 40.8931 76.9937C40.8931 77.6686 40.7414 78.1677 40.4379 78.4912C40.1384 78.8106 39.6812 78.9703 39.0662 78.9703ZM39.0662 78.4193C39.4696 78.4193 39.765 78.3095 39.9527 78.0899C40.1444 77.8662 40.2402 77.5009 40.2402 76.9937C40.2402 76.4587 40.1444 76.0853 39.9527 75.8737C39.765 75.658 39.4696 75.5502 39.0662 75.5502C38.6669 75.5502 38.3714 75.658 38.1798 75.8737C37.9921 76.0853 37.8982 76.4587 37.8982 76.9937C37.8982 77.5009 37.9921 77.8662 38.1798 78.0899C38.3714 78.3095 38.6669 78.4193 39.0662 78.4193Z" fill="white"/>
<path d="M35.2011 78.9105V77.4789L33.8175 75.0531H34.4943L35.5246 76.9279L36.5548 75.0531H37.2316L35.848 77.4789V78.9105H35.2011Z" fill="white"/>
<rect x="34.2319" y="93.4497" width="32.1998" height="0.619219" fill="white"/>
<rect width="10.7372" height="0.85607" transform="matrix(0.120662 0.992694 -0.997272 0.0738153 48.4562 40.6141)" fill="#FF0000"/>
<rect width="11.5552" height="0.813395" transform="matrix(-0.60152 0.798858 -0.909 -0.416795 60.7201 42.0707)" fill="#FF0000"/>
<rect width="11.3858" height="0.822676" transform="matrix(0.544065 0.839043 -0.930116 0.367266 38.422 41.589)" fill="#FF0000"/>
<rect width="25.5363" height="0.491075" transform="matrix(1 0 0 -1 37.6317 97.9598)" fill="white"/>
<path d="M206.215 54.5551C209.265 54.5797 211.723 57.2068 211.552 60.2597L208.747 110.357C208.593 113.107 206.346 115.209 203.598 115.174L95.1646 113.774C92.124 113.735 89.682 111.113 89.8524 108.07L92.6273 58.4986C92.7806 55.7586 95.0135 53.6595 97.7512 53.6815L206.215 54.5551Z" stroke="black" stroke-width="1.5"/>
<path d="M205.038 53.1566C208.233 53.1824 210.808 55.9346 210.629 59.1329L207.824 109.23C207.663 112.111 205.308 114.314 202.43 114.276L93.9967 112.877C90.8112 112.836 88.253 110.089 88.4314 106.901L91.2063 57.3295C91.367 54.4591 93.7062 52.26 96.5743 52.2831L205.038 53.1566Z" fill="#369CD9" stroke="black"/>
<rect x="29.6758" y="155.459" width="53.2478" height="8.82544" rx="2" fill="white"/>
<path d="M74.0121 162.489L72.9881 161.737L74.4121 160.185L72.5561 159.417L73.1001 158.329L74.7321 159.129L74.6521 157.353H75.9961L75.9161 159.129L77.5481 158.329L78.0761 159.417L76.2201 160.185L77.6441 161.737L76.6201 162.489L75.3241 160.777L74.0121 162.489Z" fill="#DDDDDD"/>
<path d="M65.1521 162.489L64.1281 161.737L65.5521 160.185L63.6961 159.417L64.2401 158.329L65.8721 159.129L65.7921 157.353H67.1361L67.0561 159.129L68.6881 158.329L69.2161 159.417L67.3601 160.185L68.7841 161.737L67.7601 162.489L66.4641 160.777L65.1521 162.489Z" fill="#DDDDDD"/>
<path d="M56.2922 162.489L55.2682 161.737L56.6922 160.185L54.8362 159.417L55.3802 158.329L57.0122 159.129L56.9322 157.353H58.2762L58.1962 159.129L59.8282 158.329L60.3562 159.417L58.5002 160.185L59.9242 161.737L58.9002 162.489L57.6042 160.777L56.2922 162.489Z" fill="#DDDDDD"/>
<path d="M47.4323 162.489L46.4083 161.737L47.8323 160.185L45.9763 159.417L46.5203 158.329L48.1523 159.129L48.0723 157.353H49.4163L49.3363 159.129L50.9683 158.329L51.4963 159.417L49.6403 160.185L51.0643 161.737L50.0403 162.489L48.7443 160.777L47.4323 162.489Z" fill="#DDDDDD"/>
<path d="M38.5725 162.489L37.5485 161.737L38.9725 160.185L37.1165 159.417L37.6605 158.329L39.2925 159.129L39.2125 157.353H40.5565L40.4765 159.129L42.1085 158.329L42.6365 159.417L40.7805 160.185L42.2045 161.737L41.1805 162.489L39.8845 160.777L38.5725 162.489Z" fill="#DDDDDD"/>
<path d="M106.598 112.2L110.779 53.4088L118.49 53.4496L114.23 112.2H106.598Z" fill="#730E11" fill-opacity="0.35"/>
<path d="M89.0104 105.608L92.3365 58.8467C92.5607 55.694 95.1924 53.2558 98.3531 53.2725L100.445 53.2836L96.1856 112.034H94.9953C91.5139 112.034 88.7634 109.08 89.0104 105.608Z" fill="#730E11" fill-opacity="0.35"/>
<path d="M120.686 112.27L124.868 53.4795L204.755 53.6665C208.191 53.6746 210.919 56.5607 210.732 59.9916L208.144 107.697C207.969 110.911 205.29 113.414 202.071 113.371L120.686 112.27Z" fill="#730E11" fill-opacity="0.35"/>
<path d="M205.635 53.4593C208.686 53.4838 211.144 56.1109 210.973 59.1639L208.168 109.261C208.014 112.011 205.766 114.114 203.019 114.078L94.5855 112.678C91.5449 112.639 89.1029 110.017 89.2733 106.974L92.0482 57.4028C92.2015 54.6628 94.4344 52.5637 97.1721 52.5857L205.635 53.4593Z" stroke="#FF0000" stroke-width="1.5"/>
<rect x="134.656" y="77.298" width="32.053" height="5.31255" rx="2" fill="white"/>
<rect x="133.614" y="86.4728" width="32.053" height="5.31255" rx="2" fill="white"/>
<path d="M159.985 81.2582L159.368 80.8055L160.226 79.8713L159.108 79.4089L159.436 78.754L160.418 79.2356L160.37 78.1665H161.179L161.131 79.2356L162.113 78.754L162.431 79.4089L161.314 79.8713L162.171 80.8055L161.555 81.2582L160.774 80.2276L159.985 81.2582Z" fill="black"/>
<path d="M154.651 81.2582L154.035 80.8055L154.892 79.8713L153.775 79.4089L154.102 78.754L155.085 79.2356L155.037 78.1665H155.846L155.798 79.2356L156.78 78.754L157.098 79.4089L155.981 79.8713L156.838 80.8055L156.221 81.2582L155.441 80.2276L154.651 81.2582Z" fill="black"/>
<path d="M149.318 81.2582L148.702 80.8055L149.559 79.8713L148.442 79.4089L148.769 78.754L149.752 79.2356L149.703 78.1665H150.512L150.464 79.2356L151.447 78.754L151.765 79.4089L150.647 79.8713L151.504 80.8055L150.888 81.2582L150.108 80.2276L149.318 81.2582Z" fill="black"/>
<path d="M143.985 81.2582L143.369 80.8055L144.226 79.8713L143.108 79.4089L143.436 78.754L144.418 79.2356L144.37 78.1665H145.179L145.131 79.2356L146.113 78.754L146.431 79.4089L145.314 79.8713L146.171 80.8055L145.555 81.2582L144.775 80.2276L143.985 81.2582Z" fill="black"/>
<path d="M138.652 81.2582L138.035 80.8055L138.892 79.8713L137.775 79.4089L138.103 78.754L139.085 79.2356L139.037 78.1665H139.846L139.798 79.2356L140.78 78.754L141.098 79.4089L139.981 79.8713L140.838 80.8055L140.222 81.2582L139.441 80.2276L138.652 81.2582Z" fill="black"/>
<path d="M158.943 90.433L158.326 89.9803L159.184 89.0461L158.066 88.5838L158.394 87.9288L159.376 88.4104L159.328 87.3413H160.137L160.089 88.4104L161.071 87.9288L161.389 88.5838L160.272 89.0461L161.129 89.9803L160.513 90.433L159.733 89.4024L158.943 90.433Z" fill="black"/>
<path d="M153.609 90.433L152.993 89.9803L153.85 89.0461L152.733 88.5838L153.06 87.9288L154.043 88.4104L153.995 87.3413H154.804L154.756 88.4104L155.738 87.9288L156.056 88.5838L154.939 89.0461L155.796 89.9803L155.179 90.433L154.399 89.4024L153.609 90.433Z" fill="black"/>
<path d="M148.276 90.433L147.66 89.9803L148.517 89.0461L147.4 88.5838L147.727 87.9288L148.71 88.4104L148.661 87.3413H149.47L149.422 88.4104L150.405 87.9288L150.723 88.5838L149.605 89.0461L150.462 89.9803L149.846 90.433L149.066 89.4024L148.276 90.433Z" fill="black"/>
<path d="M142.943 90.433L142.327 89.9803L143.184 89.0461L142.066 88.5838L142.394 87.9288L143.376 88.4104L143.328 87.3413H144.137L144.089 88.4104L145.071 87.9288L145.389 88.5838L144.272 89.0461L145.129 89.9803L144.513 90.433L143.733 89.4024L142.943 90.433Z" fill="black"/>
<path d="M137.61 90.433L136.993 89.9803L137.85 89.0461L136.733 88.5838L137.061 87.9288L138.043 88.4104L137.995 87.3413H138.804L138.756 88.4104L139.738 87.9288L140.056 88.5838L138.939 89.0461L139.796 89.9803L139.18 90.433L138.399 89.4024L137.61 90.433Z" fill="black"/>
<path d="M129.964 103.591L136.176 103.616L135.582 108.295H129.463L129.964 103.591Z" fill="#D9D9D9"/>
<path d="M140.259 103.591L146.471 103.616L145.877 108.295H139.757L140.259 103.591Z" fill="#D9D9D9"/>
<path d="M151.796 103.591L158.008 103.616L157.414 108.295H151.294L151.796 103.591Z" fill="#D9D9D9"/>
<path d="M162.09 103.591L168.302 103.616L167.708 108.295H161.589L162.09 103.591Z" fill="#D9D9D9"/>
<path d="M163.832 96.4201L162.635 96.428L162.629 95.5237C162.626 95.0439 162.433 94.5851 162.094 94.2482C161.756 93.9112 161.298 93.7237 160.821 93.7268C160.345 93.73 159.89 93.9236 159.555 94.2651C159.221 94.6065 159.035 95.0678 159.038 95.5475L159.044 96.4519L157.847 96.4599C157.688 96.4609 157.536 96.5255 157.425 96.6393C157.313 96.7531 157.251 96.9069 157.252 97.0668L157.28 101.287C157.281 101.447 157.345 101.6 157.458 101.712C157.571 101.825 157.724 101.887 157.882 101.886L163.867 101.846C164.026 101.845 164.178 101.781 164.289 101.667C164.401 101.553 164.463 101.399 164.462 101.239L164.434 97.019C164.433 96.8591 164.369 96.7062 164.256 96.5938C164.143 96.4815 163.99 96.419 163.832 96.4201ZM161.158 99.4009L161.164 100.357C161.165 100.437 161.134 100.514 161.078 100.571C161.022 100.628 160.946 100.66 160.867 100.66C160.788 100.661 160.711 100.63 160.655 100.574C160.598 100.517 160.566 100.441 160.566 100.361L160.559 99.4049C160.359 99.3351 160.19 99.1963 160.082 99.013C159.973 98.8297 159.933 98.6137 159.967 98.4032C160.002 98.1927 160.109 98.0013 160.27 97.8627C160.431 97.7241 160.635 97.6473 160.847 97.6459C161.059 97.6445 161.264 97.7186 161.427 97.855C161.59 97.9914 161.7 98.1814 161.737 98.3915C161.774 98.6015 161.736 98.818 161.63 99.0027C161.524 99.1875 161.357 99.3285 161.158 99.4009ZM162.036 96.432L159.642 96.4479L159.636 95.5436C159.634 95.2238 159.758 94.9162 159.981 94.6886C160.204 94.4609 160.508 94.3319 160.825 94.3298C161.143 94.3277 161.448 94.4527 161.674 94.6773C161.9 94.902 162.028 95.2078 162.03 95.5276L162.036 96.432Z" fill="white"/>
<ellipse cx="119.467" cy="206.561" rx="85.8822" ry="6.87054" fill="white"/>
<path d="M167.808 233.171L169.651 244.194H179.814L181.683 233.171H167.808Z" fill="black"/>
<path d="M175.085 209.636C173.876 210.131 172.921 210.869 172.343 211.746L171.294 209.779C170.656 213.297 170.408 216.559 173.559 217.591C172.8 220.225 172.343 222.86 172.095 225.492L170.64 222.758C170.438 221.709 169.959 220.569 169.412 219.407L168.182 224.692C167.672 223.09 167.015 221.506 166.167 219.953C167.899 216.871 167.309 214.921 163.967 214.3C163.93 214.517 163.927 214.966 163.927 214.966L162.52 214.342L162.354 215.757L161.693 215.425C161.309 218.438 161.685 220.769 164.993 220.565C165.252 221.039 165.496 221.521 165.723 222.011L158.23 219.734C160.442 222.96 162.772 225.635 166.194 223.092C166.972 224.993 167.502 226.938 167.875 228.919L163.29 226.053C164.201 228.625 165.286 230.851 168.028 229.792C168.115 230.323 168.191 230.856 168.26 231.392H169.596C169.401 229.827 169.133 228.268 168.753 226.722C169.334 226.43 169.769 226.091 170.08 225.71C170.342 226.509 170.902 227.111 171.951 227.392C171.874 228.727 171.845 230.06 171.85 231.392H173.172C173.171 231.102 173.172 230.813 173.174 230.523C176.139 230.037 175.969 227.494 175.468 224.734L173.206 228.985C173.26 227.296 173.382 225.611 173.601 223.93C177.318 224.289 177.929 221.165 178.211 217.671L173.836 222.366C174.082 220.899 174.406 219.436 174.827 217.976C177.484 218.304 180.268 215.426 180.155 212.985L179.275 213.535C179.2 212.683 178.802 211.717 178.063 210.634C177.529 211.016 177.072 211.531 176.658 212.092L176.368 210.801L175.541 211.842C175.518 211.096 175.387 210.361 175.085 209.636ZM187.982 216.713C187.629 216.713 187.205 216.774 186.691 216.92C185.747 217.188 184.743 217.794 185.107 219.603C183.374 220.539 181.893 221.822 180.701 223.393H180.688C180.69 223.396 180.692 223.399 180.694 223.402C180.638 223.477 180.582 223.551 180.526 223.627L182.159 218.183C178.907 220.447 176.218 222.83 178.943 226.365C178.257 227.884 177.772 229.569 177.505 231.392H180.197C181.933 230.866 182.292 228.794 182.475 226.526L179.067 230.182C179.546 228.004 180.371 226.101 181.502 224.516C184.101 227.521 186.964 225.578 189.856 223.103L182.453 223.337C183.38 222.319 184.459 221.469 185.678 220.806C186.484 221.857 187.688 221.816 188.551 221.363C190.344 220.421 189.785 219.378 191.26 218.09C189.781 218.465 189.89 216.71 187.982 216.713Z" fill="#369CD9"/>
<path d="M65.5352 201.575L67.8501 194.55L72.5603 196.306L70.0057 202.773L65.5352 201.575Z" fill="#FFB573"/>
<path d="M101.596 206.718L100.311 199.434L105.291 198.752L106.101 205.658L101.596 206.718Z" fill="#FFB573"/>
<path d="M63.6279 204.601L63.4404 203.289L65.7368 200.008L70.9388 202.164C72.2476 204.048 73.0359 205.008 74.5006 206.616C74.5006 206.616 75.1547 207.366 75.0161 207.882C74.8221 208.603 73.1884 208.444 73.1884 208.444L63.6279 204.601Z" fill="#263238"/>
<path d="M101.287 211.279L100.505 210.208L100.994 206.234L106.599 205.696C108.639 206.746 109.786 207.223 111.834 207.956C111.834 207.956 112.763 208.311 112.883 208.831C113.05 209.559 111.533 210.186 111.533 210.186L101.287 211.279Z" fill="#263238"/>
<path d="M70.235 85.97C70.1995 87.4155 69.7455 89.6401 69.7455 89.6401L68.3998 89.6402C66.9117 87.0565 66.5473 85.2321 66.259 81.6885L69.8679 81.9943C69.8679 81.9943 70.2732 84.4113 70.235 85.97Z" fill="#FFB573"/>
<path d="M79.1524 163.246C76.8461 149.326 76.6525 141.601 77.7325 127.925L100.806 127.747C102.969 140.159 103.794 147.013 104.356 158.986C105.283 174.859 105.367 183.758 105.421 199.632L99.3866 200.697C96.6533 187.489 94.8361 180.526 93.3518 165.376L91.2219 147.981C89.8746 165.698 85.6113 176.4 72.9402 196.614L67.6155 194.484C69.9621 181.511 72.2551 174.587 79.1524 163.246Z" fill="#496380"/>
<path d="M71.5291 198.97L66.9566 197.082C66.293 196.808 65.9402 196.08 66.1362 195.39C66.3586 194.606 67.1954 194.172 67.964 194.442L72.6322 196.079C73.4505 196.366 73.8735 197.269 73.5701 198.081C73.2637 198.902 72.3385 199.305 71.5291 198.97Z" fill="#FF0000"/>
<path d="M106.516 202.564L100.655 203.326C99.6264 203.46 98.666 202.785 98.4438 201.771L98.2033 200.674L106.237 199.683L106.516 202.564Z" fill="#FF0000"/>
<path d="M81.3813 71.1578C81.962 70.7188 82.2291 70.4153 82.646 69.8087L82.6039 71.8956C82.1113 71.771 81.8349 71.695 81.3813 71.1578Z" fill="black"/>
<path d="M81.8451 67.7219L83.3628 68.0592L82.7093 69.2186L82.5829 68.2278L82.0348 68.0803L81.8451 67.7219Z" fill="black"/>
<ellipse cx="87.5992" cy="71.4584" rx="5.26941" ry="7.36755" fill="#FFB573"/>
<path d="M88.9836 138.977C87.9685 135.867 87.5217 134.052 87.2027 130.541L85.9375 131.197C86.7316 134.608 87.4582 136.256 88.9836 138.977Z" fill="#1B1B1B"/>
<path d="M118.217 99.939C117.642 100.011 116.96 99.939 116.96 99.939L117.93 102.848C120.488 102.815 121.802 102.556 123.639 101.052L123.998 100.154L123.603 98.4309C122.909 97.7956 122.491 97.8189 121.736 98.0718C121.736 98.0718 118.791 99.8672 118.217 99.939Z" fill="#FFB573"/>
<path d="M69.3369 83.643L66.8141 83.683C66.2765 83.6915 65.8283 83.2734 65.7997 82.7365L65.4047 75.3439C65.3741 74.7715 65.83 74.2905 66.4033 74.2905L68.9251 74.2905C69.4565 74.2905 69.8951 74.7062 69.9237 75.2368L70.3196 82.5893C70.3501 83.1557 69.904 83.634 69.3369 83.643Z" fill="#5E5A5A"/>
<path d="M75.0316 102.315C77.2789 99.4988 78.3113 97.678 79.9288 94.1877C81.4507 103.583 81.3968 107.172 80.3457 111.797C77.7478 118.508 76.8445 122.298 75.9696 129.093C79.1548 131.562 81.3787 132.229 86.2849 131.906C92.0315 129.891 95.3734 129.06 102.018 129.301C101.458 123.024 101.314 119.502 98.3715 113.255C98.2797 106.913 98.2515 103.358 100.143 97.001C101.728 100.263 102.841 101.491 104.832 103.669C111.46 106.854 114.01 106.008 118.377 104.086C118.774 102.062 118.787 100.975 117.231 99.3975C111.277 100.412 108.494 99.8012 106.323 94.717L100.451 83.4624C99.5537 82.4291 98.9637 81.9357 96.9681 81.9901L80.6583 82.9346L78.1576 84.3933C75.8626 88.3414 74.8273 90.6139 73.1563 94.7086L70.4472 87.5191C68.8353 87.4848 67.9901 87.5757 66.8003 88.3527C67.4853 94.1401 68.3166 97.1558 70.2387 102.315C72.2007 104.099 73.2355 103.809 75.0316 102.315Z" fill="#FF0000"/>
<path d="M96.0391 63.1356C94.8775 60.9796 92.857 60.4744 90.5308 61.7784C90.5308 61.7784 89.2397 60.9864 88.3752 61.1397C87.6004 61.2772 86.6987 62.2574 86.6987 62.2574C85.309 62.7065 84.6782 63.0169 83.6651 63.6146C83.1393 64.5244 82.9957 65.0517 83.0264 66.0095C83.5301 67.666 83.8649 68.082 84.4634 68.8037C84.4634 68.8037 86.5048 67.4961 87.018 69.2827C87.5313 71.0693 86.4425 71.5573 85.1819 72.3962C85.1819 72.3962 85.4343 77.0158 86.4592 79.7408C87.9432 83.6862 92.3115 85.738 92.8458 88.4425C93.3802 91.1471 94.3201 93.5631 95.7996 94.8292C97.2792 96.0952 99.4937 96.3794 102.106 96.0267L100.35 93.951C102.726 95.5985 103.906 96.0015 105.539 95.0687C104.286 94.7032 103.803 94.3041 103.144 93.1527C106.771 94.1381 108.118 93.7426 109.451 91.556C109.451 91.556 106.874 90.925 105.619 89.8795C103.435 88.06 105.738 85.4578 102.985 83.0937L102.98 83.0897C100.23 80.7281 98.6863 79.4026 97.7156 76.308C97.7156 76.308 97.2007 65.2916 96.0391 63.1356Z" fill="black"/>
<path d="M81.0203 110.031L98.0225 110.417L97.995 112.232L80.7177 111.847L81.0203 110.031Z" fill="#D9D9D9"/>
</g>
</svg>
