<svg width="28" height="28" viewBox="0 0 28 28" fill="none" xmlns="http://www.w3.org/2000/svg">
<path fill-rule="evenodd" clip-rule="evenodd" d="M5.02051 1.151H22.8647C23.8113 1.151 24.719 1.527 25.3883 2.19629C26.0576 2.86558 26.4336 3.77333 26.4336 4.71985V22.5641C26.4336 23.5106 26.0576 24.4184 25.3883 25.0876C24.719 25.7569 23.8113 26.1329 22.8647 26.1329H5.02051C4.07399 26.1329 3.16624 25.7569 2.49695 25.0876C1.82766 24.4184 1.45166 23.5106 1.45166 22.5641V4.71985C1.45166 3.77333 1.82766 2.86558 2.49695 2.19629C3.16624 1.527 4.07399 1.151 5.02051 1.151Z" stroke="white" stroke-width="2" stroke-linecap="round" stroke-linejoin="round"/>
<path d="M26.4336 18.9953L21.0803 13.642L15.7271 18.9685M22.8647 26.133L6.80493 10.0732L1.45166 15.4264" stroke="white" stroke-width="2" stroke-linecap="round" stroke-linejoin="round"/>
</svg>
