<svg width="52" height="19" viewBox="0 0 52 19" fill="none" xmlns="http://www.w3.org/2000/svg">
<rect x="0.775879" y="1.20939" width="50.2947" height="16.7382" fill="white"/>
<path d="M48.6865 3.06846C48.5441 3.06846 48.4346 3.03472 48.358 2.96724C48.284 2.89735 48.2471 2.81421 48.2471 2.71781C48.2471 2.64069 48.2676 2.57321 48.3087 2.51537C48.3525 2.45753 48.4072 2.40571 48.473 2.35992C48.5414 2.31172 48.6153 2.26714 48.6947 2.22617C48.7741 2.18279 48.8522 2.1382 48.9288 2.09241C49.0055 2.04421 49.0712 1.98999 49.126 1.92974L49.512 2.12856C49.4655 2.18881 49.4094 2.24063 49.3437 2.28401C49.2779 2.32498 49.2095 2.36113 49.1383 2.39246C49.0699 2.42138 49.0069 2.44909 48.9494 2.4756C48.8919 2.50211 48.8494 2.52983 48.8221 2.55875L48.5428 2.43945C48.5702 2.42981 48.5975 2.42379 48.6249 2.42138C48.6523 2.41656 48.6824 2.41415 48.7153 2.41415C48.8029 2.41415 48.8755 2.43102 48.933 2.46476C48.9905 2.4985 49.0329 2.54067 49.0603 2.59128C49.0904 2.63948 49.1054 2.68889 49.1054 2.7395C49.1054 2.83831 49.0671 2.91784 48.9905 2.97809C48.9138 3.03834 48.8125 3.06846 48.6865 3.06846ZM48.6865 2.88771C48.7413 2.88771 48.7837 2.87566 48.8138 2.85156C48.844 2.82505 48.859 2.7889 48.859 2.74311C48.859 2.69732 48.844 2.66238 48.8138 2.63828C48.7837 2.61418 48.7413 2.60213 48.6865 2.60213C48.6372 2.60213 48.5975 2.61418 48.5674 2.63828C48.5373 2.66238 48.5222 2.69732 48.5222 2.74311C48.5222 2.7889 48.5373 2.82505 48.5674 2.85156C48.5975 2.87566 48.6372 2.88771 48.6865 2.88771Z" fill="#496380"/>
<path d="M47.2309 5.20692V4.72251C47.2309 4.63093 47.2473 4.5526 47.2802 4.48753C47.3158 4.42005 47.3678 4.36824 47.4362 4.33209C47.5074 4.29353 47.5951 4.27425 47.6991 4.27425V4.29594C47.606 4.29594 47.5211 4.27304 47.4445 4.22725C47.3678 4.17905 47.3062 4.11519 47.2596 4.03566C47.2131 3.95372 47.1898 3.86214 47.1898 3.76092C47.1898 3.58981 47.2364 3.45967 47.3295 3.3705C47.4253 3.28133 47.554 3.23674 47.7155 3.23674C47.8579 3.23674 47.9688 3.27169 48.0482 3.34158C48.1303 3.40906 48.1714 3.49823 48.1714 3.60909C48.1714 3.71754 48.1344 3.8055 48.0605 3.87298C47.9866 3.94046 47.8839 3.9742 47.7525 3.9742C47.6348 3.9742 47.5403 3.94167 47.4691 3.8766C47.3979 3.81153 47.3623 3.72115 47.3623 3.60547H47.4116C47.4116 3.69464 47.4376 3.76815 47.4896 3.82599C47.5444 3.88142 47.6156 3.90913 47.7032 3.90913C47.6977 3.91636 47.695 3.92359 47.695 3.93082C47.695 3.93805 47.695 3.94649 47.695 3.95613C47.695 3.98987 47.7059 4.01879 47.7278 4.04289C47.7498 4.06699 47.7826 4.08506 47.8264 4.09711C47.873 4.10916 47.9277 4.11519 47.9907 4.11519H48.233V4.43692H48.0236C47.9222 4.43692 47.8497 4.46102 47.8059 4.50922C47.7621 4.55501 47.7402 4.61285 47.7402 4.68274V5.0587L47.5061 4.85626H48.3275C48.4534 4.85626 48.5369 4.83216 48.578 4.78396C48.6191 4.73576 48.6396 4.65985 48.6396 4.55622V3.26566H49.1489V4.61044C49.1489 4.74781 49.1243 4.86108 49.075 4.95025C49.0284 5.03701 48.949 5.10208 48.8368 5.14546C48.7272 5.18643 48.5794 5.20692 48.3932 5.20692H47.2309ZM47.7237 3.78261C47.784 3.78261 47.8319 3.76694 47.8675 3.73561C47.9031 3.70187 47.9209 3.65849 47.9209 3.60547C47.9209 3.55245 47.9031 3.51028 47.8675 3.47895C47.8319 3.44521 47.784 3.42834 47.7237 3.42834C47.6608 3.42834 47.6115 3.44521 47.5759 3.47895C47.5403 3.51028 47.5225 3.55245 47.5225 3.60547C47.5225 3.65849 47.5403 3.70187 47.5759 3.73561C47.6115 3.76694 47.6608 3.78261 47.7237 3.78261ZM47.5759 4.25617H47.6252V4.32486H47.5759V4.25617Z" fill="#496380"/>
<path d="M44.3945 5.20692V3.89829C44.4575 3.89829 44.5122 3.88383 44.5588 3.85491C44.608 3.82599 44.6464 3.78984 44.6738 3.74646C44.7039 3.70308 44.7189 3.65608 44.7189 3.60547H44.7764C44.7764 3.72115 44.7422 3.81153 44.6738 3.8766C44.6053 3.94167 44.4958 3.9742 44.3452 3.9742C44.2165 3.9742 44.1138 3.94046 44.0372 3.87298C43.9632 3.8055 43.9263 3.71754 43.9263 3.60909C43.9263 3.49823 43.9673 3.40906 44.0495 3.34158C44.1316 3.27169 44.2453 3.23674 44.3904 3.23674C44.5382 3.23674 44.6573 3.2753 44.7477 3.35242C44.8408 3.42713 44.8873 3.54161 44.8873 3.69585V4.22364C44.8873 4.32968 44.8805 4.43692 44.8668 4.54537C44.8558 4.65141 44.8435 4.75143 44.8298 4.84542H44.7723L45.3555 3.35242H45.5609L46.218 4.84542H46.1482C46.1345 4.75384 46.1208 4.65382 46.1071 4.54537C46.0962 4.43692 46.0907 4.32968 46.0907 4.22364V3.26566H46.5835V5.20692H46.0086L45.3843 3.81876H45.5321L44.9777 5.20692H44.3945ZM44.378 3.78261C44.4383 3.78261 44.4862 3.76815 44.5218 3.73923C44.5601 3.7079 44.5793 3.66331 44.5793 3.60547C44.5793 3.55004 44.5601 3.50666 44.5218 3.47533C44.4862 3.444 44.4383 3.42834 44.378 3.42834C44.3151 3.42834 44.2658 3.444 44.2302 3.47533C44.1946 3.50666 44.1768 3.55004 44.1768 3.60547C44.1768 3.6609 44.1946 3.70428 44.2302 3.73561C44.2658 3.76694 44.3151 3.78261 44.378 3.78261ZM44.8216 4.56345H44.9202V4.61767H44.8216V4.56345ZM45.4089 3.98143H45.5075V4.02481H45.4089V3.98143ZM46.0578 4.56345H46.1564V4.61767H46.0578V4.56345Z" fill="#496380"/>
<path d="M43.2006 3.26492V4.57356C43.1376 4.57356 43.0801 4.58802 43.0281 4.61694C42.9788 4.64586 42.9377 4.68321 42.9049 4.729C42.8747 4.77238 42.8597 4.81817 42.8597 4.86637H42.8063C42.8063 4.7531 42.8391 4.66393 42.9049 4.59886C42.9733 4.53138 43.0828 4.49764 43.2334 4.49764C43.3648 4.49764 43.4675 4.53138 43.5414 4.59886C43.6154 4.66634 43.6523 4.75431 43.6523 4.86276C43.6523 4.97362 43.6113 5.06399 43.5291 5.13388C43.447 5.20136 43.3347 5.2351 43.1923 5.2351C43.0445 5.2351 42.924 5.19654 42.8309 5.11942C42.7378 5.0423 42.6913 4.92783 42.6913 4.776V3.26492H43.2006ZM43.2047 4.68924C43.1417 4.68924 43.0924 4.7049 43.0568 4.73623C43.0212 4.76515 43.0034 4.80853 43.0034 4.86637C43.0034 4.9218 43.0212 4.96518 43.0568 4.99651C43.0924 5.02784 43.1417 5.04351 43.2047 5.04351C43.2649 5.04351 43.3128 5.02784 43.3484 4.99651C43.384 4.96518 43.4018 4.9218 43.4018 4.86637C43.4018 4.81094 43.384 4.76756 43.3484 4.73623C43.3128 4.7049 43.2649 4.68924 43.2047 4.68924Z" fill="#496380"/>
<path d="M40.3417 3.89829C40.4047 3.89829 40.4608 3.88383 40.5101 3.85491C40.5621 3.82599 40.6032 3.78984 40.6333 3.74646C40.6662 3.70308 40.6826 3.65608 40.6826 3.60547H40.736C40.736 3.72115 40.7018 3.81153 40.6333 3.8766C40.5649 3.94167 40.4567 3.9742 40.3088 3.9742C40.1802 3.9742 40.0775 3.94046 40.0008 3.87298C39.9269 3.8055 39.8899 3.71754 39.8899 3.60909C39.8899 3.49823 39.9296 3.40906 40.009 3.34158C40.0912 3.27169 40.2048 3.23674 40.3499 3.23674C40.4978 3.23674 40.6182 3.2753 40.7113 3.35242C40.8044 3.42713 40.851 3.54161 40.851 3.69585V4.27425C40.851 4.32968 40.8524 4.37788 40.8551 4.41885C40.8606 4.45741 40.8674 4.49356 40.8756 4.5273L40.7196 4.38631C40.8811 4.42246 41.0426 4.48151 41.2042 4.56345C41.3657 4.64298 41.5081 4.73938 41.6313 4.85265L41.5163 4.9611V3.26566H42.0256V5.20692H41.4999C41.3986 5.09124 41.2863 4.99845 41.1631 4.92856C41.0426 4.85626 40.9167 4.79963 40.7853 4.75866L40.8838 4.67913C40.9003 4.696 40.9112 4.71769 40.9167 4.7442C40.9222 4.7683 40.9249 4.7924 40.9249 4.8165C40.9249 4.89121 40.9071 4.9611 40.8715 5.02617C40.8359 5.08883 40.7784 5.13944 40.699 5.178C40.6224 5.21656 40.5238 5.23584 40.4033 5.23584C40.239 5.23584 40.1103 5.19848 40.0172 5.12377C39.9269 5.04906 39.8817 4.94543 39.8817 4.81288C39.8817 4.68756 39.9269 4.58634 40.0172 4.50922C40.1103 4.42969 40.2322 4.38993 40.3828 4.38993C40.4156 4.38993 40.4471 4.39113 40.4772 4.39354C40.5101 4.39595 40.5402 4.39957 40.5676 4.40439L40.3951 4.52368C40.3732 4.47789 40.3581 4.4321 40.3499 4.38631C40.3444 4.33811 40.3417 4.2863 40.3417 4.23087V3.89829ZM40.3376 3.78261C40.4006 3.78261 40.4499 3.76815 40.4855 3.73923C40.521 3.7079 40.5388 3.66331 40.5388 3.60547C40.5388 3.55004 40.521 3.50666 40.4855 3.47533C40.4499 3.444 40.4006 3.42834 40.3376 3.42834C40.2774 3.42834 40.2294 3.444 40.1939 3.47533C40.1583 3.50666 40.1405 3.55004 40.1405 3.60547C40.1405 3.6609 40.1583 3.70428 40.1939 3.73561C40.2294 3.76694 40.2774 3.78261 40.3376 3.78261ZM40.3417 5.00809C40.3965 5.00809 40.4375 4.99122 40.4649 4.95748C40.495 4.92374 40.5101 4.87554 40.5101 4.81288C40.5101 4.78155 40.5074 4.75143 40.5019 4.72251C40.4991 4.69359 40.4937 4.66467 40.4855 4.63575C40.4718 4.62852 40.454 4.6237 40.4321 4.62129C40.4129 4.61888 40.391 4.61767 40.3663 4.61767C40.3034 4.61767 40.2527 4.63454 40.2144 4.66828C40.1788 4.70202 40.161 4.75022 40.161 4.81288C40.161 4.87313 40.1761 4.92133 40.2062 4.95748C40.239 4.99122 40.2842 5.00809 40.3417 5.00809ZM41.4958 4.75504L41.5492 4.74058V4.7695L41.4958 4.78396V4.75504Z" fill="#496380"/>
<path d="M39.3213 3.94565V4.61081C39.3213 4.74818 39.2967 4.86145 39.2474 4.95062C39.2008 5.03738 39.1214 5.10245 39.0092 5.14583C38.8996 5.1868 38.7518 5.20729 38.5656 5.20729H37.4238V4.32161C37.4238 4.16737 37.469 4.05289 37.5594 3.97818C37.6525 3.90106 37.7729 3.8625 37.9208 3.8625C38.0659 3.8625 38.1795 3.89745 38.2617 3.96734C38.3438 4.03482 38.3849 4.12399 38.3849 4.23485C38.3849 4.34089 38.3479 4.42886 38.274 4.49875C38.2001 4.56623 38.0974 4.59997 37.966 4.59997C37.8154 4.59997 37.7058 4.56743 37.6374 4.50236C37.5689 4.43488 37.5347 4.34451 37.5347 4.23124H37.5922C37.5922 4.27944 37.6073 4.32643 37.6374 4.37222C37.6675 4.4156 37.7086 4.45175 37.7606 4.48067C37.8126 4.50959 37.8701 4.52405 37.9331 4.52405V4.86025H38.4999C38.6231 4.86025 38.7052 4.83856 38.7463 4.79518C38.7901 4.7518 38.812 4.67709 38.812 4.57105V4.01433C38.812 3.92034 38.7929 3.84081 38.7545 3.77574C38.7189 3.71067 38.6601 3.66127 38.5779 3.62753C38.4958 3.59379 38.3863 3.57692 38.2494 3.57692C38.1234 3.57692 38.0016 3.59138 37.8838 3.6203C37.7688 3.64681 37.6593 3.68296 37.5553 3.72875L37.4238 3.38894C37.5525 3.33592 37.6922 3.29495 37.8427 3.26603C37.9961 3.23711 38.1535 3.22265 38.3151 3.22265C38.6518 3.22265 38.9037 3.28531 39.0708 3.41063C39.2378 3.53595 39.3213 3.71429 39.3213 3.94565ZM37.9331 4.40837C37.9961 4.40837 38.0454 4.39271 38.081 4.36138C38.1166 4.33005 38.1344 4.28667 38.1344 4.23124C38.1344 4.17581 38.1166 4.13242 38.081 4.10109C38.0454 4.06976 37.9961 4.0541 37.9331 4.0541C37.8729 4.0541 37.8236 4.06976 37.7853 4.10109C37.7497 4.13242 37.7319 4.17581 37.7319 4.23124C37.7319 4.28908 37.7497 4.33366 37.7853 4.36499C37.8236 4.39391 37.8729 4.40837 37.9331 4.40837Z" fill="#496380"/>
<path d="M36.0881 3.06738C35.9895 3.06738 35.8978 3.06618 35.8129 3.06377C35.728 3.05895 35.6418 3.05292 35.5542 3.04569V2.85771C35.6445 2.85048 35.7212 2.8312 35.7842 2.79987C35.8471 2.76854 35.8786 2.72637 35.8786 2.67335V2.64443C35.9662 2.64443 36.0361 2.62274 36.0881 2.57936C36.1401 2.53598 36.1661 2.48296 36.1661 2.4203H36.2647C36.2647 2.50947 36.2291 2.58297 36.1579 2.64081C36.0894 2.69865 35.995 2.72757 35.8745 2.72757C35.7623 2.72757 35.6705 2.70106 35.5993 2.64804C35.5281 2.59261 35.4926 2.5167 35.4926 2.4203C35.4926 2.32149 35.5309 2.24557 35.6076 2.19255C35.6842 2.13712 35.7814 2.10941 35.8992 2.10941C36.0388 2.10941 36.1469 2.14315 36.2236 2.21063C36.3003 2.27811 36.3386 2.36246 36.3386 2.46368C36.3386 2.55285 36.3071 2.63599 36.2441 2.71311C36.1839 2.79023 36.11 2.8553 36.0224 2.90832L35.9402 2.77818C35.9703 2.783 36.0005 2.78662 36.0306 2.78903C36.0607 2.78903 36.0894 2.78903 36.1168 2.78903C36.251 2.78903 36.3633 2.76252 36.4536 2.7095C36.5467 2.65648 36.6193 2.58056 36.6713 2.48175C36.726 2.38053 36.7616 2.26244 36.7781 2.12748L37.1806 2.19617C37.1587 2.31908 37.1231 2.43476 37.0738 2.54321C37.0245 2.64925 36.956 2.74203 36.8684 2.82156C36.7835 2.89868 36.6768 2.95893 36.5481 3.00231C36.4194 3.04569 36.2661 3.06738 36.0881 3.06738ZM35.8868 2.55767C35.9416 2.55767 35.984 2.54562 36.0142 2.52152C36.0443 2.49742 36.0593 2.46368 36.0593 2.4203C36.0593 2.37692 36.0443 2.34318 36.0142 2.31908C35.984 2.29498 35.9416 2.28293 35.8868 2.28293C35.8375 2.28293 35.7978 2.29498 35.7677 2.31908C35.7376 2.34318 35.7226 2.37692 35.7226 2.4203C35.7226 2.46368 35.7376 2.49742 35.7677 2.52152C35.7978 2.54562 35.8375 2.55767 35.8868 2.55767Z" fill="#496380"/>
<path d="M36.7521 4.29955V4.77673C36.7521 4.92856 36.7056 5.04304 36.6125 5.12016C36.5221 5.19728 36.4016 5.23584 36.251 5.23584C36.1087 5.23584 35.9964 5.2021 35.9143 5.13462C35.8321 5.06473 35.7911 4.97435 35.7911 4.86349C35.7911 4.75504 35.828 4.66708 35.9019 4.5996C35.9786 4.53212 36.0813 4.49838 36.21 4.49838C36.3606 4.49838 36.4687 4.53212 36.5344 4.5996C36.6029 4.66467 36.6371 4.75384 36.6371 4.86711H36.5837C36.5837 4.81891 36.5687 4.77312 36.5385 4.72974C36.5084 4.68395 36.4674 4.64659 36.4153 4.61767C36.3633 4.58875 36.3058 4.57429 36.2428 4.57429V4.36462C36.2428 4.30919 36.2291 4.26943 36.2018 4.24533C36.1771 4.21882 36.1278 4.20315 36.0539 4.19833L35.1462 4.13688V3.82599C35.1462 3.63319 35.2133 3.48738 35.3475 3.38857C35.4817 3.28735 35.6637 3.23674 35.8937 3.23674C35.9868 3.23674 36.0662 3.24036 36.1319 3.24759C36.1977 3.25482 36.2593 3.26325 36.3168 3.27289C36.377 3.28012 36.4413 3.28374 36.5098 3.28374C36.5673 3.28374 36.6234 3.28253 36.6782 3.28012C36.7329 3.2753 36.7822 3.26807 36.826 3.25843L36.8794 3.60909C36.8274 3.62114 36.7767 3.62957 36.7275 3.63439C36.6782 3.63921 36.6193 3.64162 36.5509 3.64162C36.455 3.64162 36.3551 3.63439 36.251 3.61993C36.1497 3.60306 36.0566 3.59463 35.9718 3.59463C35.8622 3.59463 35.7801 3.6115 35.7253 3.64524C35.6733 3.67898 35.6473 3.732 35.6473 3.8043V3.84406L36.251 3.88744C36.377 3.89708 36.4756 3.91877 36.5468 3.95251C36.6207 3.98384 36.6727 4.02963 36.7028 4.08988C36.7357 4.14772 36.7521 4.21761 36.7521 4.29955ZM36.2428 4.68997C36.1799 4.68997 36.1306 4.70564 36.095 4.73697C36.0594 4.7683 36.0416 4.81168 36.0416 4.86711C36.0416 4.92254 36.0594 4.96592 36.095 4.99725C36.1306 5.02858 36.1799 5.04424 36.2428 5.04424C36.3031 5.04424 36.351 5.02858 36.3866 4.99725C36.4222 4.96592 36.44 4.92254 36.44 4.86711C36.44 4.80927 36.4222 4.76589 36.3866 4.73697C36.351 4.70564 36.3031 4.68997 36.2428 4.68997Z" fill="#496380"/>
<path d="M32.4824 5.20692V3.89829C32.5453 3.89829 32.6001 3.88383 32.6466 3.85491C32.6959 3.82599 32.7343 3.78984 32.7616 3.74646C32.7918 3.70308 32.8068 3.65608 32.8068 3.60547H32.8643C32.8643 3.72115 32.8301 3.81153 32.7616 3.8766C32.6932 3.94167 32.5837 3.9742 32.4331 3.9742C32.3044 3.9742 32.2017 3.94046 32.1251 3.87298C32.0511 3.8055 32.0142 3.71754 32.0142 3.60909C32.0142 3.49823 32.0552 3.40906 32.1374 3.34158C32.2195 3.27169 32.3331 3.23674 32.4783 3.23674C32.6261 3.23674 32.7452 3.2753 32.8356 3.35242C32.9287 3.42713 32.9752 3.54161 32.9752 3.69585V4.22364C32.9752 4.32968 32.9684 4.43692 32.9547 4.54537C32.9437 4.65141 32.9314 4.75143 32.9177 4.84542H32.8602L33.4434 3.35242H33.6488L34.3059 4.84542H34.2361C34.2224 4.75384 34.2087 4.65382 34.195 4.54537C34.1841 4.43692 34.1786 4.32968 34.1786 4.22364V3.26566H34.6714V5.20692H34.0964L33.4722 3.81876H33.62L33.0656 5.20692H32.4824ZM32.4659 3.78261C32.5262 3.78261 32.5741 3.76815 32.6097 3.73923C32.648 3.7079 32.6672 3.66331 32.6672 3.60547C32.6672 3.55004 32.648 3.50666 32.6097 3.47533C32.5741 3.444 32.5262 3.42834 32.4659 3.42834C32.403 3.42834 32.3537 3.444 32.3181 3.47533C32.2825 3.50666 32.2647 3.55004 32.2647 3.60547C32.2647 3.6609 32.2825 3.70428 32.3181 3.73561C32.3537 3.76694 32.403 3.78261 32.4659 3.78261ZM32.9095 4.56345H33.0081V4.61767H32.9095V4.56345ZM33.4968 3.98143H33.5954V4.02481H33.4968V3.98143ZM34.1457 4.56345H34.2443V4.61767H34.1457V4.56345Z" fill="#496380"/>
<path fill-rule="evenodd" clip-rule="evenodd" d="M51.2705 0.902954H0.652344V18.2418H51.2705V0.902954ZM50.6883 1.63566H1.21821V17.5055H50.6883V1.63566Z" fill="#496380"/>
<rect x="3.43628" y="5.91601" width="27.5259" height="7.93494" fill="#496380"/>
<path d="M29.488 12.0238C29.0916 12.0238 28.7943 11.9167 28.5961 11.7024C28.4031 11.4828 28.3066 11.1855 28.3066 10.8105V8.81769H27.7589V8.13468H28.3066L28.3273 7.01232L29.1516 6.99366V8.13468H30.1374L30.0826 8.81769H29.1516V10.7623C29.1516 10.9819 29.2011 11.1372 29.3002 11.2283C29.3993 11.314 29.561 11.3569 29.7853 11.3569C29.9261 11.3569 30.0748 11.3301 30.2313 11.2765V11.8952C30.0278 11.981 29.7801 12.0238 29.488 12.0238Z" fill="white"/>
<path d="M23.5146 12.8467L23.5182 8.13441L24.2619 8.14267L24.2617 8.51671C24.4286 8.36136 24.65 8.24155 24.8482 8.16655C25.0464 8.09156 25.2811 8.05406 25.5524 8.05406C26.0844 8.05406 26.4991 8.20405 26.7964 8.50404C27.0937 8.79867 27.2423 9.28883 27.2423 9.97452C27.2423 10.6602 27.0885 11.1745 26.7807 11.5173C26.473 11.8548 26.0531 12.0235 25.5211 12.0235C25.0725 12.0235 24.6891 11.9164 24.371 11.7021V12.8382L23.5146 12.8467ZM25.302 11.3646C26.0218 11.3646 26.3817 10.8986 26.3817 9.96648C26.3817 9.5165 26.3009 9.19776 26.1392 9.01027C25.9775 8.81742 25.7062 8.721 25.3255 8.721C24.9447 8.721 24.6265 8.85492 24.371 9.12276V11.0272C24.4909 11.1289 24.6239 11.212 24.77 11.2762C24.9212 11.3352 25.0986 11.3646 25.302 11.3646Z" fill="white"/>
<path d="M16.8174 11.9432V8.13441H17.5998L17.6389 8.53618C17.8214 8.38619 18.0223 8.26834 18.2413 8.18262C18.4604 8.09691 18.6951 8.05406 18.9455 8.05406C19.2115 8.05406 19.4175 8.09959 19.5636 8.19066C19.7148 8.27637 19.8296 8.3969 19.9078 8.55225C20.0799 8.40762 20.2782 8.28976 20.5024 8.1987C20.7267 8.10227 20.9953 8.05406 21.3083 8.05406C21.736 8.05406 22.0516 8.16655 22.255 8.39154C22.4584 8.61654 22.5601 8.96206 22.5601 9.42811V11.9432H21.723V9.5165C21.723 9.22187 21.663 9.01563 21.543 8.89777C21.4231 8.77992 21.2275 8.721 20.9562 8.721C20.7789 8.721 20.6094 8.75314 20.4477 8.81742C20.2912 8.8817 20.1556 8.97813 20.0408 9.10669C20.0565 9.16562 20.0669 9.22722 20.0721 9.29151C20.0773 9.35579 20.0799 9.42543 20.0799 9.50043V11.9432H19.2897V9.52453C19.2897 9.24597 19.2428 9.04241 19.1489 8.91384C19.055 8.78528 18.8777 8.721 18.6169 8.721C18.4343 8.721 18.2596 8.76653 18.0927 8.8576C17.931 8.94331 17.7849 9.04777 17.6545 9.17098V11.9432H16.8174Z" fill="white"/>
<path d="M14.0471 12.0235C13.3795 12.0235 12.8892 11.8521 12.5762 11.5093C12.2685 11.1664 12.1146 10.6763 12.1146 10.0388C12.1146 9.40132 12.2711 8.91117 12.5841 8.56832C12.897 8.22548 13.3847 8.05406 14.0471 8.05406C14.7148 8.05406 15.2051 8.22548 15.518 8.56832C15.831 8.91117 15.9875 9.40132 15.9875 10.0388C15.9875 10.6763 15.831 11.1664 15.518 11.5093C15.2103 11.8521 14.72 12.0235 14.0471 12.0235ZM14.0471 11.2843C14.4383 11.2843 14.7148 11.1879 14.8765 10.995C15.0434 10.7968 15.1268 10.4781 15.1268 10.0388C15.1268 9.59953 15.0434 9.28347 14.8765 9.09062C14.7148 8.89777 14.4383 8.80135 14.0471 8.80135C13.6611 8.80135 13.3847 8.89777 13.2178 9.09062C13.0561 9.28347 12.9753 9.59953 12.9753 10.0388C12.9753 10.4781 13.0561 10.7968 13.2178 10.995C13.3847 11.1879 13.6611 11.2843 14.0471 11.2843Z" fill="white"/>
<path d="M9.6123 11.9432V8.13441H10.3947L10.4416 8.57636C10.619 8.45851 10.8302 8.35137 11.0754 8.25494C11.3205 8.15852 11.5631 8.09156 11.803 8.05406V8.721C11.6569 8.74778 11.4979 8.78796 11.3257 8.84153C11.1588 8.88974 10.9997 8.94599 10.8485 9.01027C10.6972 9.0692 10.5694 9.1308 10.4651 9.19508V11.9432H9.6123Z" fill="white"/>
<path fill-rule="evenodd" clip-rule="evenodd" d="M4.99792 7.87514V11.9402H5.85073V10.1965H7.21209C7.7389 10.1965 8.15617 10.0411 8.46391 9.73044C8.77687 9.41974 8.93335 9.00725 8.93335 8.49299C8.93335 8.16086 8.87336 7.86623 8.7534 7.6091C8.63343 7.34661 8.44826 7.14037 8.1979 6.99037C7.94753 6.84038 7.62936 6.76538 7.24338 6.76538H4.99792V7.44178H6.1861V7.44839H7.09473C7.42333 7.44839 7.66848 7.53946 7.83018 7.72159C7.99709 7.90373 8.08054 8.16086 8.08054 8.49299C8.08054 8.80369 7.99448 9.05011 7.82235 9.23224C7.65023 9.41438 7.39465 9.50545 7.05561 9.50545H5.85073V7.87514H4.99792Z" fill="white"/>
<path d="M45.2975 14.6588C45.0381 14.6588 44.8148 14.6444 44.6274 14.6156C44.4473 14.594 44.2672 14.5472 44.0871 14.4751V13.2647C44.2096 13.3079 44.3212 13.3367 44.4221 13.3511C44.5302 13.3655 44.6382 13.3727 44.7463 13.3727C45.0417 13.3727 45.2615 13.3187 45.4056 13.2106C45.5569 13.1098 45.7082 12.926 45.8595 12.6594L43.5575 7.63393H45.384L46.7349 10.887L48.0642 7.63393H49.8799L47.9237 12.3352C47.7292 12.8035 47.5131 13.2106 47.2753 13.5565C47.0375 13.9095 46.7601 14.1797 46.4431 14.367C46.1261 14.5616 45.7442 14.6588 45.2975 14.6588Z" fill="#496380"/>
<path d="M39.8004 12.8637C39.4762 12.8637 39.1736 12.806 38.8926 12.6907C38.6188 12.5754 38.399 12.3989 38.2333 12.1612C38.0676 11.9162 37.9847 11.6136 37.9847 11.2533C37.9847 10.7274 38.1613 10.3167 38.5143 10.0213C38.8746 9.71865 39.4113 9.56735 40.1246 9.56735H41.5512V9.44847C41.5512 9.18909 41.4648 9.00536 41.2919 8.89728C41.1189 8.782 40.7947 8.72436 40.3192 8.72436C39.7356 8.72436 39.1628 8.81442 38.6008 8.99455V7.87056C38.8529 7.76969 39.1592 7.68684 39.5194 7.62199C39.8869 7.55715 40.2723 7.52472 40.6758 7.52472C41.4684 7.52472 42.088 7.68684 42.5347 8.01106C42.9886 8.33529 43.2156 8.85045 43.2156 9.55654V12.7556H41.6917L41.6053 12.3233C41.4179 12.4962 41.1766 12.6295 40.8812 12.7232C40.593 12.8168 40.2327 12.8637 39.8004 12.8637ZM40.3516 11.7937C40.6254 11.7937 40.8632 11.7469 41.0649 11.6532C41.2666 11.5595 41.4287 11.4407 41.5512 11.2966V10.5725H40.3192C39.8076 10.5725 39.5518 10.7778 39.5518 11.1885C39.5518 11.3758 39.6167 11.5235 39.7464 11.6316C39.8761 11.7397 40.0778 11.7937 40.3516 11.7937Z" fill="#496380"/>
<path d="M31.8579 12.755V5.79497H35.2839C35.8387 5.79497 36.2962 5.90665 36.6565 6.13001C37.0167 6.34616 37.2833 6.64156 37.4562 7.01622C37.6363 7.39089 37.7264 7.81238 37.7264 8.28071C37.7264 8.75624 37.6255 9.17773 37.4238 9.54519C37.2221 9.91265 36.9339 10.2008 36.5592 10.4098C36.1917 10.6115 35.7522 10.7124 35.2407 10.7124H33.5979V12.755H31.8579ZM33.5979 9.37227H34.8516C35.2191 9.37227 35.4928 9.2714 35.673 9.06966C35.8603 8.86792 35.954 8.60133 35.954 8.2699C35.954 7.90965 35.8675 7.63225 35.6946 7.43772C35.5289 7.23598 35.2659 7.13511 34.9056 7.13511H33.5979V9.37227Z" fill="#496380"/>
</svg>
