<svg width="32" height="32" viewBox="0 0 32 32" fill="none" xmlns="http://www.w3.org/2000/svg">
<path fill-rule="evenodd" clip-rule="evenodd" d="M11.2947 0.585693H6.54395C3.23024 0.585693 0.543945 3.27199 0.543945 6.58569V11.3366H1.54395V6.58569C1.54395 3.82427 3.78252 1.58569 6.54395 1.58569H11.2947V0.585693ZM20.9762 1.58569V0.585693H25.7271C29.0408 0.585693 31.7271 3.27199 31.7271 6.58569V11.3366H30.7271V6.58569C30.7271 3.82427 28.4885 1.58569 25.7271 1.58569H20.9762ZM20.9762 30.7688H25.7271C28.4885 30.7688 30.7271 28.5302 30.7271 25.7688V21.018H31.7271V25.7688C31.7271 29.0825 29.0408 31.7688 25.7271 31.7688H20.9762V30.7688ZM1.54395 21.018V25.7688C1.54395 28.5302 3.78252 30.7688 6.54395 30.7688H11.2947V31.7688H6.54395C3.23024 31.7688 0.543945 29.0825 0.543945 25.7688V21.018H1.54395Z" fill="white"/>
<circle cx="15.7843" cy="10.9991" r="3.98837" stroke="white"/>
<path d="M10.114 24.5644V20.7344C10.1673 18.4956 13.226 17.6224 13.226 17.6224C13.226 17.6224 16.2943 17.2361 18.1932 17.6224C19.3851 17.7781 21.4547 19.296 21.4547 20.8839V24.5046" stroke="white"/>
</svg>
