<svg width="63" height="57" viewBox="0 0 63 57" fill="none" xmlns="http://www.w3.org/2000/svg">
<path d="M53.7034 24.9365H51.5166V21.7949C51.5166 11.4834 43.1747 3.09376 32.9227 3.09376H29.2151C18.9648 3.09376 10.622 11.4834 10.622 21.7949V24.9365H8.43335V21.7949C8.43335 10.2701 17.7569 0.894257 29.2151 0.894257H32.9227C44.3808 0.894257 53.7034 10.2692 53.7034 21.7949V24.9365Z" fill="#F4D242"/>
<path d="M54.1541 25.3871H51.0658V21.7949C51.0658 11.7312 42.9268 3.54439 32.9226 3.54439H29.215C19.2109 3.54439 11.0727 11.7312 11.0727 21.7949V25.3871H7.98259V21.7949C7.98259 10.0212 17.5072 0.443451 29.215 0.443451H32.9226C44.6296 0.443451 54.1541 10.0212 54.1541 21.7949V25.3871ZM51.9672 24.4856H53.2527V21.7949C53.2527 10.5188 44.1329 1.34489 32.9226 1.34489H29.215C18.0039 1.34489 8.88403 10.5188 8.88403 21.7949V24.4856H10.1713V21.7949C10.1713 11.2345 18.7151 2.64295 29.215 2.64295H32.9226C43.4234 2.64295 51.9672 11.2345 51.9672 21.7949V24.4856Z" fill="#E5953E"/>
<path d="M44.3213 52.7898H38.1996V51.5278H44.3213C46.5361 51.5278 49.125 49.8006 49.9751 47.7553L50.1526 47.328C51.1055 45.0383 51.7103 43.5203 51.8338 43.1724L51.8518 43.1219C51.8528 43.1183 51.8536 43.1156 51.8545 43.1129L51.8816 43.1219H53.0967V43.2652C53.0967 43.3977 53.0967 43.5366 51.3182 47.813L51.1397 48.2402C50.0976 50.748 47.0382 52.7898 44.3213 52.7898Z" fill="#E5953E"/>
<path d="M59.2003 25.7669C57.6047 23.7729 54.9644 23.5981 54.9644 23.5981C54.0224 23.3619 53.1336 23.379 52.3448 23.5972V46.9002C53.1336 47.1183 54.0224 47.1364 54.9644 46.8993C54.9644 46.8993 57.6056 46.7253 59.2003 44.7295C60.7967 42.7346 62.1002 38.4699 62.1002 35.2491C62.1002 32.0283 60.7967 27.7627 59.2003 25.7669Z" fill="#369CD9"/>
<path d="M49.1502 28.1637V42.3316C49.1502 44.6699 50.4528 46.3755 52.344 46.8992V23.5971C50.4537 24.1208 49.1502 25.8254 49.1502 28.1637Z" fill="#3D3A70"/>
<path d="M7.17305 23.5978C7.17305 23.5978 4.53093 23.7727 2.93449 25.7667C1.34075 27.7625 0.036377 32.0281 0.036377 35.2489C0.036377 38.4697 1.34075 42.7344 2.93449 44.7293C4.53093 46.7251 7.17305 46.8991 7.17305 46.8991C8.11505 47.1361 9.00296 47.1181 9.79172 46.9V23.5969C9.00296 23.3788 8.11505 23.3617 7.17305 23.5978Z" fill="#369CD9"/>
<path d="M9.79173 23.5971V46.9001C11.682 46.3764 12.9873 44.6699 12.9873 42.3325V28.1637C12.9873 25.8254 11.682 24.1208 9.79173 23.5971Z" fill="#3D3A70"/>
<path d="M39.293 52.158C39.293 54.2998 36.4851 56.0341 33.0181 56.0341C29.5512 56.0341 28.4533 54.2998 28.4533 52.158C28.4533 50.0189 29.5521 48.2836 33.0181 48.2836C36.4842 48.2836 39.293 50.0189 39.293 52.158Z" fill="#F4D242"/>
<path d="M40.3846 52.2491C40.3846 52.2491 40.372 52.3663 40.3441 52.5836C40.3351 52.6836 40.2684 52.9586 40.2016 53.1938C40.1223 53.4255 40.0259 53.6491 39.8862 53.8915C39.3408 54.8741 38.1716 55.7882 36.696 56.3002C35.9586 56.5598 35.141 56.7338 34.2747 56.805C33.8186 56.8374 33.449 56.851 32.8946 56.8275C32.4664 56.7716 32.0761 56.768 31.592 56.668C30.5815 56.4696 29.571 56.0397 28.831 55.1806C28.0918 54.3125 27.8727 53.1632 27.9052 52.1599L27.9809 51.4216C28.0179 51.1782 28.108 50.8943 28.1747 50.6374C28.3559 50.1299 28.611 49.6611 28.9815 49.2762C29.7243 48.51 30.714 48.1764 31.6155 48.0556C32.5331 47.9664 33.385 47.9619 34.2053 48.1007C35.0202 48.2242 35.7684 48.4406 36.4255 48.7236C37.7425 49.2843 38.6548 50.1506 39.0082 50.9069C39.3778 51.6641 39.2669 52.1698 39.293 52.159L40.3846 52.2491ZM39.6211 52.186C39.5968 52.1995 39.3399 51.6569 38.9252 50.9529C38.5295 50.2479 37.5938 49.4862 36.3002 49.0445C35.6557 48.821 34.9256 48.6677 34.1503 48.6073C33.3841 48.5325 32.5376 48.6028 31.7309 48.7416C30.9232 48.9102 30.1461 49.2699 29.6458 49.872C29.3961 50.1686 29.2303 50.5427 29.1248 50.9168C29.0969 51.116 29.0383 51.2783 29.0229 51.4991L29.0004 52.1599C29.0374 53.0135 29.2871 53.8077 29.7982 54.3134C30.3021 54.8209 31.0557 55.0832 31.7561 55.1734C32.1275 55.2302 32.6026 55.2121 33.0082 55.2338C33.2931 55.2167 33.7438 55.1824 34.0836 55.1274C34.8075 55.0138 35.4655 54.8173 36.0289 54.5703C38.1996 54.0484 39.275 51.5703 39.275 51.5703L39.6211 52.186Z" fill="#E5953E"/>
<path d="M42.0361 21.1361C37.6272 17.1356 23.7595 17.4871 19.7805 21.9186C15.8052 26.3519 16.1541 33.1892 20.5585 37.1871C21.8142 38.3229 23.5458 39.0946 25.4704 39.5345L27.9475 45.8508L29.2943 39.9599C33.1885 39.9716 40.6821 38.78 42.8158 36.4029C46.793 31.9714 46.4423 25.1358 42.0361 21.1361Z" fill="#FFC021"/>
<path d="M28.0611 47.3769L25.1369 39.9202C23.1348 39.4307 21.4518 38.6041 20.2565 37.5233C15.6745 33.3641 15.3103 26.2301 19.4452 21.6184C21.9052 18.878 27.367 17.9008 31.6578 17.9008C36.3435 17.9008 40.3368 18.9862 42.3398 20.8035C46.9236 24.9627 47.2878 32.0958 43.152 36.7057C40.8651 39.2541 33.421 40.3529 29.6548 40.4106L28.0611 47.3769ZM31.6569 18.8014C26.5097 18.8014 21.98 20.1427 20.1149 22.2196C16.31 26.4618 16.6444 33.0269 20.8604 36.8535C21.9872 37.8731 23.6161 38.6483 25.5704 39.0954L25.803 39.1486L27.8339 44.3264L28.9355 39.5083L29.2952 39.5092H29.297C33.5563 39.5092 40.5856 38.2129 42.4805 36.1017C46.2863 31.8605 45.951 25.2971 41.7332 21.4696C39.9195 19.8245 36.0586 18.8014 31.6569 18.8014Z" fill="#F2A416"/>
<path d="M38.9181 26.4571H24.0705C23.7216 26.4571 23.4395 26.1749 23.4395 25.8261C23.4395 25.4772 23.7216 25.1951 24.0705 25.1951H38.9181C39.2669 25.1951 39.549 25.4772 39.549 25.8261C39.549 26.1749 39.266 26.4571 38.9181 26.4571Z" fill="#3D3A70"/>
<path d="M38.9181 29.8934H24.0705C23.7216 29.8934 23.4395 29.6112 23.4395 29.2624C23.4395 28.9135 23.7216 28.6313 24.0705 28.6313H38.9181C39.2669 28.6313 39.549 28.9135 39.549 29.2624C39.549 29.6112 39.266 29.8934 38.9181 29.8934Z" fill="#3D3A70"/>
<path d="M38.9181 33.3305H24.0705C23.7216 33.3305 23.4395 33.0484 23.4395 32.6995C23.4395 32.3507 23.7216 32.0685 24.0705 32.0685H38.9181C39.2669 32.0685 39.549 32.3507 39.549 32.6995C39.549 33.0484 39.266 33.3305 38.9181 33.3305Z" fill="#3D3A70"/>
</svg>
