<svg width="64" height="64" viewBox="0 0 64 64" fill="none" xmlns="http://www.w3.org/2000/svg">
<path d="M2.05612 11.3805L0.67872 14.7533C0.166201 16.0083 0.773665 17.4543 2.0286 17.9667L3.96594 18.7579C3.70343 20.5474 3.71979 22.3403 3.99313 24.0802L2.06308 24.8911C0.81334 25.416 0.220359 26.8681 0.745257 28.1177L2.15626 31.4767C2.68127 32.7264 4.13328 33.3194 5.38291 32.7944L7.31296 31.9837C8.36419 33.3969 9.63305 34.6636 11.0948 35.7289L10.3036 37.6663C9.79111 38.9212 10.3986 40.3672 11.6534 40.8797L15.0263 42.2572C16.2812 42.7697 17.7273 42.1622 18.2397 40.9073L19.0308 38.9699C20.8204 39.2324 22.6133 39.2161 24.3532 38.9427L25.1639 40.8728C25.6889 42.1225 27.1409 42.7155 28.3906 42.1905L31.7495 40.7795C32.9993 40.2546 33.5923 38.8025 33.0672 37.5529L32.2565 35.6228C33.6697 34.5715 34.9365 33.3027 36.0018 31.841L37.9391 32.6321C39.194 33.1447 40.6401 32.5372 41.1525 31.2823L42.5299 27.9094C43.0424 26.6544 42.4351 25.2085 41.1801 24.696L39.2428 23.9048C39.5053 22.1154 39.4889 20.3225 39.2156 18.5825L41.1455 17.7717C42.3953 17.2467 42.9883 15.7947 42.4632 14.5451L41.0522 11.1861C40.5272 9.93639 39.0752 9.3434 37.8256 9.8683L35.8955 10.6791C34.8442 9.26593 33.5754 7.99916 32.1137 6.93389L32.9049 4.99656C33.4174 3.74162 32.8099 2.29558 31.555 1.78306L28.1821 0.40565C26.9272 -0.106869 25.4812 0.500598 24.9687 1.75542L24.1775 3.69276C22.388 3.43026 20.5951 3.44662 18.8551 3.71995L18.0444 1.78991C17.5193 0.540168 16.0673 -0.0527048 14.8177 0.472194L11.4588 1.8832C10.209 2.4082 9.61603 3.86022 10.141 5.10996L10.9518 7.03999C9.53855 8.09123 8.27179 9.3601 7.20652 10.8218L5.26918 10.0307C4.01457 9.51815 2.56864 10.1255 2.05612 11.3805ZM10.7432 16.8958C13.1929 10.8973 20.0415 8.02039 26.0401 10.47C32.0386 12.9198 34.9154 19.7684 32.4657 25.7669C30.0161 31.7654 23.1675 34.6423 17.169 32.1926C11.1703 29.7429 8.29345 22.8943 10.7432 16.8958Z" fill="#F4D242"/>
<path d="M36.704 34.3252L34.6636 36.1602C33.9044 36.8431 33.8419 38.0227 34.5247 38.7819L35.5788 39.954C34.8137 41.0812 34.2366 42.3022 33.8512 43.5716L32.2765 43.4881C31.257 43.4342 30.3786 44.224 30.3245 45.2436L30.1793 47.984C30.1252 49.0036 30.9153 49.882 31.9348 49.936L33.5095 50.0195C33.7586 51.3226 34.2034 52.5976 34.845 53.7994L33.6729 54.8535C32.9137 55.5362 32.8513 56.716 33.534 57.4751L35.369 59.5155C36.0517 60.2747 37.2315 60.3373 37.9906 59.6545L39.1627 58.6005C40.2899 59.3655 41.5109 59.9426 42.7802 60.3281L42.6968 61.9027C42.6427 62.9223 43.4327 63.8007 44.4523 63.8547L47.1926 63.9998C48.2123 64.0539 49.0906 63.2639 49.1447 62.2443L49.2281 60.6697C50.5313 60.4206 51.8064 59.9758 53.0081 59.3342L54.0622 60.5063C54.7449 61.2655 55.9247 61.328 56.6838 60.6452L58.7243 58.8102C59.4834 58.1275 59.5459 56.9477 58.8632 56.1886L57.8092 55.0165C58.5743 53.8894 59.1514 52.6684 59.5368 51.399L61.1113 51.4824C62.131 51.5365 63.0093 50.7465 63.0634 49.7269L63.2085 46.9866C63.2626 45.9669 62.4726 45.0886 61.453 45.0345L59.8784 44.9511C59.6292 43.6481 59.1845 42.3729 58.5429 41.1711L59.7149 40.1171C60.4741 39.4343 60.5367 38.2546 59.854 37.4954L58.0189 35.455C57.3361 34.6958 56.1564 34.6333 55.3973 35.316L54.2252 36.3701C53.0979 35.605 51.8769 35.028 50.6075 34.6424L50.691 33.0679C50.745 32.0482 49.9551 31.1699 48.9354 31.1159L46.1951 30.9707C45.1755 30.9166 44.2971 31.7066 44.2431 32.7262L44.1596 34.3008C42.8566 34.55 41.5815 34.9947 40.3797 35.6363L39.3257 34.4643C38.6428 33.7051 37.4631 33.6426 36.704 34.3252ZM40.7847 40.9147C44.4135 37.6512 50.0008 37.9472 53.2644 41.5761C56.5278 45.2049 56.2317 50.7923 52.603 54.0557C48.9741 57.3193 43.3868 57.0232 40.1233 53.3944C36.8597 49.7656 37.1559 44.1782 40.7847 40.9147Z" fill="#E5953E"/>
</svg>
