<svg width="12" height="15" viewBox="0 0 12 15" fill="none" xmlns="http://www.w3.org/2000/svg">
<path fill-rule="evenodd" clip-rule="evenodd" d="M6.87657 3.12898C6.87657 1.90736 7.87246 0.916114 9.09939 0.916114C9.39069 0.915415 9.67927 0.972099 9.94866 1.08293C10.2181 1.19376 10.463 1.35656 10.6694 1.56205C10.8759 1.76753 11.0399 2.01167 11.152 2.28052C11.2641 2.54938 11.3222 2.83769 11.3229 3.12898C11.3229 4.35127 10.327 5.34251 9.09939 5.34251C8.805 5.34288 8.51347 5.28472 8.24175 5.17143C7.97003 5.05813 7.72353 4.89196 7.51659 4.68257L4.43929 6.77792C4.525 7.20483 4.48297 7.64752 4.31846 8.05067L7.69253 10.2682C8.08994 9.94408 8.58724 9.76744 9.10006 9.76825C9.39136 9.76764 9.67992 9.82441 9.94928 9.93532C10.2186 10.0462 10.4635 10.2091 10.6699 10.4147C10.8763 10.6202 11.0402 10.8644 11.1523 11.1333C11.2643 11.4022 11.3223 11.6905 11.3229 11.9818C11.3229 13.2034 10.327 14.1946 9.09939 14.1946C8.51121 14.1959 7.94662 13.9635 7.52978 13.5485C7.11294 13.1335 6.87798 12.57 6.87657 11.9818C6.87605 11.6715 6.94146 11.3646 7.06844 11.0815L3.72093 8.88323C3.31554 9.23572 2.79616 9.42937 2.25896 9.42832C1.96764 9.42902 1.67904 9.37231 1.40964 9.26143C1.14025 9.15055 0.895339 8.98767 0.688913 8.78211C0.482487 8.57655 0.318588 8.33233 0.206581 8.0634C0.0945746 7.79447 0.0366553 7.50611 0.0361328 7.21479C0.0367424 6.92352 0.094726 6.63523 0.206772 6.36638C0.318817 6.09753 0.48273 5.85338 0.689147 5.64789C0.895565 5.4424 1.14044 5.27958 1.40979 5.16875C1.67915 5.05791 1.9677 5.00122 2.25896 5.00192C2.96538 5.00192 3.59345 5.32923 4.00044 5.83913L6.98346 3.80818C6.91249 3.58877 6.87642 3.35958 6.87657 3.12898Z" fill="#369CD9"/>
</svg>
