<svg width="167" height="229" viewBox="0 0 167 229" fill="none" xmlns="http://www.w3.org/2000/svg">
<g opacity="0.5">
<path d="M45.1633 180.935L76.7853 209.606L48.1395 226.096L3.86481 205.005C2.3579 204.287 2.34145 202.148 3.83714 201.407L45.1633 180.935Z" fill="#606060"/>
<path d="M114.849 1.10712L38.1675 46.0143C36.6209 46.92 35.6774 48.5842 35.6945 50.3764L37.3127 220.711C37.3199 221.477 37.7647 222.172 38.4577 222.5L48.209 227.11L117.191 176.219C117.67 175.866 117.966 175.318 118 174.724L127.673 5.57183L118.686 0.994417C117.471 0.375837 116.025 0.418311 114.849 1.10712Z" fill="#37474F"/>
<path d="M126.684 5.28821L47.7799 52.0487C46.2525 52.9539 45.3197 54.6011 45.3291 56.3765L46.2204 225.544C46.2285 227.082 47.8965 228.036 49.2257 227.263L126.603 182.269C127.217 181.912 127.595 181.257 127.598 180.547L128.194 6.15192C128.197 5.37553 127.352 4.89239 126.684 5.28821Z" fill="#455A64"/>
<path d="M119.955 27.9929L54.6243 66.0766C53.079 66.9774 52.1326 68.635 52.1424 70.4236L52.881 205.212C52.8895 206.753 54.5631 207.706 55.8922 206.927L120.306 169.179C120.918 168.821 121.294 168.165 121.295 167.456L121.459 28.858C121.459 28.0859 120.622 27.6041 119.955 27.9929Z" fill="white"/>
<ellipse cx="87.3714" cy="33.4678" rx="1.68002" ry="2.88604" fill="#060606"/>
<path d="M81.3657 41.5593L96.4243 32.9786L96.5028 34.6407L81.4734 43.2648L81.3657 41.5593Z" fill="black"/>
<ellipse cx="95.4852" cy="192.524" rx="3.48611" ry="5.7777" fill="black"/>
<path d="M108.053 109.754C107.507 111.131 64.1774 135.228 64.1774 135.228C64.6923 120.601 67.1747 113.18 78.256 102.319C83.7611 98.0478 86.898 96.1739 92.6079 94.1946C102.606 91.3288 108.327 97.9122 108.053 109.754Z" fill="#B01F24" fill-opacity="0.5"/>
<ellipse cx="9.84026" cy="16.0618" rx="9.84026" ry="16.0618" transform="matrix(0.882502 0.470308 -0.464916 0.885355 84.34 62.3833)" fill="#B01F24" fill-opacity="0.5"/>
<path d="M149.641 145.064C158.257 153.744 152.575 166.025 142.617 181.591C132.66 197.157 127.583 213.811 109.145 198.881C97.7711 191.59 103.767 169.643 113.453 157.217C122.88 145.122 135.166 136.557 149.641 145.064Z" fill="#007940"/>
<ellipse cx="33.4584" cy="19.1443" rx="33.4584" ry="19.1443" transform="matrix(0.538879 -0.842383 0.838743 0.544528 98.5273 192.073)" fill="#00CF6E"/>
<path d="M125.515 176.653L122.816 175.294L118.992 182.091L128.438 192.74L131.587 193.646L149.355 160.339L143.957 154.901L141.034 153.315L129.563 181.864L125.515 176.653Z" fill="white"/>
</g>
</svg>
