<svg width="13" height="13" viewBox="0 0 13 13" fill="none" xmlns="http://www.w3.org/2000/svg">
<path d="M2.78863 2.05065C2.82897 2.6402 2.92982 3.2165 3.09116 3.76631L2.28442 4.56121C2.00878 3.76631 1.83398 2.92504 1.77347 2.05065H2.78863ZM9.41743 10.0129C9.98888 10.1719 10.5738 10.2712 11.1654 10.311V11.298C10.278 11.2384 9.42415 11.0661 8.61068 10.8012L9.41743 10.0129ZM3.43403 0.725815H1.08101C0.711253 0.725815 0.408722 1.0239 0.408722 1.38823C0.408722 7.60833 5.52486 12.6493 11.8377 12.6493C12.2074 12.6493 12.51 12.3512 12.51 11.9869V9.67507C12.51 9.31074 12.2074 9.01265 11.8377 9.01265C11.004 9.01265 10.1906 8.88017 9.4376 8.63507C9.37037 8.60858 9.29642 8.60195 9.22919 8.60195C9.05439 8.60195 8.88632 8.66819 8.75186 8.79405L7.27282 10.2514C5.37023 9.29087 3.81052 7.76068 2.84242 5.88604L4.32146 4.42873C4.5097 4.24325 4.56348 3.98491 4.48953 3.75306C4.24078 3.01115 4.10633 2.21625 4.10633 1.38823C4.10633 1.0239 3.80379 0.725815 3.43403 0.725815Z" fill="white"/>
</svg>
