<svg width="56" height="84" viewBox="0 0 56 84" fill="none" xmlns="http://www.w3.org/2000/svg">
<path d="M21.3426 51.7457C27.5995 51.7457 32.6718 46.6734 32.6718 40.4165C32.6718 34.1595 27.5995 29.0873 21.3426 29.0873C15.0857 29.0873 10.0134 34.1595 10.0134 40.4165C10.0134 46.6734 15.0857 51.7457 21.3426 51.7457Z" fill="#F9A140"/>
<path opacity="0.1" d="M16.754 28.9512C10.4219 31.4854 7.3431 38.673 9.87732 45.0052C12.4115 51.3374 19.5992 54.4162 25.9313 51.8819C32.2634 49.3476 35.3421 42.16 32.8079 35.8278C30.2737 29.4957 23.086 26.4169 16.754 28.9512ZM25.1606 49.956C19.892 52.0645 13.9117 49.5029 11.8032 44.2344C9.69464 38.9659 12.2562 32.9856 17.5248 30.877C22.7933 28.7684 28.7736 31.33 30.8822 36.5986C32.9907 41.867 30.4291 47.8474 25.1606 49.956Z" fill="#272525"/>
<path d="M16.2833 27.7751C9.30162 30.5693 5.9071 38.4942 8.70132 45.4759C11.4955 52.4576 19.4204 55.8522 26.4021 53.058C33.3838 50.2638 36.7783 42.3388 33.9841 35.3572C31.1898 28.3755 23.265 24.9809 16.2833 27.7751ZM25.5522 50.9346C19.7433 53.2595 13.1495 50.4351 10.8247 44.6261C8.49985 38.8171 11.3242 32.2234 17.1331 29.8985C22.9421 27.5736 29.5358 30.3981 31.8607 36.207C34.1855 42.016 31.3612 48.6097 25.5522 50.9346Z" fill="#F4D242"/>
<path d="M25.7984 39.3725C25.3246 39.0841 24.7234 38.9523 23.9958 38.977C24.3007 38.5955 24.4837 38.1909 24.5449 37.7633C24.606 37.336 24.5436 36.8896 24.3574 36.4244C23.9875 35.5002 23.3785 34.9258 22.5305 34.7018C21.6827 34.4776 20.6346 34.6151 19.3865 35.1147L18.9362 35.2949C18.7687 34.8762 18.6011 34.4575 18.4335 34.0388C18.2795 33.6538 17.5829 33.9326 17.737 34.3176C17.9046 34.7363 18.0722 35.155 18.2397 35.5737L17.7869 35.7549C17.6194 35.3362 17.4518 34.9174 17.2843 34.4988C17.1303 34.1139 16.4337 34.3926 16.5877 34.7776C16.7553 35.1962 16.9229 35.615 17.0904 36.0337L15.2622 36.7654C15.062 36.8455 14.9308 36.9614 14.8684 37.1127C14.806 37.264 14.816 37.4427 14.8985 37.6488C14.9952 37.8903 15.1266 38.0307 15.2926 38.07C15.4587 38.1095 15.7683 38.0383 16.2217 37.8568L16.5131 37.7402L19.6978 45.6974L19.4064 45.814C18.9176 46.0096 18.6255 46.1759 18.5302 46.3131C18.4349 46.4503 18.4345 46.6367 18.5287 46.8723C18.6135 47.0841 18.7287 47.2225 18.874 47.2872C19.0194 47.3519 19.1951 47.3432 19.4013 47.2606L21.2825 46.5077C21.4501 46.9265 21.6177 47.3451 21.7853 47.7639C21.9393 48.1488 22.6359 47.87 22.4818 47.4851C22.3142 47.0664 22.1466 46.6477 21.9791 46.229L22.4318 46.0478C22.5994 46.4665 22.767 46.8852 22.9346 47.304C23.0886 47.6889 23.7852 47.4101 23.6312 47.0252C23.4636 46.6064 23.296 46.1878 23.1284 45.769L23.3578 45.6773L24.1173 45.3733C24.7648 45.1141 25.2507 44.8771 25.5743 44.662C25.8983 44.4471 26.1713 44.1994 26.3938 43.9191C26.7635 43.4432 26.9925 42.9317 27.0806 42.3839C27.169 41.8362 27.1059 41.2947 26.8914 40.7588C26.6368 40.1229 26.2725 39.6609 25.7984 39.3725ZM20.0897 36.3088C20.7726 36.0354 21.3526 35.9657 21.8296 36.0992C22.3065 36.2329 22.6499 36.5616 22.8595 37.0855C23.0811 37.639 23.0431 38.1288 22.7459 38.5551C22.4487 38.9814 21.8818 39.362 21.046 39.6965L20.7458 39.8166C20.3122 38.7333 19.8787 37.65 19.4452 36.5667L20.0897 36.3088ZM18.7488 36.8455C19.1823 37.9288 19.6159 39.0122 20.0494 40.0955L19.5967 40.2766C19.1631 39.1933 18.7296 38.11 18.2959 37.0267L18.7488 36.8455ZM21.4806 44.9837C20.9976 43.7769 20.5145 42.5699 20.0315 41.363L20.4842 41.1818C20.9672 42.3888 21.4503 43.5956 21.9333 44.8026L21.4806 44.9837ZM25.217 43.0016C24.8756 43.4629 24.1516 43.9148 23.0448 44.3579L22.6299 44.5239C22.1469 43.317 21.6639 42.11 21.1808 40.9032L21.6839 40.7018C22.773 40.2659 23.5895 40.0996 24.133 40.2031C24.6765 40.3066 25.0789 40.685 25.3405 41.3386C25.5998 41.9863 25.5586 42.5407 25.217 43.0016Z" fill="#F4D242"/>
<path d="M43.0376 44.628C45.2482 44.628 47.0403 42.8359 47.0403 40.6253C47.0403 38.4147 45.2482 36.6227 43.0376 36.6227C40.827 36.6227 39.035 38.4147 39.035 40.6253C39.035 42.8359 40.827 44.628 43.0376 44.628Z" fill="#F9A140"/>
<path opacity="0.1" d="M43.9757 36.3645C41.6224 35.8464 39.2946 37.3342 38.7765 39.6875C38.2583 42.0409 39.7461 44.3686 42.0994 44.8867C44.4529 45.4048 46.7806 43.9171 47.2987 41.5637C47.8168 39.2104 46.329 36.8826 43.9757 36.3645ZM42.257 44.1711C40.299 43.74 39.0611 41.8032 39.4921 39.8451C39.9231 37.8871 41.86 36.6492 43.818 37.0803C45.7761 37.5114 47.0139 39.4482 46.5829 41.4063C46.1518 43.3643 44.2151 44.6021 42.257 44.1711Z" fill="#272525"/>
<path d="M44.0719 35.9273C41.4772 35.356 38.9107 36.9963 38.3393 39.591C37.7681 42.1858 39.4085 44.7523 42.0032 45.3237C44.5979 45.895 47.1645 44.2546 47.7358 41.6599C48.3071 39.0651 46.6667 36.4985 44.0719 35.9273ZM42.1769 44.5345C40.018 44.0592 38.6533 41.9237 39.1286 39.7648C39.6039 37.6059 41.7393 36.2411 43.8982 36.7164C46.0571 37.1917 47.4219 39.3272 46.9466 41.4861C46.4713 43.6449 44.3358 45.0098 42.1769 44.5345Z" fill="#F4D242"/>
<path d="M44.5467 41.2062C44.4656 41.0277 44.3161 40.8698 44.0987 40.7325C44.2635 40.6817 44.3974 40.5998 44.5003 40.4871C44.6031 40.3744 44.6736 40.2316 44.7116 40.0587C44.7873 39.7152 44.7236 39.4264 44.5204 39.1925C44.3173 38.9585 43.9837 38.7904 43.5199 38.6883L43.3526 38.6514C43.3868 38.4958 43.4211 38.3402 43.4553 38.1846C43.4868 38.0416 43.228 37.9845 43.1964 38.1276C43.1622 38.2832 43.1279 38.4388 43.0936 38.5944L42.9254 38.5573C42.9596 38.4018 42.9939 38.2461 43.0282 38.0905C43.0597 37.9474 42.8008 37.8904 42.7693 38.0335C42.7351 38.1891 42.7007 38.3447 42.6665 38.5004L41.9871 38.3507C41.9126 38.3343 41.8512 38.3421 41.8029 38.374C41.7546 38.4058 41.7221 38.4599 41.7051 38.5366C41.6855 38.6263 41.6959 38.6934 41.7365 38.738C41.7772 38.7825 41.8818 38.8233 42.0503 38.8603L42.1586 38.8842L41.5075 41.8414L41.3992 41.8177C41.2176 41.7776 41.0992 41.7682 41.0441 41.7894C40.9889 41.8105 40.9517 41.8649 40.9324 41.9523C40.9152 42.0311 40.9213 42.0943 40.9509 42.1422C40.9805 42.19 41.0336 42.2223 41.1101 42.2392L41.8093 42.3932C41.7751 42.5487 41.7407 42.7044 41.7065 42.86C41.675 43.003 41.9338 43.06 41.9654 42.9169C41.9996 42.7614 42.0339 42.6057 42.0682 42.4502L42.2364 42.4872C42.2022 42.6428 42.1679 42.7984 42.1336 42.954C42.1022 43.0971 42.361 43.154 42.3926 43.011C42.4268 42.8554 42.4611 42.6998 42.4953 42.5442L42.5805 42.563L42.8628 42.6252C43.1035 42.6781 43.2926 42.7055 43.4298 42.707C43.5671 42.7086 43.6961 42.6905 43.8168 42.6527C44.0194 42.5872 44.1879 42.4833 44.3226 42.3408C44.4572 42.1984 44.5464 42.0277 44.5903 41.8285C44.6425 41.592 44.6278 41.3846 44.5467 41.2062ZM43.4879 39.1767C43.7417 39.2326 43.925 39.3275 44.0378 39.4612C44.1505 39.595 44.1855 39.7593 44.1427 39.9541C44.0974 40.1598 43.989 40.2954 43.8174 40.3608C43.6459 40.4263 43.4047 40.4248 43.094 40.3564L42.9824 40.3318C43.0711 39.9292 43.1597 39.5266 43.2484 39.124L43.4879 39.1767ZM42.9896 39.0669C42.9009 39.4696 42.8123 39.8722 42.7236 40.2748L42.5553 40.2377C42.6439 39.8351 42.7326 39.4325 42.8213 39.0299L42.9896 39.0669ZM42.1703 41.9872C42.269 41.5386 42.3678 41.0901 42.4665 40.6415L42.6348 40.6786C42.5361 41.1271 42.4372 41.5757 42.3385 42.0242L42.1703 41.9872ZM43.6556 42.1508C43.4642 42.2176 43.1629 42.2058 42.7515 42.1152L42.5973 42.0812C42.6961 41.6326 42.7949 41.1841 42.8936 40.7356L43.0806 40.7767C43.4854 40.8658 43.7569 40.9795 43.8951 41.1177C44.0333 41.256 44.0756 41.4465 44.0222 41.6894C43.9691 41.9302 43.847 42.084 43.6556 42.1508Z" fill="#F4D242"/>
<path d="M37.3689 20.21C42.3346 20.21 46.36 16.1845 46.36 11.2189C46.36 6.2532 42.3346 2.22774 37.3689 2.22774C32.4033 2.22774 28.3778 6.2532 28.3778 11.2189C28.3778 16.1845 32.4033 20.21 37.3689 20.21Z" fill="#F9A140"/>
<path opacity="0.1" d="M36.6028 1.44793C31.2064 1.87114 27.1748 6.58872 27.598 11.985C28.0212 17.3814 32.7387 21.4129 38.1351 20.9898C43.5314 20.5667 47.563 15.8491 47.1398 10.4528C46.7167 5.05638 41.9991 1.02491 36.6028 1.44793ZM38.0063 19.3486C33.5165 19.7007 29.5912 16.3463 29.2392 11.8563C28.8871 7.36639 32.2415 3.44123 36.7314 3.08917C41.2212 2.7371 45.1464 6.09147 45.4985 10.5814C45.8506 15.0714 42.4962 18.9965 38.0063 19.3486Z" fill="#272525"/>
<path d="M36.5242 0.445658C30.5744 0.912191 26.1292 6.11373 26.5957 12.0636C27.0623 18.0135 32.2637 22.4586 38.2137 21.9921C44.1635 21.5255 48.6086 16.324 48.142 10.3741C47.6756 4.42428 42.4741 -0.0208757 36.5242 0.445658ZM38.0717 20.1824C33.1214 20.5706 28.7935 16.8721 28.4053 11.9217C28.0171 6.9712 31.7157 2.64344 36.666 2.25524C41.6165 1.86714 45.9443 5.5656 46.3324 10.516C46.7207 15.4665 43.0222 19.7943 38.0717 20.1824Z" fill="#F4D242"/>
<path d="M40.9914 11.4812C40.7006 11.1506 40.2763 10.9087 39.7192 10.7555C40.0404 10.5386 40.2747 10.2753 40.4221 9.96579C40.5695 9.65654 40.6277 9.30362 40.5966 8.90719C40.5348 8.11957 40.2092 7.54045 39.6197 7.17028C39.0303 6.79994 38.2038 6.65647 37.1402 6.73987L36.7565 6.76999C36.7285 6.41321 36.7005 6.05633 36.6724 5.69955C36.6468 5.37151 36.0532 5.41802 36.0789 5.74606C36.1069 6.10293 36.1348 6.45971 36.1628 6.81659L35.7771 6.84688C35.7491 6.49 35.7211 6.13322 35.6931 5.77635C35.6673 5.44831 35.0738 5.49481 35.0994 5.82285C35.1274 6.17973 35.1554 6.53651 35.1834 6.89338L33.6254 7.01557C33.4548 7.02896 33.328 7.08576 33.2449 7.18556C33.1619 7.28544 33.1273 7.42316 33.141 7.5988C33.1571 7.80466 33.2235 7.94203 33.34 8.01111C33.4564 8.08035 33.7078 8.09957 34.0942 8.0692L34.3426 8.04972L34.8744 14.8309L34.626 14.8504C34.2094 14.883 33.9488 14.94 33.8442 15.0214C33.7395 15.1029 33.6951 15.244 33.7108 15.4447C33.725 15.6252 33.7795 15.7573 33.8743 15.8407C33.9691 15.924 34.1043 15.9589 34.2801 15.9452L35.8834 15.8195C35.9113 16.1763 35.9392 16.5331 35.9673 16.8899C35.993 17.218 36.5866 17.1714 36.5609 16.8434C36.5329 16.4866 36.505 16.1298 36.4769 15.773L36.8628 15.7427C36.8907 16.0995 36.9187 16.4563 36.9468 16.8132C36.9725 17.1412 37.566 17.0947 37.5403 16.7667C37.5123 16.4098 37.4844 16.053 37.4564 15.6962L37.6518 15.6808L38.2991 15.6301C38.851 15.5868 39.2751 15.5221 39.5711 15.4357C39.8673 15.3494 40.1327 15.2263 40.3675 15.0665C40.7601 14.7934 41.0544 14.4599 41.2508 14.0659C41.4472 13.6718 41.5274 13.2466 41.4916 12.7899C41.4492 12.2479 41.2824 11.8118 40.9914 11.4812ZM37.3907 7.81066C37.9727 7.76501 38.4286 7.84927 38.7583 8.06319C39.0881 8.27711 39.2705 8.60738 39.3055 9.05392C39.3425 9.52552 39.198 9.88771 38.872 10.1404C38.546 10.3931 38.0266 10.5474 37.3144 10.6033L37.0587 10.6233C36.9862 9.70013 36.9138 8.77685 36.8415 7.85365L37.3907 7.81066ZM36.2479 7.90024C36.3203 8.82344 36.3927 9.74673 36.4651 10.6698L36.0793 10.7001C36.0068 9.77693 35.9344 8.85373 35.8621 7.93045L36.2479 7.90024ZM36.3937 14.7116C36.3132 13.683 36.2324 12.6545 36.1519 11.626L36.5377 11.5957C36.6183 12.6243 36.699 13.6528 36.7796 14.6813L36.3937 14.7116ZM39.6931 14.0931C39.3254 14.3619 38.67 14.5331 37.7268 14.6071L37.3732 14.6348C37.2926 13.6063 37.2119 12.5777 37.1313 11.5492L37.56 11.5156C38.4882 11.4427 39.1461 11.5098 39.5334 11.7167C39.9208 11.9236 40.1361 12.3054 40.1798 12.8625C40.2231 13.4145 40.0609 13.8247 39.6931 14.0931Z" fill="#F4D242"/>
<path d="M36.7198 83.1355H3.33778C2.53943 83.1355 1.89227 82.5323 1.89227 81.7882V51.1326C1.89227 50.3885 2.53943 49.7852 3.33778 49.7852H42.4778C43.2762 49.7852 43.9233 50.3885 43.9233 51.1326V76.4211C43.9232 80.1294 40.6981 83.1355 36.7198 83.1355Z" fill="#60747F"/>
<path d="M35.381 83.2974H1.55043C0.875985 83.2974 0.329224 82.7878 0.329224 82.1591V51.0853C0.329224 50.4567 0.875985 49.947 1.55043 49.947H41.1389C41.8133 49.947 42.3601 50.4566 42.3601 51.0853V76.7919C42.3602 80.3848 39.2354 83.2974 35.381 83.2974Z" fill="#369CD9"/>
<path d="M46.3548 70.5079H34.5411C32.0505 70.5079 30.0313 68.6257 30.0313 66.3041V66.2193C30.0313 63.8975 32.0504 62.0155 34.5411 62.0155H46.3548V70.5079Z" fill="#2E4661"/>
<path opacity="0.25" d="M46.3548 66.3041V70.5503H34.5411C32.0505 70.5503 30.0313 68.6682 30.0313 66.3466V66.2616L46.3548 66.3041Z" fill="#272525"/>
<path d="M48.1216 36.9815C51.5735 36.9815 54.3719 34.1831 54.3719 30.7311C54.3719 27.2791 51.5735 24.4807 48.1216 24.4807C44.6696 24.4807 41.8712 27.2791 41.8712 30.7311C41.8712 34.1831 44.6696 36.9815 48.1216 36.9815Z" fill="#F9A140"/>
<path opacity="0.1" d="M45.895 24.2917C42.3387 25.5214 40.4526 29.4012 41.6824 32.9575C42.9121 36.5138 46.7918 38.3998 50.3481 37.1701C53.9044 35.9404 55.7904 32.0606 54.5607 28.5043C53.331 24.948 49.4512 23.062 45.895 24.2917ZM49.9742 36.0885C47.0153 37.1117 43.7871 35.5425 42.764 32.5835C41.7408 29.6245 43.31 26.3965 46.269 25.3733C49.2279 24.3501 52.456 25.9194 53.4792 28.8783C54.5023 31.8372 52.933 35.0654 49.9742 36.0885Z" fill="#272525"/>
<path d="M45.6665 23.6316C41.7455 24.9874 39.666 29.2653 41.0218 33.1863C42.3777 37.1074 46.6555 39.187 50.5766 37.831C54.4977 36.4751 56.5771 32.1974 55.2213 28.2763C53.8654 24.3552 49.5876 22.2757 45.6665 23.6316ZM50.1642 36.6385C46.9017 37.7666 43.3425 36.0364 42.2144 32.7739C41.0863 29.5115 42.8165 25.9523 46.0789 24.8242C49.3414 23.696 52.9007 25.4263 54.0287 28.6887C55.1568 31.9511 53.4266 35.5104 50.1642 36.6385Z" fill="#F4D242"/>
<path d="M50.6046 30.2732C50.3512 30.1018 50.0234 30.0133 49.6217 30.0077C49.7998 29.8056 49.9113 29.5874 49.9563 29.3534C50.0012 29.1195 49.9786 28.8719 49.8882 28.6106C49.7087 28.0916 49.3883 27.759 48.9269 27.6132C48.4656 27.4672 47.8844 27.5155 47.1834 27.7579L46.9306 27.8453C46.8493 27.6102 46.768 27.3751 46.6866 27.1399C46.6119 26.9237 46.2207 27.059 46.2954 27.2751C46.3767 27.5103 46.4581 27.7454 46.5394 27.9806L46.2851 28.0686C46.2038 27.8334 46.1224 27.5983 46.0411 27.3631C45.9663 27.1468 45.5752 27.2822 45.6499 27.4984C45.7312 27.7335 45.8126 27.9687 45.8938 28.2038L44.8671 28.5589C44.7546 28.5977 44.6792 28.6582 44.6409 28.7399C44.6025 28.8216 44.6033 28.9204 44.6433 29.0361C44.6902 29.1718 44.759 29.2525 44.8493 29.2786C44.9398 29.3048 45.1123 29.2737 45.3669 29.1857L45.5306 29.1291L47.0759 33.598L46.9122 33.6546C46.6378 33.7495 46.4724 33.8335 46.4162 33.9065C46.3601 33.9797 46.355 34.0825 46.4007 34.2147C46.4418 34.3337 46.5016 34.413 46.58 34.4525C46.6585 34.4919 46.7555 34.4918 46.8714 34.4517L47.9279 34.0864C48.0092 34.3215 48.0906 34.5567 48.1719 34.7919C48.2467 35.0081 48.6379 34.8728 48.5631 34.6566C48.4819 34.4214 48.4004 34.1863 48.3192 33.9511L48.5734 33.8632C48.6548 34.0983 48.7361 34.3335 48.8174 34.5686C48.8921 34.7849 49.2834 34.6496 49.2087 34.4334C49.1273 34.1983 49.046 33.9631 48.9647 33.7279L49.0935 33.6834L49.5201 33.5359C49.8838 33.4101 50.1578 33.2923 50.3417 33.1823C50.5259 33.0724 50.683 32.9431 50.8129 32.7945C51.0292 32.542 51.1688 32.2661 51.2319 31.9667C51.295 31.6672 51.2745 31.3671 51.1705 31.0661C51.0469 30.7089 50.8583 30.4447 50.6046 30.2732ZM47.5394 28.4345C47.923 28.3018 48.2444 28.2786 48.5037 28.3648C48.763 28.451 48.9436 28.6413 49.0454 28.9355C49.1529 29.2463 49.1191 29.5152 48.944 29.7423C48.769 29.9694 48.4466 30.1642 47.9772 30.3265L47.8086 30.3849C47.5982 29.7764 47.3878 29.168 47.1775 28.5596L47.5394 28.4345ZM46.7863 28.6948C46.9967 29.3032 47.2071 29.9116 47.4174 30.52L47.1632 30.608C46.9528 29.9995 46.7425 29.3911 46.5321 28.7827L46.7863 28.6948ZM48.0773 33.2517C47.8429 32.5739 47.6085 31.896 47.3742 31.2181L47.6284 31.1303C47.8628 31.808 48.0972 32.4859 48.3315 33.1638L48.0773 33.2517ZM50.1886 32.2578C49.9884 32.503 49.5774 32.733 48.9558 32.9479L48.7228 33.0285C48.4885 32.3507 48.254 31.6728 48.0196 30.9949L48.3022 30.8972C48.9139 30.6857 49.3682 30.6156 49.6651 30.687C49.9619 30.7584 50.1736 30.9774 50.3005 31.3446C50.4262 31.7083 50.389 32.0128 50.1886 32.2578Z" fill="#F4D242"/>
</svg>
